<svg width="12" height="12" viewBox="0 0 12 12" fill="none" xmlns="http://www.w3.org/2000/svg">
<path d="M6 0.625C8.964 0.625 11.375 3.036 11.375 6C11.375 8.964 8.964 11.375 6 11.375C3.036 11.375 0.625 8.964 0.625 6C0.625 3.036 3.036 0.625 6 0.625ZM6 10.625C8.5505 10.625 10.625 8.5505 10.625 6C10.625 3.4495 8.5505 1.375 6 1.375C3.4495 1.375 1.375 3.4495 1.375 6C1.375 8.5505 3.4495 10.625 6 10.625ZM4.73499 5.73499C4.58849 5.88149 4.58849 6.119 4.73499 6.2655L6.23499 7.7655C6.30799 7.8385 6.404 7.87549 6.5 7.87549C6.596 7.87549 6.69201 7.839 6.76501 7.7655C6.91151 7.619 6.91151 7.38149 6.76501 7.23499L5.53003 6L6.76501 4.76501C6.91151 4.61851 6.91151 4.381 6.76501 4.2345C6.61851 4.088 6.381 4.088 6.2345 4.2345L4.73499 5.73499Z" fill="#868686"/>
</svg>
