<svg width="49" height="32" viewBox="0 0 49 32" fill="none" xmlns="http://www.w3.org/2000/svg">
<g clip-path="url(#clip0_365_11969)">
<path d="M0.25 0H48.25V32H0.25V0Z" fill="black"/>
<path d="M0.25 0H48.25V21.3333H0.25V0Z" fill="white"/>
<path d="M0.25 0H48.25V10.6667H0.25V0Z" fill="#CE1126"/>
<path d="M24.2932 16.1281L27.9459 19.519L27.6859 13.3606C27.6477 12.4273 26.8366 12.6414 26.2474 12.9781C25.6506 13.3606 24.9697 13.3606 24.2503 13.1081C23.5311 13.3606 22.8501 13.3606 22.2533 12.9781C21.6642 12.6414 20.8532 12.4273 20.8149 13.3606L20.5547 19.519L24.2932 16.1281Z" fill="white" stroke="#C09300" stroke-width="0.1" stroke-linejoin="round"/>
<path d="M21.2357 13.1463L20.9832 19.1366L20.5547 19.5189L20.8149 13.3606C20.9372 13.2764 21.1516 13.1463 21.2357 13.1463V13.1463ZM21.7488 13.5751L21.5345 18.586L21.1062 19.0244L21.3663 13.2383C21.4505 13.3224 21.703 13.5289 21.7488 13.5748L21.7488 13.5751ZM22.2154 13.9575L22.0472 18.1368L21.7029 18.4733L21.9172 13.705C22.0011 13.7892 22.1695 13.9116 22.2154 13.9575ZM22.7205 14.1719L22.5522 17.7338L22.2155 18.0069L22.3838 14.0418C22.468 14.0801 22.6363 14.1719 22.7205 14.1719ZM23.1872 14.1719L23.0647 17.1402L22.7204 17.4769L22.8505 14.2102C22.9345 14.2102 23.1488 14.2102 23.1872 14.1719Z" fill="#C09300"/>
<path d="M27.2643 13.1463L27.5168 19.1366L27.9453 19.5189L27.6851 13.3606C27.5628 13.2764 27.3484 13.1463 27.2643 13.1463V13.1463ZM26.7512 13.5751L26.9655 18.586L27.3938 19.0244L27.1337 13.2383C27.0495 13.3224 26.797 13.5289 26.7512 13.5748L26.7512 13.5751ZM26.2846 13.9575L26.4528 18.1368L26.7971 18.4733L26.5828 13.705C26.4989 13.7892 26.3305 13.9116 26.2846 13.9575ZM25.7795 14.1719L25.9478 17.7338L26.2845 18.0069L26.1162 14.0418C26.032 14.0801 25.8637 14.1719 25.7795 14.1719ZM25.3128 14.1719L25.4353 17.1402L25.7796 17.4769L25.6495 14.2102C25.5655 14.2102 25.3512 14.2102 25.3128 14.1719Z" fill="#C09300"/>
<path d="M24.4196 16.8034L24.9323 19.137L24.7639 19.3052L24.588 19.1752L24.2972 17.0942L24.4196 19.1752L24.2512 19.3893L24.0829 19.1752L24.2054 17.0942L23.9147 19.1752L23.7385 19.3052L23.5703 19.137L24.0829 16.8033L24.4196 16.8034Z" fill="#C09300" stroke="#C09300" stroke-width="0.1"/>
<path d="M23.1035 15.7783L22.0859 19.3892L23.4862 19.6035L24.0829 16.8875L23.1035 15.7783L23.1035 15.7783Z" fill="white" stroke="#C09300" stroke-width="0.1" stroke-linejoin="round"/>
<path d="M22.7656 17.0103L22.8881 17.3086L23.5497 16.6767" stroke="#C09300" stroke-width="0.1" stroke-linejoin="round"/>
<path d="M23.2239 16.2625L23.3623 17.561L23.7831 17.0102M23.6148 17.2241L23.8447 18.0175M23.9348 17.726L23.4699 18.4322M23.6149 19.137L23.4661 18.4332L23.3362 17.7173L23.0247 18.1391L22.8881 17.6527L22.4521 18.0999L22.6738 18.9133L22.9798 18.4101L23.1481 18.9227L23.4623 18.4341M22.3828 19.3052L22.6655 18.9082L22.8496 19.5192L23.1021 19.0908L23.2705 19.6036" stroke="#C09300" stroke-width="0.1" stroke-linejoin="round"/>
<path d="M25.3965 15.7783L26.4141 19.3892L25.0138 19.6035L24.4171 16.8875L25.3965 15.7783L25.3965 15.7783Z" fill="white" stroke="#C09300" stroke-width="0.1" stroke-linejoin="round"/>
<path d="M25.7344 17.0103L25.6119 17.3086L24.9503 16.6767" stroke="#C09300" stroke-width="0.1" stroke-linejoin="round"/>
<path d="M25.2761 16.2625L25.1377 17.561L24.7169 17.0102M24.8852 17.2241L24.6553 18.0175M24.5652 17.726L25.0301 18.4322M24.8851 19.137L25.0339 18.4332L25.1638 17.7173L25.4753 18.1391L25.6119 17.6527L26.0479 18.0999L25.8262 18.9133L25.5202 18.4101L25.3519 18.9227L25.0377 18.4341M26.1172 19.3052L25.8345 18.9082L25.6504 19.5192L25.3979 19.0908L25.2295 19.6036" stroke="#C09300" stroke-width="0.1" stroke-linejoin="round"/>
<path d="M24.2522 21.0034C25.3159 21.0034 26.3335 20.9192 26.9303 20.7509C27.1828 20.7051 27.1828 20.575 27.1828 20.4066C27.4354 20.3225 27.3052 20.0242 27.4812 20.0242C27.3052 20.0702 27.267 19.7258 27.0528 19.7718C27.0528 19.4733 26.7543 19.4351 26.5018 19.5192C25.9968 19.6876 25.1016 19.7258 24.2522 19.7258C23.403 19.6876 22.5153 19.6876 22.0027 19.5192C21.7502 19.4351 21.4519 19.4733 21.4519 19.7718C21.2376 19.7258 21.1994 20.0702 21.0234 20.0242C21.1994 20.0242 21.0693 20.3225 21.3218 20.4066C21.3218 20.575 21.3218 20.7051 21.5819 20.7509C22.171 20.9192 23.1888 21.0034 24.2522 21.0034H24.2522Z" fill="white" stroke="#C09300" stroke-width="0.1" stroke-linejoin="round"/>
<path d="M22.8073 19.3889C23.1515 19.4349 23.5341 19.4731 23.8326 19.4349C24.0008 19.4349 24.1233 19.7256 23.7866 19.7716C23.4883 19.8097 23.0216 19.7716 22.769 19.7256C22.5548 19.6873 22.0881 19.6032 21.7896 19.5189C21.4912 19.389 21.7056 19.1366 21.8737 19.1748C22.1339 19.2589 22.4706 19.3431 22.8073 19.389L22.8073 19.3889ZM25.6996 19.3889C25.3552 19.4349 24.9727 19.4731 24.6819 19.4349C24.5059 19.4349 24.3834 19.7256 24.7202 19.7716C25.0186 19.8097 25.4853 19.7716 25.7376 19.7256C25.952 19.6873 26.4187 19.6032 26.7171 19.5189C27.0155 19.389 26.8013 19.1366 26.6329 19.1748C26.3728 19.2589 26.0361 19.3431 25.6996 19.3889Z" fill="white" stroke="#C09300" stroke-width="0.1" stroke-linejoin="round"/>
<path d="M21.7504 19.221C21.4903 19.175 21.3679 19.4733 21.4522 19.6416C21.4904 19.5575 21.6664 19.5575 21.7047 19.4733C21.7504 19.3433 21.6664 19.3434 21.7504 19.221ZM22.768 20.0034C22.768 19.8352 22.9363 19.8559 22.9363 19.6875C22.9363 19.6034 22.8905 19.4733 22.8063 19.4733C22.7222 19.4733 22.6379 19.5574 22.6379 19.6416C22.5996 19.81 22.768 19.8352 22.768 20.0034ZM23.9792 19.5191C24.2315 19.5191 24.2065 19.8558 24.0841 20.0241C24.0841 19.9017 23.8699 19.8558 23.8699 19.7718C23.8699 19.6416 24.0632 19.6416 23.9792 19.5191ZM26.7542 19.221C27.0143 19.175 27.1368 19.4733 27.0526 19.6416C27.0143 19.5575 26.8383 19.5575 26.8001 19.4733C26.7542 19.3433 26.8384 19.3434 26.7542 19.221ZM25.7366 20.0034C25.7366 19.8352 25.5684 19.8559 25.5684 19.6875C25.5684 19.6034 25.6142 19.4733 25.6984 19.4733C25.7825 19.4733 25.8667 19.5574 25.8667 19.6416C25.905 19.81 25.7366 19.8352 25.7366 20.0034ZM24.5254 19.5191C24.273 19.5191 24.298 19.8558 24.4204 20.0241C24.4204 19.9017 24.6346 19.8558 24.6346 19.7718C24.6346 19.6416 24.4412 19.6416 24.5254 19.5191Z" fill="white" stroke="#C09300" stroke-width="0.1" stroke-linejoin="round"/>
<path d="M21.8362 19.3052C21.9204 19.3052 22.0505 19.3435 22.0887 19.3893L21.8359 19.3051L21.8362 19.3052ZM22.2564 19.4353C22.3024 19.4353 22.4708 19.4736 22.5549 19.5194L22.2562 19.4351L22.2564 19.4353ZM23.7871 19.6034C23.703 19.6034 23.5346 19.6034 23.4888 19.6415L23.787 19.6031L23.7871 19.6034ZM23.3204 19.6034C23.2746 19.5574 23.1062 19.5574 23.0221 19.6034H23.3203H23.3204ZM26.6719 19.3052C26.5878 19.3052 26.4653 19.3435 26.4194 19.3893L26.6719 19.3052ZM26.2511 19.4353C26.2052 19.4353 26.0369 19.4736 25.9527 19.5194L26.2514 19.4351L26.2511 19.4353ZM24.7204 19.6034C24.8047 19.6034 24.973 19.6034 25.0189 19.6415L24.7202 19.6031L24.7204 19.6034ZM25.1871 19.6034C25.233 19.5574 25.4014 19.5574 25.4855 19.6034H25.1869H25.1871Z" fill="white" stroke="#C09300" stroke-width="0.1" stroke-linejoin="round"/>
<path d="M21.7616 19.9777C21.7331 19.9723 21.7181 19.9498 21.7253 19.9231C21.734 19.8906 21.7601 19.872 21.7846 19.8807C21.8003 19.8862 21.8289 19.9151 21.829 19.9254C21.8292 19.9373 21.814 19.9656 21.8075 19.9657C21.8047 19.9657 21.8004 19.9681 21.7979 19.9711C21.7925 19.9774 21.7758 19.9805 21.7616 19.9777ZM24.6912 20.1868C24.6806 20.1829 24.6637 20.1591 24.6637 20.1482C24.6638 20.1275 24.6943 20.0939 24.7132 20.0937C24.7226 20.0937 24.7482 20.1069 24.7577 20.1169C24.7751 20.1349 24.7713 20.1645 24.7495 20.1813C24.7388 20.1896 24.7068 20.1926 24.6912 20.1868L24.6912 20.1868ZM24.7104 20.3191C24.688 20.3115 24.6798 20.3005 24.6779 20.2757C24.676 20.2498 24.6786 20.2457 24.7059 20.2308L24.7254 20.2202L24.7439 20.2284C24.7695 20.2399 24.7809 20.2522 24.7818 20.2694C24.7827 20.2879 24.769 20.3069 24.7476 20.3165C24.7289 20.3249 24.7278 20.3249 24.7104 20.3191ZM21.9968 19.7383C21.9783 19.7377 21.953 19.7547 21.9384 19.7633C21.9038 19.7714 21.8635 19.7927 21.8301 19.7699C21.7972 19.7598 21.7534 19.7678 21.7484 19.8083C21.7569 19.843 21.8056 19.8629 21.8351 19.8399C21.857 19.8113 21.9168 19.7944 21.9234 19.8433C21.8991 19.8802 21.9018 19.9291 21.8818 19.9683C21.8785 19.9927 21.8684 20.0159 21.8551 20.0366C21.8305 20.0391 21.8042 20.0362 21.7834 20.0516C21.7501 20.0534 21.716 20.07 21.6968 20.0983C21.6753 20.1291 21.6547 20.1604 21.6484 20.1983C21.6542 20.2369 21.6984 20.248 21.7318 20.2499C21.7673 20.2597 21.8029 20.2726 21.8384 20.2833C21.8963 20.2962 21.9506 20.3171 22.0084 20.3299C22.0929 20.3554 22.1817 20.3671 22.2668 20.3899C22.2757 20.3929 22.2841 20.3955 22.2934 20.3966C22.3288 20.4039 22.3472 20.3655 22.3501 20.3366C22.3676 20.2748 22.381 20.2118 22.3984 20.1499C22.4104 20.1251 22.4249 20.069 22.3768 20.0816C22.3493 20.0981 22.326 20.1228 22.2918 20.1249C22.2452 20.1276 22.2718 20.1753 22.2901 20.1949C22.2942 20.2263 22.2843 20.2637 22.2634 20.2883C22.2357 20.3058 22.201 20.2853 22.1718 20.2783C22.1411 20.2788 22.0799 20.2632 22.1084 20.2216C22.1186 20.1908 22.1195 20.1572 22.1318 20.1266C22.1474 20.0938 22.1497 20.0581 22.1568 20.0233C22.1375 19.9818 22.1046 20.0369 22.0784 20.0416C22.0604 20.0541 21.9928 20.0594 22.0284 20.0916C22.0591 20.1149 22.0356 20.1554 22.0301 20.1849C22.0281 20.226 21.9854 20.2358 21.9518 20.2266C21.9183 20.225 21.8717 20.2001 21.9001 20.1633C21.9066 20.1326 21.9173 20.1025 21.9234 20.0716L21.9601 19.9616C21.9659 19.9285 21.9778 19.8972 21.9934 19.8683C21.9944 19.8317 22.0189 19.8003 22.0184 19.7633C22.0159 19.7452 22.0078 19.7386 21.9968 19.7383ZM21.8051 20.1249C21.8095 20.1242 21.8126 20.1248 21.8168 20.1266C21.8301 20.1323 21.8305 20.1431 21.8168 20.1549C21.8108 20.1601 21.804 20.1651 21.8018 20.1649C21.7768 20.1628 21.7695 20.1591 21.7685 20.1499C21.7675 20.1419 21.7701 20.1395 21.7868 20.1316C21.7951 20.1276 21.8007 20.1257 21.8051 20.1249ZM21.7498 20.3927C21.7234 20.3678 21.7277 20.3497 21.7668 20.3205C21.7835 20.308 21.7937 20.3094 21.8128 20.3269C21.8423 20.3538 21.8434 20.3708 21.8174 20.3938C21.8046 20.4052 21.799 20.4075 21.784 20.4077C21.7683 20.4078 21.7639 20.4059 21.7498 20.3927ZM21.9125 20.4417C21.9064 20.4403 21.9007 20.4376 21.8957 20.4338C21.8907 20.4301 21.8865 20.4253 21.8834 20.4199C21.8803 20.4145 21.8783 20.4085 21.8776 20.4022C21.8769 20.396 21.8775 20.3897 21.8793 20.3837C21.8862 20.3605 21.8901 20.3583 21.9241 20.3579C21.9622 20.3575 21.9696 20.3639 21.97 20.3975C21.9702 20.4164 21.9688 20.4208 21.9594 20.4295C21.9483 20.4398 21.9271 20.4453 21.9125 20.4417ZM26.665 20.446C26.6529 20.4359 26.6505 20.4314 26.6504 20.4185C26.6502 20.3966 26.6628 20.3806 26.6901 20.3682C26.7265 20.3517 26.7413 20.354 26.755 20.3781C26.7732 20.4102 26.7724 20.4233 26.7506 20.4449C26.7385 20.4568 26.7363 20.4575 26.7087 20.4578C26.6816 20.4579 26.6785 20.4572 26.665 20.446ZM22.1285 20.5073C22.1091 20.5022 22.099 20.4876 22.0988 20.4643C22.0986 20.4465 22.0999 20.4437 22.1123 20.4339C22.1204 20.4276 22.1331 20.4222 22.1432 20.4208C22.1574 20.4189 22.1626 20.4201 22.1741 20.4282C22.2034 20.4488 22.2097 20.4692 22.1927 20.489C22.1745 20.5101 22.1574 20.515 22.1285 20.5073ZM23.2976 20.5596C23.2933 20.5542 23.2838 20.5511 23.2828 20.5443C23.2845 20.5147 23.2859 20.4847 23.2953 20.4564C23.3005 20.4285 23.296 20.3994 23.3057 20.3722C23.3157 20.3227 23.3156 20.2718 23.3271 20.2227C23.3277 20.1974 23.3301 20.1721 23.3374 20.1477C23.3458 20.1092 23.3381 20.069 23.3495 20.0309C23.3482 20.0166 23.3647 19.9785 23.3791 20.0011C23.4001 20.0319 23.4277 20.0568 23.4549 20.0819C23.4783 20.0954 23.4568 20.1152 23.4407 20.1219C23.4186 20.1306 23.4132 20.155 23.4147 20.1764C23.4116 20.1985 23.4028 20.2195 23.4019 20.242C23.3972 20.2752 23.3981 20.3089 23.3938 20.3421C23.3841 20.3746 23.3878 20.4093 23.3845 20.4428C23.385 20.464 23.3749 20.4833 23.3763 20.5047C23.3737 20.5263 23.3727 20.5523 23.3545 20.5672C23.337 20.576 23.3117 20.5745 23.2976 20.5596H23.2976ZM24.8816 20.0369C24.8558 20.0564 24.8328 20.0793 24.8099 20.1019C24.7783 20.1259 24.8359 20.1398 24.8432 20.1603C24.8516 20.1915 24.8511 20.2248 24.8532 20.2569C24.8628 20.2863 24.867 20.3177 24.8649 20.3486C24.8621 20.3818 24.8189 20.3748 24.7999 20.3936C24.7737 20.4046 24.7632 20.4304 24.7432 20.4486C24.7301 20.4743 24.7266 20.506 24.7249 20.5353C24.7268 20.5592 24.7088 20.5859 24.7249 20.6069C24.727 20.6099 24.7294 20.614 24.7316 20.6169C24.737 20.6247 24.7498 20.6185 24.7582 20.6203C24.7851 20.6188 24.8131 20.6228 24.8382 20.6119C24.9028 20.6008 24.9679 20.5999 25.0332 20.5969C25.0732 20.5982 25.1116 20.5843 25.1516 20.5853C25.1829 20.5922 25.1969 20.5583 25.1966 20.5336C25.1788 20.4987 25.1942 20.4574 25.1799 20.4219C25.1674 20.3861 25.1723 20.3458 25.1666 20.3086C25.1658 20.2794 25.1287 20.2685 25.1099 20.2903C25.0917 20.3087 25.0623 20.3123 25.0482 20.3353C25.0324 20.3674 25.0817 20.3674 25.0899 20.3919C25.0993 20.4167 25.0962 20.4442 25.0982 20.4703C25.1043 20.5019 25.07 20.5037 25.0482 20.5069C25.0196 20.5177 24.9794 20.5248 24.9632 20.4903C24.953 20.4647 24.9544 20.4373 24.9516 20.4103C24.9509 20.3627 24.9394 20.316 24.9366 20.2686C24.9338 20.2101 24.9237 20.152 24.9199 20.0936C24.9194 20.0693 24.9161 20.0297 24.8816 20.0369V20.0369ZM24.8482 20.4769L24.8649 20.4786L24.8666 20.4986L24.8682 20.5186L24.8466 20.5253C24.8395 20.5274 24.8322 20.529 24.8249 20.5303C24.8215 20.5282 24.8181 20.526 24.8149 20.5236C24.8032 20.5151 24.8062 20.5031 24.8216 20.4869C24.8302 20.4778 24.8343 20.4761 24.8482 20.4769H24.8482ZM23.2501 19.982C23.2298 19.9892 23.2041 20.019 23.1834 20.0187C23.1365 20.022 23.1431 20.0677 23.1768 20.0837C23.1812 20.0975 23.177 20.115 23.1784 20.1303C23.185 20.1724 23.1584 20.2063 23.1634 20.2487C23.1611 20.2951 23.1471 20.3403 23.1451 20.387C23.1319 20.4352 23.1318 20.4847 23.1234 20.5337C23.1179 20.5776 23.0861 20.5621 23.0584 20.5503C23.0582 20.5313 23.057 20.5127 23.0568 20.4937C23.0683 20.4501 23.0332 20.4374 22.9984 20.432C22.9618 20.4355 22.9439 20.4041 22.9518 20.372C22.9675 20.3533 23.007 20.3585 23.0318 20.3553C23.0841 20.3662 23.082 20.296 23.0551 20.272C23.0367 20.2381 22.9912 20.2235 22.9784 20.1887C22.9835 20.1425 22.9529 20.0963 22.9151 20.0737C22.8571 20.0696 22.8132 20.1197 22.7918 20.1687C22.7676 20.1756 22.7436 20.1829 22.7201 20.192C22.6823 20.2015 22.6284 20.267 22.6801 20.292C22.7091 20.3 22.7975 20.3202 22.7584 20.3603C22.7365 20.398 22.6944 20.3987 22.6568 20.3887C22.6182 20.3887 22.5752 20.3699 22.5768 20.3253C22.5689 20.2853 22.5702 20.2422 22.5518 20.2053C22.5439 20.1606 22.4931 20.171 22.4901 20.212C22.451 20.2405 22.4562 20.2865 22.4834 20.3203C22.5004 20.3592 22.4836 20.4045 22.4668 20.4403C22.4566 20.487 22.4051 20.4886 22.3684 20.5037C22.3504 20.5107 22.2816 20.4995 22.3068 20.5387C22.3469 20.5528 22.3949 20.5656 22.4368 20.5553C22.4807 20.5499 22.5188 20.5199 22.5401 20.482C22.5696 20.4521 22.6202 20.4678 22.6584 20.467C22.6997 20.4669 22.7418 20.4959 22.7818 20.477C22.7934 20.4469 22.8469 20.3972 22.8634 20.4487C22.8606 20.4947 22.9013 20.5194 22.9434 20.5137C22.9895 20.511 22.9725 20.5462 22.9718 20.5737C22.9748 20.6235 23.007 20.6497 23.0484 20.6703C23.0626 20.6741 23.0775 20.6729 23.0918 20.6703C23.1317 20.6578 23.1746 20.64 23.1868 20.5953C23.203 20.559 23.2033 20.518 23.2151 20.4803C23.2246 20.4201 23.2368 20.3598 23.2384 20.2987C23.2532 20.2433 23.2489 20.1848 23.2601 20.1287C23.2672 20.087 23.2724 20.0453 23.2768 20.0037C23.2719 19.9814 23.2623 19.9777 23.2501 19.982ZM22.8884 20.2037C22.8965 20.2046 22.901 20.2145 22.9018 20.232C22.9026 20.2514 22.9128 20.2672 22.9251 20.2703C22.9348 20.2728 22.934 20.2831 22.9235 20.2903C22.9173 20.2946 22.9063 20.2971 22.8868 20.297C22.8559 20.2968 22.8368 20.2888 22.8201 20.272L22.8101 20.262L22.8251 20.252C22.8356 20.2437 22.8456 20.2348 22.8551 20.2253C22.8703 20.2098 22.8804 20.2027 22.8884 20.2037ZM26.4101 19.7836C26.3799 19.785 26.3494 19.7899 26.3218 19.7969C26.2663 19.7935 26.2384 19.8517 26.2918 19.8803C26.3238 19.9621 26.3739 19.8634 26.4251 19.8703C26.5018 19.8852 26.5082 19.968 26.5201 20.0303C26.5244 20.092 26.5422 20.152 26.5601 20.2103C26.6114 20.2673 26.5217 20.3031 26.4834 20.2586C26.4508 20.2232 26.381 20.1797 26.3418 20.2286C26.2936 20.249 26.2916 20.3134 26.2518 20.3319C26.1873 20.3516 26.1792 20.2723 26.1451 20.2386C26.1138 20.1946 26.0539 20.1908 26.0051 20.1753C25.9822 20.1289 25.9941 20.0502 25.9468 20.0186C25.907 20.0348 25.8341 20.1094 25.8951 20.1436C25.9547 20.1948 25.8691 20.2183 25.8418 20.2536C25.8028 20.297 25.7965 20.3568 25.7901 20.4119C25.7229 20.449 25.7099 20.3699 25.7018 20.3203C25.6965 20.261 25.6465 20.2784 25.6118 20.3003C25.561 20.3208 25.5356 20.3691 25.5001 20.4069C25.4958 20.4415 25.5021 20.4793 25.5018 20.5153C25.5133 20.5585 25.5659 20.5382 25.5984 20.5353C25.6506 20.5134 25.672 20.5687 25.6301 20.6003C25.6017 20.6363 25.5117 20.6175 25.5201 20.6753C25.5491 20.6787 25.5793 20.6776 25.6084 20.6753C25.6666 20.6594 25.729 20.6183 25.7351 20.5536C25.7428 20.4972 25.824 20.5074 25.8684 20.4953C25.9239 20.4793 25.9908 20.4751 26.0034 20.5453C26.0413 20.585 26.1234 20.6297 26.1651 20.5753C26.2075 20.5494 26.2278 20.5039 26.2251 20.4553C26.2165 20.4134 26.2928 20.4119 26.3118 20.4353C26.3396 20.481 26.4265 20.4675 26.4684 20.4419C26.513 20.409 26.5227 20.351 26.5868 20.3503C26.6818 20.3218 26.7806 20.3054 26.8734 20.2703C26.9486 20.2539 26.8622 20.2064 26.8434 20.1786C26.7862 20.1503 26.7363 20.2662 26.6717 20.2086C26.6219 20.1704 26.6253 20.0978 26.6068 20.0419C26.5941 19.9695 26.5973 19.8861 26.5451 19.8286C26.5092 19.7905 26.4605 19.7813 26.4101 19.7836H26.4101ZM26.0468 20.2886C26.0535 20.2884 26.061 20.2918 26.0734 20.2986C26.0968 20.3115 26.1135 20.3329 26.1134 20.3503C26.1134 20.3616 26.1105 20.3624 26.0934 20.3703C26.0829 20.3751 26.071 20.3803 26.0668 20.3803C26.0571 20.3802 26.0335 20.3612 26.0334 20.3536C26.0334 20.3504 26.0303 20.3383 26.0268 20.3286C26.0205 20.3115 26.0215 20.3117 26.0301 20.3003C26.0356 20.2929 26.0401 20.2888 26.0468 20.2886ZM26.3951 20.3069C26.415 20.3056 26.4268 20.3118 26.4351 20.3269C26.4448 20.3445 26.4382 20.3579 26.4134 20.3686C26.4026 20.3733 26.3917 20.3771 26.3901 20.3769C26.3885 20.3768 26.3795 20.3715 26.3701 20.3653C26.3557 20.3558 26.3536 20.3512 26.3534 20.3403C26.3533 20.3234 26.3721 20.3084 26.3951 20.3069H26.3951ZM25.9184 20.3119C25.9242 20.311 25.9295 20.3141 25.9368 20.3203C25.9464 20.3285 25.9494 20.3351 25.9518 20.3519C25.9534 20.3636 25.9532 20.3787 25.9518 20.3853C25.9492 20.3973 25.9489 20.3968 25.9218 20.3969C25.8876 20.3973 25.8845 20.3935 25.8851 20.3619C25.8855 20.3418 25.8857 20.3364 25.8968 20.3253C25.9053 20.3166 25.9126 20.3128 25.9184 20.3119ZM25.6251 20.3886C25.6357 20.3911 25.6458 20.3991 25.6484 20.4119C25.6519 20.4289 25.6489 20.4366 25.6351 20.4436C25.6233 20.4496 25.596 20.4516 25.5884 20.4469C25.586 20.4454 25.581 20.4414 25.5784 20.4369C25.5748 20.4305 25.5755 20.4273 25.5801 20.4236C25.5833 20.421 25.5868 20.4172 25.5868 20.4153C25.5867 20.4133 25.5904 20.4066 25.5951 20.4003C25.6029 20.3899 25.6145 20.3861 25.6251 20.3886ZM26.1184 20.4519C26.1279 20.4519 26.136 20.4552 26.1418 20.4603C26.1516 20.4689 26.1513 20.4816 26.1401 20.4903C26.1329 20.4958 26.0936 20.4953 26.0801 20.4903C26.0741 20.488 26.0718 20.485 26.0718 20.4786C26.0717 20.4711 26.0738 20.4664 26.0868 20.4603C26.0977 20.4551 26.1089 20.452 26.1184 20.4519H26.1184ZM25.2026 20.7089C25.1975 20.7056 25.19 20.7027 25.1976 20.6971C25.2068 20.681 25.2252 20.6754 25.2416 20.6694C25.2708 20.6567 25.296 20.6352 25.3148 20.6097C25.3175 20.592 25.3374 20.5823 25.3373 20.5638C25.3375 20.5385 25.339 20.5125 25.3328 20.4877C25.326 20.465 25.3087 20.4476 25.2887 20.4358C25.2751 20.425 25.2528 20.4221 25.2477 20.403C25.2449 20.3848 25.2613 20.3708 25.267 20.3546C25.2789 20.332 25.2889 20.3085 25.3017 20.2865C25.3155 20.2712 25.3368 20.2857 25.344 20.3005C25.3541 20.3153 25.363 20.3312 25.368 20.3484C25.3841 20.3661 25.3984 20.3868 25.4042 20.4104C25.4121 20.4269 25.4247 20.4425 25.4239 20.4619C25.4239 20.4841 25.4365 20.5039 25.4357 20.5262C25.4364 20.5561 25.4364 20.5873 25.4254 20.6155C25.418 20.6312 25.403 20.6406 25.3931 20.6546C25.3761 20.6703 25.3573 20.6855 25.3355 20.6938C25.3201 20.6987 25.3111 20.7165 25.2918 20.7122C25.2644 20.7127 25.2365 20.7164 25.2093 20.712C25.211 20.7149 25.201 20.7071 25.2026 20.709V20.7089ZM24.8373 20.7329C24.8244 20.7196 24.8216 20.714 24.8214 20.7009C24.8213 20.6877 24.8238 20.6825 24.8365 20.6697C24.8598 20.6461 24.8713 20.6455 24.9116 20.6659C24.9502 20.6854 24.9632 20.6872 24.9667 20.6734C24.97 20.66 24.9922 20.6478 25.0133 20.6477C25.0266 20.6476 25.0342 20.6503 25.0449 20.6586C25.0583 20.669 25.0589 20.6707 25.0593 20.6948C25.0595 20.7195 25.0592 20.7205 25.0438 20.7341C25.029 20.7471 25.0266 20.7479 25.0083 20.7461C24.985 20.7437 24.971 20.7331 24.9672 20.7147C24.9644 20.7014 24.9597 20.6982 24.9562 20.7072C24.9551 20.7101 24.9494 20.7137 24.9435 20.7152C24.9326 20.718 24.9142 20.7295 24.9011 20.7419C24.8962 20.7465 24.8875 20.7487 24.8735 20.7489C24.8545 20.749 24.8519 20.7479 24.8373 20.7329H24.8373ZM23.7803 20.2583C23.7448 20.2586 23.7066 20.2885 23.7019 20.3233C23.71 20.3634 23.7433 20.4027 23.7219 20.4449C23.7367 20.499 23.6813 20.5195 23.6436 20.4883C23.6208 20.4365 23.6093 20.3797 23.5752 20.3333C23.5324 20.3211 23.5137 20.3896 23.4836 20.4133C23.4985 20.4535 23.542 20.4897 23.5469 20.5399C23.5573 20.5887 23.5276 20.6429 23.4852 20.6683C23.4487 20.7032 23.3985 20.6907 23.3536 20.6983C23.2989 20.7302 23.3937 20.7419 23.4186 20.7433C23.4744 20.7489 23.5325 20.7416 23.5736 20.6999C23.6146 20.6803 23.6114 20.6094 23.6602 20.6016C23.7449 20.5978 23.8289 20.6146 23.9136 20.6166C23.9589 20.6274 24.029 20.6112 24.0602 20.6449C24.0603 20.704 24.1104 20.7404 24.1586 20.7633C24.1852 20.7707 24.2132 20.7377 24.2402 20.7316C24.2917 20.7152 24.2761 20.6515 24.3069 20.6266C24.3949 20.6218 24.4838 20.6228 24.5719 20.6216C24.5887 20.622 24.5936 20.5981 24.6052 20.5883C24.6033 20.5542 24.6021 20.5204 24.5969 20.4866C24.5799 20.4436 24.5996 20.3882 24.5686 20.3516C24.5243 20.3395 24.4866 20.3801 24.4419 20.3833C24.3925 20.4053 24.3509 20.4509 24.3486 20.5066C24.3193 20.5544 24.2724 20.4981 24.2886 20.4583C24.2867 20.4409 24.2923 20.4207 24.2869 20.4049C24.2599 20.3725 24.2125 20.3831 24.1752 20.3783C24.1209 20.3804 24.0679 20.3687 24.0136 20.3699C23.966 20.3663 23.9164 20.3741 23.8702 20.3616C23.8152 20.36 23.8228 20.3062 23.8136 20.2683C23.8038 20.261 23.7921 20.2581 23.7803 20.2583ZM23.8869 20.4549C23.9052 20.4553 23.9225 20.4577 23.9402 20.4599C23.9632 20.4637 23.9877 20.452 24.0102 20.4599C24.0623 20.4688 24.1144 20.4667 24.1669 20.4716C24.1808 20.4714 24.1907 20.4814 24.2002 20.4899V20.5999C24.1986 20.6137 24.2043 20.6318 24.1919 20.6416C24.1879 20.6443 24.1835 20.6473 24.1786 20.6483C24.1641 20.6445 24.1489 20.635 24.1419 20.6216C24.1397 20.6025 24.1429 20.5841 24.1436 20.5649C24.1432 20.56 24.1457 20.5523 24.1436 20.5483C24.1322 20.5402 24.1194 20.535 24.1052 20.5349C24.0599 20.5334 24.0155 20.53 23.9702 20.5283C23.9325 20.5259 23.8938 20.5315 23.8569 20.5216C23.8426 20.5164 23.824 20.5182 23.8152 20.5033C23.8028 20.4887 23.8208 20.4714 23.8336 20.4649C23.8506 20.4572 23.8686 20.4546 23.8869 20.4549L23.8869 20.4549ZM24.4886 20.4683C24.497 20.4682 24.4997 20.4709 24.5036 20.4866L24.5102 20.5133C24.5122 20.5196 24.5091 20.5216 24.5002 20.5249C24.4739 20.5349 24.4477 20.5339 24.4386 20.5216C24.4344 20.516 24.4393 20.4984 24.4469 20.4916C24.4623 20.4778 24.4794 20.4683 24.4886 20.4683Z" fill="#C09300"/>
<path d="M24.9061 13.4983C24.9417 13.5004 24.858 13.308 24.858 13.308C24.9521 13.4042 25.3076 13.4272 25.3076 13.4272C25.0943 13.333 24.8811 12.6221 24.9061 12.0554C24.9292 11.4867 24.8246 11.2629 24.7409 11.1792C24.6343 11.0726 24.2914 10.9785 24.0655 10.9659C23.938 10.9597 23.9589 11.0621 23.9589 11.0621C23.7226 11.0015 23.4863 10.9785 23.3797 11.0496C23.2792 11.1165 23.2583 11.4511 23.3316 11.3925C23.5093 11.2503 23.664 11.38 23.7707 11.5347C23.8647 11.6707 23.8585 12.0554 23.7226 12.5049C23.5804 12.9775 23.1914 13.4501 23.1914 13.4501C23.4026 13.4501 23.6996 13.262 23.6996 13.262L23.6285 13.5568C23.8522 13.4501 24.03 13.2849 24.03 13.2849L24.2432 13.5087C24.3143 13.4146 24.4566 13.2849 24.4566 13.2849C24.4566 13.2849 24.6343 13.4732 24.9061 13.4983Z" fill="white" stroke="#C09300" stroke-width="0.1"/>
<path d="M24.0422 12.1372C24.0422 12.1372 23.923 13.0134 23.6992 13.2622M24.2304 12.1143C24.2304 12.1143 24.1844 13.0008 24.0297 13.2853M24.3973 12.15C24.3973 12.15 24.3973 13.1203 24.4559 13.2854M24.6085 12.198C24.6085 12.198 24.6567 13.0135 24.8574 13.3084" stroke="#C09300" stroke-width="0.1"/>
<path d="M23.8269 11.7127C23.8165 11.6353 23.7977 11.5746 23.7705 11.5349C23.6638 11.3802 23.5091 11.2505 23.3314 11.3927C23.3314 11.3927 23.392 11.2045 23.5217 11.1983C23.622 11.192 23.8499 11.2735 24.0507 11.6165C24.0507 11.6165 23.9022 11.583 23.8667 11.6144C23.7997 11.6729 23.8269 11.7127 23.8269 11.7127ZM23.3128 11.1607C23.3274 11.1126 23.3505 11.0687 23.3797 11.0498C23.4864 10.9788 23.7227 11.0017 23.9589 11.0624C23.9589 11.0624 23.938 10.9599 24.0656 10.9662C24.2914 10.9788 24.6343 11.0729 24.741 11.1795C24.766 11.2067 24.7954 11.2464 24.8204 11.307H24.8163C24.764 11.2338 24.6155 11.2381 24.58 11.2422C24.5235 11.2485 24.488 11.2464 24.4126 11.2652C24.3771 11.2736 24.3227 11.284 24.2934 11.307C24.2705 11.3258 24.2516 11.3949 24.2161 11.3949C24.1596 11.3949 24.1638 11.3802 24.1492 11.3635C24.1304 11.3405 24.1199 11.307 24.1011 11.3091C24.0426 11.3196 23.9484 11.2736 23.8293 11.1795C23.7101 11.0854 23.6641 11.0624 23.5093 11.0728C23.3567 11.0854 23.3086 11.1711 23.3086 11.1711L23.3128 11.1607Z" fill="#C09300" stroke="#C09300" stroke-width="0.1"/>
<path d="M24.1877 11.2987C24.2224 11.2987 24.2504 11.2706 24.2504 11.236C24.2504 11.2014 24.2224 11.1733 24.1877 11.1733C24.1531 11.1733 24.125 11.2014 24.125 11.236C24.125 11.2706 24.1531 11.2987 24.1877 11.2987Z" fill="white"/>
<path d="M24.2489 17.4524C25.9898 16.1134 25.8406 14.152 25.8406 14.152C25.7946 14.1612 25.751 14.1657 25.7051 14.1657C25.3399 14.1657 24.4689 13.9568 24.2657 13.6915C24.048 13.9316 23.158 14.1657 22.7951 14.1657C22.7492 14.1657 22.7032 14.1612 22.6596 14.152C22.6596 14.152 22.508 16.1134 24.2489 17.4524H24.2489Z" fill="white" stroke="#C09300" stroke-width="0.1"/>
<path d="M25.7009 14.2956L25.6557 14.297C25.3247 14.297 24.556 14.1272 24.2597 13.8726C23.9493 14.1078 23.1679 14.297 22.8423 14.297C22.827 14.297 22.8119 14.2951 22.797 14.2924C22.7962 14.3666 22.8001 14.4435 22.8047 14.5134C22.8219 14.7748 22.8678 15.0371 22.9373 15.2895C23.1564 16.0839 23.6049 16.759 24.2479 17.2711C24.8914 16.7586 25.3403 16.0828 25.5599 15.2878C25.6296 15.0355 25.6756 14.7732 25.693 14.5118C25.6971 14.4387 25.7011 14.3491 25.7009 14.2956Z" stroke="#C09300" stroke-width="0.1"/>
<mask id="mask0_365_11969" style="mask-type:luminance" maskUnits="userSpaceOnUse" x="22" y="13" width="4" height="5">
<path d="M25.6855 14.3064L25.6408 14.3078C25.3133 14.3078 24.5529 14.1398 24.2598 13.888C23.9526 14.1207 23.1796 14.3078 22.8574 14.3078C22.8423 14.3076 22.8273 14.3061 22.8125 14.3032L22.8201 14.5218C22.837 14.7804 22.8825 15.0399 22.9513 15.2896C23.1681 16.0755 23.6118 16.7434 24.2478 17.2501C24.8844 16.743 25.3287 16.0745 25.5459 15.288C25.6155 15.0371 25.6596 14.7799 25.6775 14.5202C25.6819 14.4489 25.6845 14.3776 25.6853 14.3062L25.6855 14.3064Z" fill="white"/>
</mask>
<g mask="url(#mask0_365_11969)">
<path d="M22.7891 13.8541H23.7629V17.2838H22.7891V13.8541Z" fill="#C09300"/>
<path fill-rule="evenodd" clip-rule="evenodd" d="M23.7617 13.8541H24.7355V17.2838H23.7617V13.8541Z" fill="white"/>
<path fill-rule="evenodd" clip-rule="evenodd" d="M24.7383 13.8541H25.7121V17.2838H24.7383V13.8541Z" fill="#C09300"/>
</g>
</g>
<defs>
<clipPath id="clip0_365_11969">
<rect x="0.25" width="48" height="32" rx="5" fill="white"/>
</clipPath>
</defs>
</svg>
