<svg width="18" height="20" viewBox="0 0 18 20" fill="none" xmlns="http://www.w3.org/2000/svg">
<path d="M9.00592 19.75C8.01792 19.75 7.12891 19.237 6.62791 18.377C6.41991 18.019 6.54091 17.56 6.89891 17.352C7.25591 17.143 7.71592 17.264 7.92392 17.623C8.38192 18.408 9.62892 18.41 10.0879 17.623C10.2969 17.265 10.7569 17.145 11.1139 17.353C11.4719 17.561 11.5929 18.021 11.3839 18.379C10.8819 19.237 9.99392 19.75 9.00592 19.75ZM17.6769 16.325C17.8019 16.065 17.7669 15.757 17.5869 15.532C17.5689 15.509 15.7519 13.206 15.7519 10.501V8C15.7519 7.586 15.4159 7.25 15.0019 7.25C14.5879 7.25 14.2519 7.586 14.2519 8V10.5C14.2519 12.436 14.9999 14.158 15.6169 15.25H2.38791C3.00491 14.158 3.75291 12.436 3.75291 10.5V7C3.75291 4.105 6.10791 1.75 9.00291 1.75C9.41691 1.75 9.75291 1.414 9.75291 1C9.75291 0.586 9.41691 0.25 9.00291 0.25C5.28091 0.25 2.25291 3.278 2.25291 7V10.5C2.25291 13.189 0.434913 15.509 0.416913 15.532C0.237913 15.757 0.202915 16.066 0.328915 16.325C0.453915 16.584 0.715918 16.75 1.00392 16.75H17.0039C17.2889 16.75 17.5519 16.585 17.6769 16.325ZM16.7509 3C16.7509 1.484 15.5179 0.25 14.0009 0.25C12.4839 0.25 11.2509 1.484 11.2509 3C11.2509 4.516 12.4839 5.75 14.0009 5.75C15.5179 5.75 16.7509 4.516 16.7509 3ZM15.2509 3C15.2509 3.689 14.6899 4.25 14.0009 4.25C13.3119 4.25 12.7509 3.689 12.7509 3C12.7509 2.311 13.3119 1.75 14.0009 1.75C14.6899 1.75 15.2509 2.311 15.2509 3Z" fill="black"/>
</svg>
