<svg width="13" height="14" viewBox="0 0 13 14" fill="none" xmlns="http://www.w3.org/2000/svg">
<path d="M12.6971 3.58797C12.6964 3.58663 12.6971 3.58531 12.6965 3.58398C12.6951 3.58064 12.6918 3.57864 12.6904 3.57531C12.4324 3.10664 12.0305 2.71997 11.5225 2.49397L7.52246 0.715977C6.87646 0.42931 6.13713 0.42931 5.49113 0.715977L1.49113 2.49397C0.982463 2.71997 0.581079 3.10664 0.323079 3.57531C0.321746 3.57864 0.318472 3.58064 0.317139 3.58398C0.316472 3.58531 0.317073 3.58663 0.316406 3.58797C0.121073 3.9473 0.0078125 4.35263 0.0078125 4.77797V9.22265C0.0078125 10.2093 0.590432 11.106 1.49243 11.5073L5.49243 13.2853C5.81377 13.428 6.15843 13.4986 6.50309 13.5C6.50509 13.5 6.50646 13.5006 6.50846 13.5006C6.51046 13.5006 6.51175 13.5 6.51375 13.5C6.85842 13.4993 7.20308 13.428 7.52441 13.2853L11.5244 11.5073C12.4264 11.1066 13.0091 10.21 13.0091 9.22265V4.77797C13.0058 4.35263 12.8924 3.94663 12.6971 3.58797ZM5.89648 1.62931C6.08982 1.54331 6.29844 1.49997 6.50578 1.49997C6.71311 1.49997 6.92174 1.54264 7.11507 1.62864L11.1151 3.40663C11.2284 3.4573 11.3278 3.52731 11.4231 3.60131L9.60107 4.41131L4.7618 2.13331L5.89648 1.62931ZM3.55444 2.66998L8.3938 4.94797L7.11914 5.51464C6.72847 5.68464 6.28109 5.68463 5.89575 5.51596L1.58846 3.60131C1.68379 3.52731 1.78315 3.45663 1.89648 3.40663L3.55444 2.66998ZM1.89648 10.5926C1.35515 10.352 1.00578 9.81398 1.00578 9.22198V4.7773C1.00578 4.6673 1.02974 4.56198 1.05241 4.45798L5.49243 6.43131C5.65843 6.50331 5.83044 6.55596 6.00578 6.59063V12.4053C5.96978 12.3926 5.93182 12.3853 5.89648 12.37L1.89648 10.5926ZM12.0058 9.22198C12.0058 9.81398 11.6564 10.352 11.1151 10.5926L7.11507 12.3706C7.07974 12.3866 7.04178 12.3933 7.00578 12.406V6.59063C7.18178 6.5553 7.35514 6.50263 7.52181 6.42997L9.0918 5.73197V6.92665C9.0918 7.20265 9.3158 7.42665 9.5918 7.42665C9.8678 7.42665 10.0918 7.20265 10.0918 6.92665V5.28798L11.9584 4.45863C11.9817 4.5633 12.0051 4.66797 12.0051 4.77797V9.22198H12.0058Z" fill="black"/>
</svg>
