<svg width="30" height="16" viewBox="0 0 30 16" fill="none" xmlns="http://www.w3.org/2000/svg">
<g clip-path="url(#clip0_396_19282)">
<path d="M3.75 0.651123V3.59066H26.25V12.4093H29.25V0.651123H3.75Z" fill="#FF906D"/>
<path d="M13.5 12.4093C11.8455 12.4093 10.5 11.091 10.5 9.46981C10.5 7.84864 11.8455 6.53027 13.5 6.53027C15.1545 6.53027 16.5 7.84864 16.5 9.46981C16.5 11.091 15.1545 12.4093 13.5 12.4093Z" fill="#FF906D"/>
<path d="M0.75 15.3487V3.59058H26.25V15.3487H0.75ZM13.5 6.53011C11.8455 6.53011 10.5 7.84848 10.5 9.46965C10.5 11.0908 11.8455 12.4092 13.5 12.4092C15.1545 12.4092 16.5 11.0908 16.5 9.46965C16.5 7.84848 15.1545 6.53011 13.5 6.53011Z" fill="#F4CEC2"/>
<path d="M13.5 5.79517C11.429 5.79517 9.75 7.44033 9.75 9.46958C9.75 11.4988 11.429 13.144 13.5 13.144C15.571 13.144 17.25 11.4988 17.25 9.46958C17.25 7.44033 15.571 5.79517 13.5 5.79517ZM13.5 11.6742C12.2595 11.6742 11.25 10.6851 11.25 9.46958C11.25 8.2541 12.2595 7.26493 13.5 7.26493C14.7405 7.26493 15.75 8.2541 15.75 9.46958C15.75 10.6851 14.7405 11.6742 13.5 11.6742Z" fill="black"/>
<path d="M21 10.9395C21.8284 10.9395 22.5 10.2815 22.5 9.46977C22.5 8.65804 21.8284 8 21 8C20.1716 8 19.5 8.65804 19.5 9.46977C19.5 10.2815 20.1716 10.9395 21 10.9395Z" fill="black"/>
<path d="M6 10.9395C6.82843 10.9395 7.5 10.2815 7.5 9.46977C7.5 8.65804 6.82843 8 6 8C5.17157 8 4.5 8.65804 4.5 9.46977C4.5 10.2815 5.17157 10.9395 6 10.9395Z" fill="black"/>
<path d="M3 -0.0837402V2.85579H0V16.0837H27V13.1442H30V-0.0837402H3ZM25.5 14.6139H1.5V4.32556H25.5V14.6139ZM28.5 11.6744H27V2.85579H4.5V1.38603H28.5V11.6744Z" fill="black"/>
</g>
<defs>
<clipPath id="clip0_396_19282">
<rect width="30" height="16" fill="white"/>
</clipPath>
</defs>
</svg>
