<svg width="20" height="20" viewBox="0 0 20 20" fill="none" xmlns="http://www.w3.org/2000/svg">
<path d="M2.00392 19.749C1.54692 19.749 1.10311 19.569 0.767108 19.233C0.293108 18.76 0.130107 18.073 0.340107 17.441L1.18093 14.94C1.27893 14.633 1.27005 14.325 1.15505 14.082C0.563048 12.809 0.252948 11.399 0.252948 9.99902C0.252948 4.62402 4.626 0.25 10.001 0.25C15.377 0.25 19.75 4.62302 19.75 9.99902C19.75 15.375 15.377 19.748 10.001 19.748C8.602 19.748 7.19204 19.437 5.92604 18.848C5.67804 18.729 5.36804 18.721 5.05104 18.822L2.56203 19.658C2.37703 19.719 2.18892 19.749 2.00392 19.749ZM10 1.75C5.45202 1.75 1.75197 5.45002 1.75197 9.99902C1.75197 11.182 2.01498 12.373 2.51198 13.443C2.78798 14.024 2.82395 14.723 2.60695 15.406L1.76296 17.917C1.72096 18.042 1.78492 18.131 1.82692 18.173C1.86892 18.215 1.959 18.279 2.084 18.237L4.58205 17.398C5.27605 17.177 5.97698 17.211 6.56398 17.492C7.62598 17.986 8.81702 18.249 10 18.249C14.549 18.249 18.249 14.549 18.249 10C18.249 5.451 14.549 1.75 10 1.75ZM11.0191 7C11.0191 6.448 10.5721 6 10.0191 6H10.0091C9.45705 6 9.01394 6.448 9.01394 7C9.01394 7.552 9.46706 8 10.0191 8C10.5711 8 11.0191 7.552 11.0191 7ZM10.749 13V10C10.749 9.586 10.413 9.25 9.99904 9.25C9.58504 9.25 9.24904 9.586 9.24904 10V13C9.24904 13.414 9.58504 13.75 9.99904 13.75C10.413 13.75 10.749 13.414 10.749 13Z" fill="black"/>
</svg>
