<svg width="63" height="63" viewBox="0 0 63 63" fill="none" xmlns="http://www.w3.org/2000/svg">
<path d="M31.5 0.25C14.25 0.25 0.25 14.25 0.25 31.5C0.25 48.75 14.25 62.75 31.5 62.75C48.75 62.75 62.75 48.75 62.75 31.5C62.75 14.25 48.75 0.25 31.5 0.25ZM44.0937 25.875L29.5 40.4375C29.0625 40.9062 28.4687 41.1251 27.8437 41.1251C27.25 41.1251 26.6562 40.9062 26.1875 40.4375L18.9063 33.1563C18 32.2501 18 30.7499 18.9063 29.8437C19.8125 28.9374 21.3125 28.9374 22.2187 29.8437L27.8437 35.4688L40.7813 22.5625C41.6875 21.625 43.1875 21.625 44.0937 22.5625C45 23.4688 45 24.9375 44.0937 25.875Z" fill="#14AB00"/>
</svg>
