<svg width="20" height="20" viewBox="0 0 20 20" fill="none" xmlns="http://www.w3.org/2000/svg">
<path d="M4.41699 6C4.41699 5.586 4.75299 5.25 5.16699 5.25H11.833C12.247 5.25 12.583 5.586 12.583 6C12.583 6.414 12.247 6.75 11.833 6.75H5.16699C4.75299 6.75 4.41699 6.414 4.41699 6ZM10.083 9.33301C10.083 8.91901 9.74701 8.58301 9.33301 8.58301H5.16699C4.75299 8.58301 4.41699 8.91901 4.41699 9.33301C4.41699 9.74701 4.75299 10.083 5.16699 10.083H9.33301C9.74701 10.083 10.083 9.74801 10.083 9.33301ZM19.6841 19.028C19.5261 19.463 19.1279 19.744 18.6689 19.744C18.5619 19.748 18.4499 19.75 18.3369 19.75C17.2669 19.75 15.9219 19.543 14.8999 18.71C14.1539 18.924 13.348 19.033 12.499 19.033C9.20102 19.033 6.58894 17.355 5.65894 14.734C4.50394 15.682 2.96009 15.9189 1.71509 15.9189C1.59309 15.9189 1.47391 15.917 1.35791 15.913C0.88991 15.902 0.479092 15.603 0.319092 15.15C0.159092 14.695 0.291982 14.201 0.656982 13.891C1.37698 13.31 1.68201 12.674 1.81201 12.22C0.790012 10.973 0.25 9.40795 0.25 7.66895C0.25 3.29995 3.64302 0.25 8.49902 0.25C13.14 0.25 16.4359 3.03905 16.7209 7.09705C18.6449 8.25205 19.749 10.191 19.749 12.502C19.749 14.013 19.286 15.3749 18.405 16.4659C18.521 16.8409 18.7801 17.349 19.3501 17.811C19.7151 18.115 19.8431 18.59 19.6841 19.028ZM4.95996 13.343C5.16196 13.128 5.46993 13.05 5.75293 13.147C6.60393 13.44 7.52702 13.589 8.49902 13.589C12.474 13.589 15.249 11.155 15.249 7.67004C15.249 4.18504 12.474 1.75098 8.49902 1.75098C4.52502 1.75098 1.75 4.18504 1.75 7.67004C1.75 9.16904 2.24303 10.495 3.17603 11.504C3.33103 11.672 3.40197 11.902 3.36597 12.129C3.23697 12.951 2.86211 13.7329 2.28711 14.3979C3.18511 14.3289 4.27096 14.08 4.95996 13.343ZM16.8479 16.38C16.8129 16.153 16.8831 15.922 17.0381 15.754C17.8301 14.899 18.249 13.7751 18.249 12.5031C18.249 11.0171 17.6849 9.76805 16.6489 8.87805C16.0799 12.5891 12.893 15.09 8.49902 15.09C8.13702 15.09 7.78701 15.0539 7.43701 15.0179C8.36801 16.5719 10.222 17.535 12.499 17.535C13.347 17.535 14.1339 17.408 14.8379 17.158C15.1179 17.059 15.43 17.134 15.635 17.351C16.158 17.907 16.95 18.132 17.655 18.212C17.23 17.664 16.9509 17.036 16.8479 16.38ZM18.6399 18.245C18.6309 18.245 18.6239 18.245 18.6169 18.246C18.6239 18.245 18.6319 18.245 18.6399 18.245Z" fill="black"/>
</svg>
