<svg width="20" height="19" viewBox="0 0 20 19" fill="none" xmlns="http://www.w3.org/2000/svg">
<path d="M1.85791 18.75C1.71291 18.75 1.57208 18.7479 1.43408 18.7429C0.934082 18.7309 0.495951 18.411 0.324951 17.928C0.152951 17.442 0.295059 16.9131 0.685059 16.5811C1.61706 15.8291 1.98989 14.997 2.13989 14.426C0.902893 12.947 0.25 11.08 0.25 9.00098C0.25 3.84798 4.26 0.25 10 0.25C15.74 0.25 19.75 3.84898 19.75 9.00098C19.75 14.153 15.74 17.752 10 17.752C8.813 17.752 7.67496 17.591 6.60596 17.2729C5.24296 18.4599 3.36491 18.75 1.85791 18.75ZM1.479 17.2429C1.481 17.2429 1.48286 17.2429 1.48486 17.2429C1.48186 17.2439 1.48 17.2439 1.479 17.2429ZM10.001 1.75C5.14398 1.75 1.75098 4.73198 1.75098 9.00098C1.75098 10.837 2.35595 12.4629 3.50195 13.7029C3.65695 13.8709 3.72789 14.1009 3.69189 14.3279C3.52389 15.3989 2.99608 16.4119 2.18408 17.2429C3.34408 17.2009 4.90401 16.9339 5.86401 15.9099C6.06501 15.6939 6.37701 15.6171 6.65601 15.7141C7.69101 16.0721 8.81598 16.2529 10.001 16.2529C14.858 16.2529 18.251 13.271 18.251 9.00195C18.251 4.73295 14.858 1.75 10.001 1.75ZM10.7109 10.116C10.7139 10.108 10.7899 9.921 11.3469 9.552C12.3299 8.897 12.77 7.95801 12.585 6.90601C12.398 5.84601 11.5289 4.97699 10.4709 4.79199C9.69395 4.65399 8.90897 4.86499 8.31396 5.36499C7.71896 5.86499 7.37598 6.59798 7.37598 7.37598C7.37598 7.78998 7.71198 8.12598 8.12598 8.12598C8.53998 8.12598 8.87598 7.78998 8.87598 7.37598C8.87598 7.04298 9.02208 6.72904 9.27808 6.51404C9.53808 6.29604 9.87494 6.20902 10.2109 6.27002C10.6529 6.34702 11.0299 6.72502 11.1079 7.16602C11.1579 7.45202 11.1509 7.87998 10.5149 8.30298C10.0859 8.58798 9.49306 9.03499 9.28906 9.63599C9.15806 10.023 9.36695 10.4321 9.75195 10.5701C9.83295 10.5991 9.91507 10.613 9.99707 10.613C10.3061 10.612 10.5979 10.418 10.7109 10.116ZM11.021 12.5C11.021 11.948 10.574 11.5 10.021 11.5H10.011C9.45899 11.5 9.01587 11.948 9.01587 12.5C9.01587 13.052 9.469 13.5 10.021 13.5C10.573 13.5 11.021 13.052 11.021 12.5Z" fill="black"/>
</svg>
