<svg width="20" height="20" viewBox="0 0 20 20" fill="none" xmlns="http://www.w3.org/2000/svg">
<path d="M17.5 7.25H15.75V4C15.75 1.582 14.418 0.25 12 0.25H4C1.582 0.25 0.25 1.582 0.25 4V16C0.25 18.418 1.582 19.75 4 19.75H17C18.517 19.75 19.75 18.517 19.75 17V9.5C19.75 8.259 18.74 7.25 17.5 7.25ZM4 18.25C2.423 18.25 1.75 17.577 1.75 16V4C1.75 2.423 2.423 1.75 4 1.75H12C13.577 1.75 14.25 2.423 14.25 4V17C14.25 17.45 14.358 17.875 14.551 18.25H4ZM18.25 17C18.25 17.689 17.689 18.25 17 18.25C16.311 18.25 15.75 17.689 15.75 17V8.75H17.5C17.913 8.75 18.25 9.086 18.25 9.5V17ZM12.25 6C12.25 6.414 11.914 6.75 11.5 6.75H7C6.586 6.75 6.25 6.414 6.25 6C6.25 5.586 6.586 5.25 7 5.25H11.5C11.914 5.25 12.25 5.586 12.25 6ZM12.25 10C12.25 10.414 11.914 10.75 11.5 10.75H7C6.586 10.75 6.25 10.414 6.25 10C6.25 9.586 6.586 9.25 7 9.25H11.5C11.914 9.25 12.25 9.586 12.25 10ZM12.25 14C12.25 14.414 11.914 14.75 11.5 14.75H7C6.586 14.75 6.25 14.414 6.25 14C6.25 13.586 6.586 13.25 7 13.25H11.5C11.914 13.25 12.25 13.586 12.25 14ZM5.25 6C5.25 6.414 4.914 6.75 4.5 6.75C4.086 6.75 3.75 6.414 3.75 6C3.75 5.586 4.086 5.25 4.5 5.25C4.914 5.25 5.25 5.586 5.25 6ZM5.25 10C5.25 10.414 4.914 10.75 4.5 10.75C4.086 10.75 3.75 10.414 3.75 10C3.75 9.586 4.086 9.25 4.5 9.25C4.914 9.25 5.25 9.586 5.25 10ZM5.25 14C5.25 14.414 4.914 14.75 4.5 14.75C4.086 14.75 3.75 14.414 3.75 14C3.75 13.586 4.086 13.25 4.5 13.25C4.914 13.25 5.25 13.586 5.25 14Z" fill="black"/>
</svg>
