<svg width="49" height="32" viewBox="0 0 49 32" fill="none" xmlns="http://www.w3.org/2000/svg">
<g clip-path="url(#clip0_365_12078)">
<mask id="mask0_365_12078" style="mask-type:luminance" maskUnits="userSpaceOnUse" x="-7" y="0" width="63" height="32">
<path d="M-6.10547 0V32H55.6088V0H-6.10547Z" fill="white"/>
</mask>
<g mask="url(#mask0_365_12078)">
<path d="M-6.10547 0V32H55.6088V0H-6.10547Z" fill="#012169"/>
<path d="M-6.10547 0L55.6088 32L-6.10547 0ZM55.6088 0L-6.10547 32L55.6088 0Z" fill="black"/>
<path fill-rule="evenodd" clip-rule="evenodd" d="M17.849 16L-7.48828 2.86215L-4.72833 -2.86218L24.7488 12.4223L54.226 -2.86218L56.9859 2.86215L31.6487 16L56.9859 29.1378L54.226 34.8622L24.7488 19.5777L-4.72833 34.8622L-7.48828 29.1378L17.849 16Z" fill="white"/>
<mask id="mask1_365_12078" style="mask-type:luminance" maskUnits="userSpaceOnUse" x="-7" y="0" width="63" height="32">
<path d="M24.7517 16H55.6088V32L24.7517 16ZM24.7517 16V32H-6.10547L24.7517 16ZM24.7517 16H-6.10547V0L24.7517 16ZM24.7517 16V0H55.6088L24.7517 16Z" fill="white"/>
</mask>
<g mask="url(#mask1_365_12078)">
<path d="M-6.10547 0L55.6088 32L-6.10547 0ZM55.6088 0L-6.10547 32L55.6088 0Z" fill="black"/>
<path fill-rule="evenodd" clip-rule="evenodd" d="M20.1538 16L-7.02344 1.90814L-5.18347 -1.90808L24.7537 13.6149L54.6908 -1.90808L56.5308 1.90814L29.3536 16L56.5308 30.0919L54.6908 33.9081L24.7537 18.3852L-5.18347 33.9081L-7.02344 30.0919L20.1538 16Z" fill="#C8102E"/>
</g>
<path d="M24.7517 0V32V0ZM-6.10547 16H55.6088H-6.10547Z" fill="black"/>
<path fill-rule="evenodd" clip-rule="evenodd" d="M19.6088 10.6667V0H29.8945V10.6667H55.6088V21.3333H29.8945V32H19.6088V21.3333H-6.10547V10.6667H19.6088Z" fill="white"/>
<path d="M24.7517 0V32V0ZM-6.10547 16H55.6088H-6.10547Z" fill="black"/>
<path fill-rule="evenodd" clip-rule="evenodd" d="M21.666 12.8V0H27.8374V12.8H55.6088V19.2H27.8374V32H21.666V19.2H-6.10547V12.8H21.666Z" fill="#C8102E"/>
</g>
</g>
<defs>
<clipPath id="clip0_365_12078">
<rect x="0.75" width="48" height="32" rx="5" fill="white"/>
</clipPath>
</defs>
</svg>
