<svg width="16" height="18" viewBox="0 0 16 18" fill="none" xmlns="http://www.w3.org/2000/svg">
<path d="M14.75 5.25H12.5C10.92 5.25 10.25 4.58 10.25 3V0.75L14.75 5.25ZM15.5 6.75V15C15.5 17 14.5 18 12.5 18H3.5C1.5 18 0.5 17 0.5 15V3C0.5 1 1.5 0 3.5 0H8.75V3C8.75 5.42 10.08 6.75 12.5 6.75H15.5ZM5.25 13C5.25 12.586 4.914 12.25 4.5 12.25C4.086 12.25 3.75 12.586 3.75 13C3.75 13.414 4.086 13.75 4.5 13.75C4.914 13.75 5.25 13.414 5.25 13ZM5.25 9C5.25 8.586 4.914 8.25 4.5 8.25C4.086 8.25 3.75 8.586 3.75 9C3.75 9.414 4.086 9.75 4.5 9.75C4.914 9.75 5.25 9.414 5.25 9ZM12.25 13C12.25 12.586 11.914 12.25 11.5 12.25H7C6.586 12.25 6.25 12.586 6.25 13C6.25 13.414 6.586 13.75 7 13.75H11.5C11.914 13.75 12.25 13.414 12.25 13ZM12.25 9C12.25 8.586 11.914 8.25 11.5 8.25H7C6.586 8.25 6.25 8.586 6.25 9C6.25 9.414 6.586 9.75 7 9.75H11.5C11.914 9.75 12.25 9.414 12.25 9Z" fill="white"/>
</svg>
