<svg width="12" height="14" viewBox="0 0 12 14" fill="none" xmlns="http://www.w3.org/2000/svg">
<path d="M11.0714 4.23796L3.16536 1.31803V1C3.16536 0.724 2.94136 0.5 2.66536 0.5C2.38936 0.5 2.16536 0.724 2.16536 1V12.5H1.33203C1.05603 12.5 0.832031 12.724 0.832031 13C0.832031 13.276 1.05603 13.5 1.33203 13.5H3.9987C4.2747 13.5 4.4987 13.276 4.4987 13C4.4987 12.724 4.2747 12.5 3.9987 12.5H3.16536V9.34798L11.0714 6.42806C11.5334 6.25739 11.832 5.82735 11.832 5.33268C11.832 4.83802 11.5334 4.40929 11.0714 4.23796ZM10.7247 5.49007L3.16536 8.28206V2.38395L10.7247 5.17594C10.8134 5.20861 10.832 5.27935 10.832 5.33268C10.832 5.38602 10.8134 5.45807 10.7247 5.49007Z" fill="#919191"/>
</svg>
