<svg width="22" height="22" viewBox="0 0 22 22" fill="none" xmlns="http://www.w3.org/2000/svg">
<path d="M11 0.25C5.072 0.25 0.25 5.073 0.25 11C0.25 16.927 5.072 21.75 11 21.75C16.928 21.75 21.75 16.927 21.75 11C21.75 5.073 16.928 0.25 11 0.25ZM20.25 11C20.25 11.034 20.245 11.067 20.245 11.101C19.797 11.206 19.348 11.435 19 11.791C18.848 11.67 18.5 11.309 17.937 10.27C17.315 9.12299 17.562 8.58999 17.936 7.78299C18.063 7.50999 18.188 7.23499 18.28 6.95099C18.427 6.51599 18.403 5.93799 18.298 5.33499C19.516 6.90299 20.25 8.865 20.25 11ZM1.75 11C1.75 10.51 1.79899 10.033 1.87299 9.564C2.74599 12.072 4.705 13.066 5.797 13.617C5.981 13.71 6.19897 13.82 6.31897 13.895C6.36697 14.162 6.35902 14.35 6.34302 14.677C6.32802 15.004 6.30899 15.412 6.33899 16.047C6.39899 17.282 7.40302 17.807 8.13702 18.19C8.57702 18.42 8.99397 18.637 9.20697 18.952C9.31397 19.105 9.41299 19.585 9.37799 20.098C5.04999 19.329 1.75 15.547 1.75 11ZM10.868 20.243C10.931 19.428 10.781 18.583 10.444 18.102C10.025 17.483 9.39201 17.152 8.83301 16.861C8.08901 16.472 7.85399 16.299 7.83899 15.976C7.81199 15.408 7.83002 15.042 7.84302 14.749C7.86302 14.327 7.88 13.962 7.75 13.403C7.623 12.858 7.116 12.602 6.474 12.278C5.113 11.592 2.85503 10.444 2.93903 6.479C4.52603 3.66 7.54198 1.75 11.001 1.75C11.394 1.75 11.779 1.78299 12.16 1.83099C11.999 2.04199 11.769 2.21701 11.533 2.29401C9.46602 2.97101 9.44402 4.809 9.42902 6.026C9.41702 7.047 9.35103 7.23301 9.20203 7.26801C9.07703 7.25901 8.72499 7.06899 8.51599 6.95499C7.97899 6.66299 7.42502 6.36101 6.84802 6.50101C6.37202 6.61301 5.79297 7.05501 5.60797 7.68301C5.51597 7.99501 5.45099 8.61301 6.04999 9.23401C6.41199 9.60901 6.425 9.75601 6.453 10.049C6.474 10.273 6.50403 10.579 6.66803 10.955C7.29903 12.349 9.19199 12.134 9.91199 12.05C11.03 11.91 11.232 11.904 11.793 12.488C12.021 12.725 12.154 13.027 12.294 13.347C12.561 13.953 12.925 14.783 14.052 14.913C14.932 15.022 15.496 15.299 15.665 15.526C15.706 15.581 15.716 15.619 15.705 15.683C15.652 15.997 15.258 16.372 14.801 16.807C14.043 17.527 13.039 18.493 12.676 20.092C12.132 20.192 11.573 20.252 11 20.252C10.955 20.25 10.912 20.244 10.868 20.243ZM14.439 19.58C14.789 18.893 15.315 18.385 15.834 17.892C16.459 17.298 17.048 16.738 17.185 15.93C17.264 15.461 17.155 15.01 16.869 14.627C16.241 13.784 14.951 13.51 14.232 13.421C13.996 13.394 13.933 13.341 13.669 12.741C13.5 12.356 13.289 11.876 12.876 11.447C11.777 10.303 10.871 10.416 9.73499 10.559C8.36299 10.715 8.08998 10.453 8.03998 10.343C7.97598 10.197 7.96497 10.081 7.94897 9.90601C7.90097 9.39901 7.80198 8.88601 7.13098 8.19101C7.07498 8.13301 7.05201 8.093 7.04901 8.103C7.06501 8.06 7.15399 7.977 7.13599 7.966C7.25699 7.977 7.59699 8.162 7.79999 8.272C8.33299 8.562 8.88499 8.86 9.46399 8.741C10.902 8.445 10.918 7.057 10.93 6.043C10.947 4.665 11.053 4.02899 12.001 3.71899C12.691 3.49299 13.382 2.91301 13.693 2.15201C14.502 2.39901 15.26 2.757 15.958 3.203C16.449 3.957 17.047 5.91899 16.858 6.48099C16.782 6.71499 16.679 6.93401 16.577 7.15201C16.159 8.05301 15.639 9.17499 16.62 10.985C17.467 12.546 18.147 13.248 18.895 13.334C18.936 13.339 18.983 13.342 19.036 13.342C19.303 13.342 19.7 13.256 20.065 12.85C19.438 15.919 17.285 18.435 14.439 19.58Z" fill="black"/>
</svg>
