<svg width="52" height="52" viewBox="0 0 52 52" fill="none" xmlns="http://www.w3.org/2000/svg">
<path d="M51.1339 26.0006C51.1339 39.8672 39.8673 51.1339 26.0006 51.1339C12.1338 51.1339 0.867188 39.8672 0.867188 26.0006C0.867188 12.1339 12.1339 0.867188 26.0006 0.867188C39.8672 0.867188 51.1339 12.1339 51.1339 26.0006Z" fill="#CCCCCC"/>
<path d="M48.5355 26.0006C48.5355 39.8672 38.4821 51.1339 26.0021 51.1339C13.5221 51.1339 3.46875 39.8672 3.46875 26.0006C3.46875 12.1339 13.5221 0.867188 26.0021 0.867188C38.4821 0.867188 48.5355 12.1339 48.5355 26.0006Z" fill="#E2E3E5"/>
<path d="M3.46719 26.0006C3.46719 12.1339 13.5206 0.867188 26.0006 0.867188C12.1339 0.867188 0.867188 12.1339 0.867188 26.0006C0.867188 39.8672 12.1339 51.1339 26.0006 51.1339C13.5206 51.1339 3.46719 39.8672 3.46719 26.0006Z" fill="white"/>
<path d="M46.7113 40.2138C46.1913 34.6672 41.5113 30.3338 35.7913 30.3338H30.6779C29.9846 30.3338 29.4646 29.8138 29.4646 29.1205V28.6005C29.4646 28.0805 29.8112 27.6471 30.2446 27.4738C35.2712 25.5672 38.7379 17.3338 38.0446 11.5272C37.3513 5.98045 32.9313 1.56045 27.3846 0.95382C26.9512 0.867188 26.5179 0.867188 26.0846 0.867188C19.4112 0.867188 13.9512 6.32719 13.9512 13.0006C13.9512 18.2006 17.2446 25.8272 21.8378 27.4739C22.2712 27.6473 22.6178 28.0806 22.6178 28.6006V29.1206C22.6178 29.8139 22.0978 30.3339 21.4045 30.3339H16.2911C10.5711 30.3339 5.89109 34.6673 5.37109 40.2139C9.7913 46.8004 17.4179 51.1338 25.9979 51.1338C34.5779 51.1338 42.2046 46.8004 46.7113 40.2138Z" fill="#E0E0E0"/>
<path d="M35.7958 30.3331H32.0692L26.0024 37.2664L19.0691 30.333H16.2091C10.4891 30.333 5.80906 34.6664 5.28906 40.213C9.7958 46.7997 17.4224 51.1331 26.0024 51.1331C34.5824 51.1331 42.2091 46.7997 46.7158 40.2131C46.1958 34.6664 41.5158 30.3331 35.7958 30.3331Z" fill="#F0F0F0"/>
<path d="M12.9994 48.36C12.4794 48.36 12.1328 48.0134 12.1328 47.4934V41.6C12.1328 41.08 12.4794 40.7334 12.9994 40.7334C13.5194 40.7334 13.8661 41.08 13.8661 41.6V47.4934C13.8661 48.0134 13.5194 48.36 12.9994 48.36Z" fill="#B6B6B6"/>
<path d="M38.9994 48.36C38.4794 48.36 38.1328 48.0134 38.1328 47.4934V41.6C38.1328 41.08 38.4794 40.7334 38.9994 40.7334C39.5194 40.7334 39.8661 41.08 39.8661 41.6V47.4934C39.8661 48.0134 39.5194 48.36 38.9994 48.36Z" fill="#B6B6B6"/>
<path d="M25.9988 38.1335C25.7388 38.1335 25.5655 38.0469 25.3922 37.8735L18.4588 30.9402C18.1988 30.6802 18.1122 30.3335 18.2855 29.9868C18.4588 29.6402 18.7188 29.4668 19.0655 29.4668H21.3188C21.8388 29.4668 22.1855 29.8134 22.1855 30.3334C22.1855 30.8534 21.8388 31.2001 21.3188 31.2001H21.1455L25.9988 36.0535L30.8522 31.2002H30.6788C30.1588 31.2002 29.8122 30.8535 29.8122 30.3335C29.8122 29.8135 30.1588 29.4669 30.6788 29.4669H32.9322C33.2788 29.4669 33.6256 29.6403 33.7122 29.9869C33.8856 30.3335 33.7988 30.6803 33.5388 30.9403L26.6055 37.8736C26.4322 38.0468 26.2588 38.1335 25.9988 38.1335Z" fill="#B6B6B6"/>
<path d="M26 52C11.7 52 0 40.3 0 26C0 11.7 11.7 0 26 0C40.3 0 52 11.7 52 26C52 40.3 40.3 52 26 52ZM26 1.73337C12.6534 1.73337 1.73337 12.6534 1.73337 26C1.73337 39.3466 12.6534 50.2666 26 50.2666C39.3466 50.2666 50.2666 39.3466 50.2666 26C50.2666 12.6534 39.3466 1.73337 26 1.73337Z" fill="#B6B6B6"/>
<path d="M25.9988 52C17.4188 52 9.35877 47.7534 4.5054 40.6466C4.41877 40.4733 4.33203 40.3 4.33203 40.04C4.93866 33.9734 10.052 29.38 16.1187 29.38H21.232C21.4054 29.38 21.5787 29.2066 21.5787 29.0334V28.6C21.5787 28.4266 21.492 28.34 21.4053 28.34C16.6388 26.52 12.9988 18.72 12.9988 13C12.9988 9.53337 14.3854 6.24 16.8121 3.81337C19.2389 1.38673 22.5321 0 25.9988 0C26.5188 0 26.9521 0 27.4721 0.0866328C33.3655 0.78 38.1321 5.54663 38.9121 11.44C39.6055 17.5066 36.1388 26.26 30.5921 28.34C30.5055 28.34 30.3321 28.5134 30.3321 28.6866V29.2066C30.3321 29.38 30.5055 29.5533 30.6788 29.5533H35.7921C41.8588 29.5533 46.9721 34.1466 47.5788 40.2133C47.5788 40.3866 47.5788 40.6466 47.4054 40.8199C42.6388 47.7534 34.5788 52 25.9988 52ZM6.15213 39.9534C10.7455 46.4534 18.1121 50.2667 25.9988 50.2667C33.8854 50.2667 41.2521 46.4534 45.8454 39.9534C45.152 34.9267 40.9054 31.2 35.792 31.2H30.6788C29.5521 31.2 28.5988 30.2466 28.5988 29.12V28.6C28.5988 27.7334 29.1188 26.9534 29.9854 26.6934C34.6654 24.96 37.872 16.9867 37.1788 11.6134C36.5721 6.5 32.4121 2.34 27.2988 1.82C26.8654 1.73337 26.5188 1.73337 26.0854 1.73337C23.052 1.73337 20.192 2.86 18.112 5.02673C15.9454 7.19337 14.732 9.96673 14.732 13.0001C14.732 18.0267 17.9387 25.1335 22.0987 26.6935C22.8787 26.9535 23.3987 27.7335 23.3987 28.6001V29.1201C23.3987 30.2467 22.4453 31.2001 21.3187 31.2001H16.2053C11.0921 31.2 6.8454 34.9266 6.15213 39.9534Z" fill="#B6B6B6"/>
<path d="M29.7264 6.674C32.933 7.54063 35.9664 9.534 37.9598 12.134C37.9598 11.9606 37.9598 11.7874 37.9598 11.5274C37.1798 6.06737 32.6731 1.64737 27.2131 1.04073C26.7798 0.954102 26.3465 0.954102 25.9131 0.954102C19.9331 0.954102 14.9065 5.28747 13.9531 11.0075C14.1265 11.2675 19.2398 8.92747 21.6665 9.96747C22.4465 10.3141 23.2265 10.4875 24.0931 10.4875C26.6064 10.4873 28.7731 8.84063 29.7264 6.674Z" fill="#F0F0F0"/>
<path d="M37.8734 13.0003C37.6134 13.0003 37.3534 12.9136 37.18 12.6536C35.5334 10.4003 33.02 8.66702 30.16 7.71365C28.9466 9.96702 26.6066 11.3536 24.0934 11.3536C23.14 11.3536 22.1867 11.1803 21.32 10.747C19.8466 10.0536 16.7266 11.0936 15.2534 11.527C14.1267 11.8736 13.6067 12.047 13.1734 11.4404C13 11.2669 13 11.0069 13 10.8336C14.1266 4.59365 19.5 0.0869141 25.8266 0.0869141C26.3466 0.0869141 26.8666 0.0869141 27.3 0.173547C33.1934 0.866914 37.96 5.63355 38.74 11.5269C38.74 11.7003 38.74 11.7869 38.74 11.9603V12.1336C38.74 12.4803 38.5666 12.9136 38.22 13.0003C38.1334 13.0003 37.96 13.0003 37.8734 13.0003ZM25.8266 1.82028C20.8 1.82028 16.4666 5.02691 15.08 9.79365C16.9866 9.18702 20.02 8.32028 22.0134 9.18702C22.7067 9.44702 23.4 9.62038 24.0934 9.62038C26.26 9.62038 28.08 8.32038 28.9467 6.32702C29.1201 5.89365 29.5534 5.72038 29.9867 5.80702C32.4134 6.50038 34.6667 7.71365 36.4867 9.27365C35.1 5.28691 31.46 2.34028 27.1266 1.82028C26.6934 1.82028 26.26 1.82028 25.8266 1.82028Z" fill="#B6B6B6"/>
</svg>
