<svg width="19" height="18" viewBox="0 0 19 18" fill="none" xmlns="http://www.w3.org/2000/svg">
<path fill-rule="evenodd" clip-rule="evenodd" d="M15.5 18H12.3C12.134 18 12 17.866 12 17.7V13.5C12 12.119 10.881 11 9.5 11C8.119 11 7 12.119 7 13.5V17.7C7 17.866 6.86595 18 6.69995 18H3.5C1.5 18 0.5 17 0.5 15V8.65102C0.5 6.65302 1.02305 6.34608 1.93005 5.58608L7.89404 0.584982C8.82304 -0.194018 10.1781 -0.194018 11.1071 0.584982L17.071 5.58608C17.977 6.34608 18.501 6.65302 18.501 8.65102V15C18.5 17 17.5 18 15.5 18Z" fill="white"/>
</svg>
