<svg width="13" height="14" viewBox="0 0 13 14" fill="none" xmlns="http://www.w3.org/2000/svg">
<path d="M8.50391 0.5C6.02257 0.5 4.00391 2.51867 4.00391 5C4.00391 5.34333 4.04264 5.68206 4.1193 6.01139L0.150553 9.97998C0.0565534 10.074 0.00390625 10.2013 0.00390625 10.3333V13C0.00390625 13.276 0.227906 13.5 0.503906 13.5H3.17057C3.44657 13.5 3.67057 13.276 3.67057 13V11.5H5.17057C5.30324 11.5 5.43059 11.4474 5.52393 11.3534L7.49251 9.3846C7.82118 9.46127 8.15991 9.5 8.50391 9.5C10.9852 9.5 13.0039 7.48133 13.0039 5C13.0039 2.51867 10.9852 0.5 8.50391 0.5ZM8.50391 8.5C8.15657 8.5 7.81521 8.4493 7.49121 8.34863C7.31321 8.2933 7.12058 8.34131 6.98991 8.47331L4.96322 10.5H3.17057C2.89457 10.5 2.67057 10.724 2.67057 11V12.5H1.00391V10.5407L5.0306 6.514C5.16127 6.38266 5.20994 6.19001 5.15527 6.01335C5.05527 5.68935 5.00391 5.34798 5.00391 5.00065C5.00391 3.07065 6.57391 1.50065 8.50391 1.50065C10.4339 1.50065 12.0039 3.07065 12.0039 5.00065C12.0039 6.93065 10.4339 8.5 8.50391 8.5ZM10.0173 4.33333C10.0173 4.79333 9.64392 5.16667 9.18392 5.16667C8.72459 5.16667 8.34717 4.79333 8.34717 4.33333C8.34717 3.87333 8.71725 3.5 9.17725 3.5H9.18392C9.64392 3.5 10.0173 3.87333 10.0173 4.33333Z" fill="black"/>
</svg>
