<svg width="19" height="21" viewBox="0 0 19 21" fill="none" xmlns="http://www.w3.org/2000/svg">
<path d="M2.75979 16.2151C2.75979 16.3821 2.88969 16.5159 3.05569 16.5149C4.84269 16.5009 14.1559 16.5009 15.9429 16.5149C16.1099 16.5159 16.2388 16.3821 16.2388 16.2151V12.7C16.2388 7.88995 13.3488 5 9.4988 5C5.6488 5 2.75881 7.88995 2.75881 12.7V16.2151H2.75979ZM9.49978 7.66992C9.90978 7.66992 10.2498 7.99992 10.2498 8.41992C10.2498 8.82992 9.90978 9.16992 9.49978 9.16992C8.15978 9.16992 7.06975 10.17 6.96975 11.5C6.93975 11.9 6.60975 12.1899 6.21975 12.1899H6.15969C5.74969 12.1599 5.43975 11.7999 5.46975 11.3899C5.63975 9.29989 7.39978 7.66992 9.49978 7.66992ZM17.4998 19.499V21H1.49978V19.5C1.49978 18.672 2.17178 18 2.99978 18H16.0008C16.8288 18 17.4998 18.671 17.4998 19.499ZM8.74978 2.5V1C8.74978 0.586 9.08578 0.25 9.49978 0.25C9.91378 0.25 10.2498 0.586 10.2498 1V2.5C10.2498 2.914 9.91378 3.25 9.49978 3.25C9.08578 3.25 8.74978 2.914 8.74978 2.5ZM18.0298 3.53003L16.5298 5.03003C16.3838 5.17603 16.1918 5.25 15.9998 5.25C15.8078 5.25 15.6158 5.17703 15.4698 5.03003C15.1768 4.73703 15.1768 4.26199 15.4698 3.96899L16.9697 2.46899C17.2627 2.17599 17.7378 2.17599 18.0308 2.46899C18.3238 2.76199 18.3228 3.23703 18.0298 3.53003ZM2.46975 5.03003L0.96975 3.53003C0.67675 3.23703 0.67675 2.76199 0.96975 2.46899C1.26275 2.17599 1.73779 2.17599 2.03079 2.46899L3.53079 3.96899C3.82379 4.26199 3.82379 4.73703 3.53079 5.03003C3.38479 5.17603 3.19276 5.25 3.00076 5.25C2.80876 5.25 2.61575 5.17703 2.46975 5.03003Z" fill="white"/>
</svg>
