<svg width="18" height="20" viewBox="0 0 18 20" fill="none" xmlns="http://www.w3.org/2000/svg">
<path d="M10.5849 8.41699C10.5849 9.61199 9.61288 10.584 8.41788 10.584C7.22288 10.584 6.25089 9.61199 6.25089 8.41699C6.25089 7.22199 7.22288 6.25 8.41788 6.25C9.61288 6.25 10.5849 7.22199 10.5849 8.41699ZM17.5019 9C17.5019 13.983 12.8729 17.041 9.80991 19.064L9.27991 19.416C9.19591 19.472 9.0989 19.5 9.0029 19.5C8.9069 19.5 8.80989 19.472 8.72589 19.416L8.19589 19.064C5.13289 17.041 0.503906 13.983 0.503906 9C0.503906 4.313 4.31691 0.5 9.00391 0.5C13.6909 0.5 17.5019 4.313 17.5019 9ZM13.0319 11.97L11.4829 10.4209C11.8609 9.8439 12.0859 9.15699 12.0859 8.41699C12.0859 6.39599 10.4409 4.75 8.41888 4.75C6.39788 4.75 4.75189 6.39499 4.75189 8.41699C4.75189 10.439 6.39688 12.084 8.41888 12.084C9.15888 12.084 9.84588 11.86 10.4229 11.481L11.9719 13.03C12.1179 13.176 12.3099 13.25 12.5019 13.25C12.6939 13.25 12.8859 13.177 13.0319 13.03C13.3249 12.737 13.3249 12.263 13.0319 11.97Z" fill="#F1592A"/>
</svg>
