<svg width="12" height="14" viewBox="0 0 12 14" fill="none" xmlns="http://www.w3.org/2000/svg">
<path d="M5.9987 0.666626C2.87403 0.666626 0.332031 3.20863 0.332031 6.33329C0.332031 9.65529 3.41803 11.6939 5.46003 13.0426L5.81336 13.2773C5.86936 13.3146 5.93403 13.3333 5.99803 13.3333C6.06203 13.3333 6.1267 13.3146 6.1827 13.2773L6.53603 13.0426C8.57803 11.6939 11.664 9.65529 11.664 6.33329C11.6654 3.20863 9.12336 0.666626 5.9987 0.666626ZM8.0187 5.79797L5.7967 8.01998C5.69937 8.11731 5.57137 8.16663 5.44337 8.16663C5.31537 8.16663 5.18736 8.11798 5.09003 8.01998L3.9787 6.90865C3.78337 6.71332 3.78337 6.39663 3.9787 6.20129C4.17403 6.00596 4.4907 6.00596 4.68604 6.20129L5.44337 6.95862L7.31203 5.08997C7.50737 4.89463 7.82404 4.89463 8.01937 5.08997C8.2147 5.2853 8.21403 5.60264 8.0187 5.79797Z" fill="white"/>
</svg>
