<svg width="13" height="14" viewBox="0 0 13 14" fill="none" xmlns="http://www.w3.org/2000/svg">
<path d="M6.5013 0.5C3.28464 0.5 0.667969 3.11667 0.667969 6.33333C0.667969 9.74533 3.7993 11.8133 5.8713 13.182L6.22397 13.416C6.30797 13.472 6.40463 13.5 6.5013 13.5C6.59797 13.5 6.69464 13.472 6.77864 13.416L7.13131 13.182C9.20331 11.8133 12.3346 9.74533 12.3346 6.33333C12.3346 3.11667 9.71797 0.5 6.5013 0.5ZM6.58064 12.3473L6.5013 12.4001L6.42197 12.3473C4.4153 11.022 1.66797 9.20733 1.66797 6.33333C1.66797 3.668 3.83597 1.5 6.5013 1.5C9.16663 1.5 11.3346 3.668 11.3346 6.33333C11.3346 9.20733 8.58664 11.0227 6.58064 12.3473ZM6.5013 4.16667C5.30663 4.16667 4.33464 5.13867 4.33464 6.33333C4.33464 7.528 5.30663 8.5 6.5013 8.5C7.69597 8.5 8.66797 7.528 8.66797 6.33333C8.66797 5.13867 7.69597 4.16667 6.5013 4.16667ZM6.5013 7.5C5.85797 7.5 5.33464 6.97667 5.33464 6.33333C5.33464 5.69 5.85797 5.16667 6.5013 5.16667C7.14464 5.16667 7.66797 5.69 7.66797 6.33333C7.66797 6.97667 7.14464 7.5 6.5013 7.5Z" fill="black"/>
</svg>
