<svg width="18" height="20" viewBox="0 0 18 20" fill="none" xmlns="http://www.w3.org/2000/svg">
<path d="M9 19.75C8.855 19.75 8.71 19.708 8.584 19.624L8.05499 19.2729C4.94699 17.2199 0.25 14.118 0.25 9C0.25 4.175 4.175 0.25 9 0.25C13.825 0.25 17.75 4.175 17.75 9C17.75 14.118 13.053 17.2199 9.94501 19.2729L9.416 19.624C9.29 19.708 9.145 19.75 9 19.75ZM9 1.75C5.002 1.75 1.75 5.002 1.75 9C1.75 13.311 5.872 16.034 8.881 18.021L9 18.1001L9.119 18.021C12.129 16.033 16.25 13.311 16.25 9C16.25 5.002 12.998 1.75 9 1.75ZM8.69701 11.53L12.03 8.19702C12.323 7.90402 12.323 7.42899 12.03 7.13599C11.737 6.84299 11.262 6.84299 10.969 7.13599L8.166 9.93896L7.03 8.80298C6.737 8.50998 6.26199 8.50998 5.96899 8.80298C5.67599 9.09598 5.67599 9.57101 5.96899 9.86401L7.636 11.531C7.782 11.677 7.974 11.751 8.166 11.751C8.358 11.751 8.55001 11.677 8.69701 11.53Z" fill="black"/>
</svg>
