<svg width="16" height="28" viewBox="0 0 16 28" fill="none" xmlns="http://www.w3.org/2000/svg">
<path d="M6.6263 26.1667C6.6263 29.2045 10.8945 22.2105 7.99979 22.2105C5.684 22.2105 9.3763 29.2045 9.3763 26.1667C9.3763 23.3287 6.6263 26.1667 6.6263 26.1667C6.6263 26.9183 7.24964 27.5417 8.0013 27.5417C8.75297 27.5417 9.3763 26.9183 9.3763 26.1667C8.57874 26.1667 6.6263 23.3287 6.6263 26.1667ZM9.3763 26.1667V15.0275C12.768 14.3821 15.3346 11.412 15.3346 7.83333C15.3346 3.7835 12.0511 0.5 8.0013 0.5C3.95147 0.5 0.667969 3.7835 0.667969 7.83333C0.667969 11.412 3.23464 14.384 6.6263 15.0275V26.1667C7.07914 26.1465 7.53564 27.5417 8.0013 27.5417C8.46697 27.5417 8.92347 26.1465 9.3763 26.1667Z" fill="#F1592A"/>
</svg>
