<svg width="24" height="14" viewBox="0 0 24 14" fill="none" xmlns="http://www.w3.org/2000/svg">
<path d="M17.8282 8.50842V8.29248H17.7719L17.7069 8.44067L17.6422 8.29248H17.5857V8.50842H17.6257V8.34575L17.6865 8.48611H17.7279L17.7888 8.34539V8.50842H17.8284H17.8282ZM17.4713 8.50842V8.32946H17.5433V8.29302H17.3594V8.32946H17.4314V8.50842H17.471H17.4713Z" fill="#F79410"/>
<path d="M14.9999 12H9V2H15L14.9999 12Z" fill="#FF5F00"/>
<path d="M9.40324 7C9.40324 4.92678 10.4187 3.07994 11.9999 1.88976C10.803 0.987527 9.32261 0.497854 7.79838 0.500007C4.04365 0.500007 1 3.41011 1 7C1 10.5899 4.04365 13.5 7.79838 13.5C9.32265 13.5022 10.8031 13.0125 12 12.1102C10.4189 10.9203 9.40324 9.07333 9.40324 7Z" fill="#EB001B"/>
<path d="M23 7C23 10.5899 19.9565 13.5 16.202 13.5C14.6776 13.5021 13.1971 13.0125 12 12.1102C13.5816 10.9201 14.597 9.07333 14.597 7C14.597 4.92667 13.5816 3.07994 12 1.88976C13.1971 0.987554 14.6775 0.497892 16.2019 0.500007C19.9564 0.500007 22.9999 3.41011 22.9999 7" fill="#F79E1B"/>
</svg>
