<svg width="14" height="18" viewBox="0 0 14 18" fill="none" xmlns="http://www.w3.org/2000/svg">
<path d="M6.3737 14.5933V16.5C6.3737 16.845 6.6537 17.125 6.9987 17.125C7.3437 17.125 7.6237 16.845 7.6237 16.5V14.5933C10.8929 14.2783 13.457 11.5167 13.457 8.16667C13.457 7.82167 13.177 7.54167 12.832 7.54167C12.487 7.54167 12.207 7.82167 12.207 8.16667C12.207 11.0383 9.87036 13.375 6.9987 13.375C4.12703 13.375 1.79036 11.0383 1.79036 8.16667C1.79036 7.82167 1.51036 7.54167 1.16536 7.54167C0.820364 7.54167 0.540364 7.82167 0.540364 8.16667C0.540364 11.5167 3.10453 14.2774 6.3737 14.5933ZM10.957 8.16667V4.83333C10.957 2.65083 9.1812 0.875 6.9987 0.875C4.8162 0.875 3.04036 2.65083 3.04036 4.83333V8.16667C3.04036 10.3492 4.8162 12.125 6.9987 12.125C9.1812 12.125 10.957 10.3492 10.957 8.16667ZM9.70703 8.16667C9.70703 9.66 8.49203 10.875 6.9987 10.875C5.50536 10.875 4.29036 9.66 4.29036 8.16667V4.83333C4.29036 3.34 5.50536 2.125 6.9987 2.125C8.49203 2.125 9.70703 3.34 9.70703 4.83333V8.16667Z" fill="black"/>
</svg>
