<svg width="12" height="11" viewBox="0 0 12 11" fill="none" xmlns="http://www.w3.org/2000/svg">
<path d="M12 3.99967V8.66634C12 9.77967 11.4467 10.333 10.3333 10.333H3.66667C2.77333 10.333 2.23999 9.97968 2.07332 9.25968C2.24666 9.31302 2.44667 9.33301 2.66667 9.33301H9.33333C10.4467 9.33301 11 8.77967 11 7.66634V2.99967C11 2.77967 10.98 2.57966 10.9267 2.40633C11.6467 2.573 12 3.10634 12 3.99967ZM10 1.99967V6.66634C10 7.77767 9.44467 8.33301 8.33333 8.33301H1.66667C0.555333 8.33301 0 7.77767 0 6.66634V1.99967C0 0.888341 0.555333 0.333008 1.66667 0.333008H8.33333C9.44467 0.333008 10 0.888341 10 1.99967ZM2.33333 4.33236C2.33333 3.96436 2.03467 3.66569 1.66667 3.66569C1.29867 3.66569 1 3.96436 1 4.33236C1 4.70036 1.29867 4.99902 1.66667 4.99902C2.03467 4.99902 2.33333 4.70102 2.33333 4.33236ZM6.66667 4.33301C6.66667 3.41234 5.92067 2.66634 5 2.66634C4.07933 2.66634 3.33333 3.41234 3.33333 4.33301C3.33333 5.25367 4.07933 5.99967 5 5.99967C5.92067 5.99967 6.66667 5.25367 6.66667 4.33301ZM9 4.33236C9 3.96436 8.70133 3.66569 8.33333 3.66569C7.96533 3.66569 7.66667 3.96436 7.66667 4.33236C7.66667 4.70036 7.96533 4.99902 8.33333 4.99902C8.70133 4.99902 9 4.70102 9 4.33236Z" fill="#F1592A"/>
</svg>
