<svg width="237" height="237" viewBox="0 0 237 237" fill="none" xmlns="http://www.w3.org/2000/svg">
<rect x="0.5" y="0.5" width="236" height="236" rx="118" fill="white" stroke="#EDEDED"/>
<g clip-path="url(#clip0_365_12154)">
<path d="M92.5469 66.5938H83.1094C81.8046 66.5938 80.75 65.5368 80.75 64.2344C80.75 62.932 81.8046 61.875 83.1094 61.875H92.5469C93.8516 61.875 94.9062 62.932 94.9062 64.2344C94.9062 65.5368 93.8516 66.5938 92.5469 66.5938Z" fill="#F1592A"/>
<path d="M87.8281 71.3125C86.5234 71.3125 85.4688 70.2555 85.4688 68.9531V59.5156C85.4688 58.2133 86.5234 57.1562 87.8281 57.1562C89.1329 57.1562 90.1875 58.2133 90.1875 59.5156V68.9531C90.1875 70.2555 89.1329 71.3125 87.8281 71.3125Z" fill="#F1592A"/>
<path d="M76.0312 113.781C69.5265 113.781 64.2344 108.489 64.2344 101.984C64.2344 95.4796 69.5265 90.1875 76.0312 90.1875C82.536 90.1875 87.8281 95.4796 87.8281 101.984C87.8281 108.489 82.536 113.781 76.0312 113.781ZM76.0312 94.9062C72.1288 94.9062 68.9531 98.082 68.9531 101.984C68.9531 105.887 72.1288 109.062 76.0312 109.062C79.9337 109.062 83.1094 105.887 83.1094 101.984C83.1094 98.082 79.9337 94.9062 76.0312 94.9062Z" fill="black"/>
<path d="M160.969 113.781C154.464 113.781 149.172 108.489 149.172 101.984C149.172 95.4796 154.464 90.1875 160.969 90.1875C167.474 90.1875 172.766 95.4796 172.766 101.984C172.766 108.489 167.474 113.781 160.969 113.781ZM160.969 94.9062C157.066 94.9062 153.891 98.082 153.891 101.984C153.891 105.887 157.066 109.062 160.969 109.062C164.871 109.062 168.047 105.887 168.047 101.984C168.047 98.082 164.871 94.9062 160.969 94.9062Z" fill="black"/>
<path d="M72.1501 149.172H61.0374C57.5975 149.172 54.7969 146.371 54.7969 142.931V135.016C54.7969 133.711 55.8515 132.656 57.1562 132.656C58.461 132.656 59.5156 133.711 59.5156 135.016V142.931C59.5156 143.771 60.1975 144.453 61.0374 144.453H72.1524C72.99 144.453 73.6719 143.771 73.6719 142.931V139.734C73.6719 138.43 74.7265 137.375 76.0312 137.375C77.336 137.375 78.3906 138.43 78.3906 139.734V142.931C78.3906 146.371 75.59 149.172 72.1501 149.172Z" fill="black"/>
<path d="M175.963 193.998H164.846C161.406 193.998 158.605 191.199 158.605 187.759V184.56C158.605 183.255 159.66 182.201 160.965 182.201C162.27 182.201 163.324 183.255 163.324 184.56V187.759C163.324 188.595 164.006 189.279 164.846 189.279H175.963C176.799 189.279 177.483 188.597 177.483 187.759V179.841C177.483 178.537 178.537 177.482 179.842 177.482C181.147 177.482 182.202 178.537 182.202 179.841V187.759C182.202 191.199 179.403 193.998 175.963 193.998Z" fill="black"/>
<path d="M165.959 130.297H71.0412C59.4802 130.297 50.0781 120.895 50.0781 109.336C50.0781 109.195 50.0899 109.055 50.1159 108.919L53.9168 87.7857C54.6506 83.7087 58.1897 80.75 62.3304 80.75H174.667C178.81 80.75 182.349 83.7087 183.081 87.7857L186.882 108.919C186.91 109.055 186.922 109.195 186.922 109.336C186.922 120.895 177.52 130.297 165.959 130.297ZM54.7992 109.539C54.9078 118.403 62.151 125.578 71.0412 125.578H165.959C174.849 125.578 182.092 118.403 182.201 109.539L178.438 88.6209C178.112 86.7947 176.526 85.4688 174.67 85.4688H62.3304C60.4735 85.4688 58.888 86.7947 58.5601 88.6185L54.7992 109.539Z" fill="black"/>
<path d="M170.41 73.6719C169.518 73.6719 168.667 73.1646 168.268 72.3034C168.098 71.9377 166.77 69.5477 156.818 54.1882C154.194 50.1371 149.744 47.7188 144.912 47.7188H92.1968C87.32 47.7188 82.8443 50.1772 80.2254 54.292L68.5866 72.5795C67.8882 73.679 66.4325 74.0045 65.3283 73.3038C64.2288 72.6054 63.9032 71.145 64.6039 70.0455L76.2427 51.758C79.7322 46.2748 85.6967 43 92.1968 43H144.915C151.353 43 157.283 46.2229 160.779 51.6212C171.687 68.4553 172.338 69.8591 172.55 70.3216C173.097 71.5036 172.583 72.9051 171.401 73.4548C171.078 73.6011 170.743 73.6719 170.41 73.6719Z" fill="black"/>
<path d="M191.641 73.6719H179.844C178.539 73.6719 177.484 72.6149 177.484 71.3125C177.484 70.0101 178.539 68.9531 179.844 68.9531H191.641C192.945 68.9531 194 70.0101 194 71.3125C194 72.6149 192.945 73.6719 191.641 73.6719Z" fill="black"/>
<path d="M57.1562 73.6719H45.3594C44.0546 73.6719 43 72.6149 43 71.3125C43 70.0101 44.0546 68.9531 45.3594 68.9531H57.1562C58.461 68.9531 59.5156 70.0101 59.5156 71.3125C59.5156 72.6149 58.461 73.6719 57.1562 73.6719Z" fill="black"/>
<path d="M139.734 104.344H97.2656C95.9609 104.344 94.9062 103.287 94.9062 101.984C94.9062 100.682 95.9609 99.625 97.2656 99.625H139.734C141.039 99.625 142.094 100.682 142.094 101.984C142.094 103.287 141.039 104.344 139.734 104.344Z" fill="black"/>
<path d="M118.5 112.597C114.404 112.597 110.305 112.191 106.24 111.377C104.964 111.122 104.133 109.879 104.39 108.6C104.648 107.321 105.889 106.498 107.167 106.75C114.689 108.256 122.315 108.256 129.834 106.75C131.129 106.491 132.356 107.326 132.611 108.6C132.866 109.879 132.038 111.12 130.761 111.377C126.694 112.189 122.595 112.597 118.5 112.597Z" fill="black"/>
<path d="M130.297 59.5156H106.703C105.398 59.5156 104.344 58.4586 104.344 57.1562C104.344 55.8539 105.398 54.7969 106.703 54.7969H130.297C131.602 54.7969 132.656 55.8539 132.656 57.1562C132.656 58.4586 131.602 59.5156 130.297 59.5156Z" fill="black"/>
<path d="M165.688 150.352C165.084 150.352 164.48 150.12 164.02 149.66C163.097 148.738 163.097 147.247 164.02 146.324L175.817 134.527C176.739 133.605 178.231 133.605 179.153 134.527C180.076 135.45 180.076 136.941 179.153 137.863L167.356 149.66C166.896 150.12 166.292 150.352 165.688 150.352Z" fill="#F1592A"/>
<path d="M177.485 150.352C176.881 150.352 176.277 150.12 175.817 149.66L164.02 137.863C163.097 136.941 163.097 135.45 164.02 134.527C164.943 133.605 166.434 133.605 167.356 134.527L179.153 146.324C180.076 147.247 180.076 148.738 179.153 149.66C178.693 150.12 178.089 150.352 177.485 150.352Z" fill="#F1592A"/>
<path d="M177.484 172.763C176.18 172.763 175.125 171.709 175.125 170.404V156.252C175.125 154.948 176.18 153.893 177.484 153.893C178.789 153.893 179.844 154.948 179.844 156.252V170.404C179.844 171.709 178.789 172.763 177.484 172.763Z" fill="#F1592A"/>
<path d="M165.688 170.409C164.383 170.409 163.328 169.354 163.328 168.049V156.248C163.328 154.943 164.383 153.888 165.688 153.888C166.992 153.888 168.047 154.943 168.047 156.248V168.049C168.047 169.354 166.992 170.409 165.688 170.409Z" fill="#F1592A"/>
<path d="M165.688 177.482C164.383 177.482 163.328 176.432 163.328 175.128V175.116C163.328 173.811 164.383 172.756 165.688 172.756C166.992 172.756 168.047 173.811 168.047 175.116C168.047 176.42 166.992 177.482 165.688 177.482Z" fill="#F1592A"/>
<path d="M127.938 172.766H109.062C107.758 172.766 106.703 171.711 106.703 170.406V146.812C106.703 145.508 107.758 144.453 109.062 144.453H127.938C129.242 144.453 130.297 145.508 130.297 146.812V170.406C130.297 171.711 129.242 172.766 127.938 172.766ZM111.422 168.047H125.578V149.172H111.422V168.047Z" fill="black"/>
<path d="M139.734 194H97.2656C95.9609 194 94.9062 192.945 94.9062 191.641V179.844C94.9062 178.539 95.9609 177.484 97.2656 177.484H139.734C141.039 177.484 142.094 178.539 142.094 179.844V191.641C142.094 192.945 141.039 194 139.734 194ZM99.625 189.281H137.375V182.203H99.625V189.281Z" fill="black"/>
<path d="M144.451 146.813C143.288 146.813 142.276 145.954 142.115 144.769L141.431 139.697H95.5695L94.8853 144.769C94.7107 146.06 93.5192 146.954 92.231 146.791C90.9404 146.617 90.0344 145.428 90.209 144.137L91.1693 137.019C91.3274 135.849 92.3254 134.976 93.5074 134.976H143.493C144.675 134.976 145.673 135.849 145.831 137.019L146.792 144.137C146.964 145.428 146.058 146.617 144.77 146.791C144.663 146.805 144.555 146.813 144.451 146.813Z" fill="#F1592A"/>
<path d="M109.063 163.328C108.459 163.328 107.855 163.097 107.395 162.637C106.472 161.714 106.472 160.223 107.395 159.301L121.551 145.145C122.474 144.222 123.965 144.222 124.887 145.145C125.81 146.067 125.81 147.558 124.887 148.481L110.731 162.637C110.271 163.097 109.667 163.328 109.063 163.328Z" fill="black"/>
<path d="M113.782 172.766C113.178 172.766 112.574 172.535 112.114 172.074C111.191 171.152 111.191 169.661 112.114 168.738L126.27 154.582C127.193 153.66 128.684 153.66 129.606 154.582C130.529 155.505 130.529 156.996 129.606 157.918L115.45 172.074C114.99 172.535 114.386 172.766 113.782 172.766Z" fill="black"/>
</g>
<defs>
<clipPath id="clip0_365_12154">
<rect width="151" height="151" fill="white" transform="translate(43 43)"/>
</clipPath>
</defs>
</svg>
