<svg width="16" height="15" viewBox="0 0 16 15" fill="none" xmlns="http://www.w3.org/2000/svg">
<path d="M12.6876 9.31203L14.8902 10.6254C15.3452 10.897 15.5801 11.4254 15.4759 11.9454C15.0501 14.0779 12.9085 15.4445 10.811 14.8687C5.86183 13.5104 1.99591 9.6562 0.632572 4.6962C0.0559051 2.59786 1.42099 0.454514 3.55432 0.0278475L3.56836 0.0253552C4.0892 -0.0788114 4.62016 0.157022 4.89099 0.614523L6.19348 2.8137C6.65682 3.59536 6.42669 4.60368 5.66919 5.10702L4.28512 6.02786C5.26179 8.36702 7.1284 10.2412 9.4609 11.2162L10.3901 9.8287C10.8976 9.07286 11.906 8.8462 12.6876 9.31203ZM12.7918 5.83369C12.7918 4.11036 11.3893 2.70869 9.66679 2.70869C9.32179 2.70869 9.04179 2.98869 9.04179 3.33369C9.04179 3.67869 9.32179 3.95869 9.66679 3.95869C10.7001 3.95869 11.5418 4.79952 11.5418 5.83369C11.5418 6.17869 11.8218 6.45869 12.1668 6.45869C12.5118 6.45869 12.7918 6.17869 12.7918 5.83369ZM14.6668 6.45869C14.3218 6.45869 14.0418 6.17869 14.0418 5.83369C14.0418 3.42119 12.0793 1.45869 9.66679 1.45869C9.32179 1.45869 9.04179 1.17869 9.04179 0.83369C9.04179 0.48869 9.32179 0.20869 9.66679 0.20869C12.7685 0.20869 15.2918 2.73202 15.2918 5.83369C15.2918 6.17869 15.0118 6.45869 14.6668 6.45869Z" fill="black"/>
</svg>
