<svg width="18" height="18" viewBox="0 0 18 18" fill="none" xmlns="http://www.w3.org/2000/svg">
<path d="M9.0013 0.666626C4.4013 0.666626 0.667969 4.39996 0.667969 8.99996C0.667969 13.6 4.4013 17.3333 9.0013 17.3333C13.6013 17.3333 17.3346 13.6 17.3346 8.99996C17.3346 4.39996 13.6013 0.666626 9.0013 0.666626ZM11.918 9.62496H9.6263V11.9166C9.6263 12.2583 9.34297 12.5416 9.0013 12.5416C8.65964 12.5416 8.3763 12.2583 8.3763 11.9166V9.62496H6.08464C5.74297 9.62496 5.45964 9.34163 5.45964 8.99996C5.45964 8.65829 5.74297 8.37496 6.08464 8.37496H8.3763V6.08329C8.3763 5.74163 8.65964 5.45829 9.0013 5.45829C9.34297 5.45829 9.6263 5.74163 9.6263 6.08329V8.37496H11.918C12.2596 8.37496 12.543 8.65829 12.543 8.99996C12.543 9.34163 12.2596 9.62496 11.918 9.62496Z" fill="#F1592A"/>
</svg>
