<svg width="26" height="22" viewBox="0 0 26 22" fill="none" xmlns="http://www.w3.org/2000/svg">
<path d="M24.7184 11.2138H22.1005L21.3683 6.45287C21.8401 6.76612 22.4057 6.94898 23.0135 6.94898C24.6588 6.94898 25.9972 5.60978 25.9972 3.96497C25.9972 2.32016 24.6588 0.981323 23.0135 0.981323C21.3683 0.981323 20.0299 2.3197 20.0299 3.96497C20.0299 4.31068 20.0921 4.64139 20.2008 4.95046L18.5701 3.55415C18.2385 3.27027 17.8161 3.1156 17.38 3.1156H11.5053C10.8003 3.1156 10.2266 3.68927 10.2266 4.39434C10.2266 5.0994 10.8002 5.67307 11.5053 5.67307H16.7824L12.3467 9.15664C11.5411 9.7896 11.079 10.7396 11.079 11.7643C11.079 12.8981 11.6485 13.9406 12.6028 14.5544L16.5582 17.0968L13.2238 18.4863C12.8889 18.6257 12.6254 18.901 12.501 19.2412C12.3765 19.5822 12.3999 19.9628 12.5662 20.2859C12.7963 20.7325 13.2524 20.9926 13.7268 20.9926C13.9028 20.9926 14.0814 20.9567 14.2514 20.8814L18.8479 18.8525C19.5657 18.5183 20.0298 17.7899 20.0298 16.9971C20.0298 16.4575 19.8111 15.9297 19.4296 15.5492L16.8173 12.9365L19.28 10.781L19.4701 12.3013C19.5745 13.1389 20.2893 13.7714 21.1328 13.7714H24.7182C25.4232 13.7714 25.997 13.1977 25.997 12.4926C25.9972 11.7875 25.4235 11.2138 24.7184 11.2138ZM23.0135 1.83333C24.1886 1.83333 25.1447 2.78935 25.1447 3.96452C25.1447 5.13968 24.1887 6.09571 23.0135 6.09571C21.8384 6.09571 20.8823 5.13968 20.8823 3.96452C20.8823 2.78935 21.8384 1.83333 23.0135 1.83333ZM24.7184 12.9187H21.133C20.7187 12.9187 20.3675 12.6071 20.3159 12.1958L19.9268 9.08354L15.5698 12.8949L18.8271 16.1522C19.05 16.3742 19.1774 16.682 19.1774 16.9973C19.1774 17.4598 18.9064 17.8852 18.4954 18.0769L13.9066 20.1019C13.6884 20.1995 13.4326 20.1083 13.3235 19.8965C13.2651 19.7827 13.2574 19.6548 13.301 19.5346C13.3449 19.4153 13.4335 19.3224 13.5512 19.2734L17.1737 17.7641C17.4111 17.6657 17.5727 17.4453 17.5953 17.1892C17.6178 16.9331 17.4977 16.6875 17.2815 16.549L13.0636 13.8372C12.3548 13.3807 11.9316 12.6058 11.9316 11.7632C11.9316 11.002 12.2751 10.2953 12.8735 9.8247L18.1135 5.70944L17.2227 4.82034H11.5053C11.2704 4.82034 11.079 4.62939 11.079 4.39406C11.079 4.15874 11.2704 3.96779 11.5053 3.96779H17.38C17.6127 3.96779 17.8382 4.04963 18.0151 4.20093L20.4851 6.3193L21.3691 12.0662H24.7183C24.9532 12.0662 25.1446 12.2571 25.1446 12.4925C25.1446 12.7278 24.9533 12.9187 24.7184 12.9187Z" fill="#333333"/>
<path d="M6.27377 19.9501C6.05981 20.1935 5.69964 20.2353 5.43668 20.0477C5.29265 19.9449 5.20053 19.7915 5.17798 19.6163C5.15543 19.4407 5.20526 19.2698 5.31865 19.1338L10.9841 12.3355L10.3294 11.7894L4.66351 18.5882C4.40054 18.9036 4.27988 19.3183 4.33235 19.7258C4.38481 20.1332 4.60686 20.5037 4.94139 20.7424C5.20226 20.9282 5.50269 21.0185 5.80148 21.0185C6.21412 21.0185 6.62284 20.8455 6.91482 20.5121L11.8292 14.9013L11.1877 14.3395L6.27377 19.9501Z" fill="#333333"/>
<path d="M12.7833 6.52527H3.40625V7.37773H12.7833V6.52527Z" fill="#333333"/>
<path d="M2.55648 6.52527H0.851562V7.37773H2.55648V6.52527Z" fill="#333333"/>
<path d="M10.6591 8.23022H4.26562V9.08268H10.6591V8.23022Z" fill="#333333"/>
<path d="M3.40804 8.23022H1.70312V9.08268H3.40804V8.23022Z" fill="#333333"/>
<path d="M10.2285 9.93506H4.6875V10.7875H10.2285V9.93506Z" fill="#333333"/>
<path d="M3.83342 9.93506H2.55469V10.7875H3.83342V9.93506Z" fill="#333333"/>
<path d="M9.80062 4.82031H2.55469V5.67277H9.80062V4.82031Z" fill="#333333"/>
<path d="M1.70492 4.82031H0V5.67277H1.70492V4.82031Z" fill="#333333"/>
<path d="M9.80241 5.67285H0.851562V6.52531H9.80241V5.67285Z" fill="#F9BA48"/>
<path d="M12.7851 7.37769H1.70312V8.23014H12.7851V7.37769Z" fill="#F9BA48"/>
<path d="M10.6531 9.08264H2.55469V9.9351H10.6531V9.08264Z" fill="#F9BA48"/>
<path d="M10.2259 10.7876H3.40625V11.6401H10.2259V10.7876Z" fill="#F9BA48"/>
</svg>
