<svg width="20" height="20" viewBox="0 0 20 20" fill="none" xmlns="http://www.w3.org/2000/svg">
<path d="M10.0018 6.24997C7.93375 6.24997 6.25175 7.93197 6.25175 9.99997C6.25175 12.068 7.93375 13.75 10.0018 13.75C12.0698 13.75 13.7518 12.068 13.7518 9.99997C13.7518 7.93197 12.0698 6.24997 10.0018 6.24997ZM10.0018 12.25C8.76075 12.25 7.75175 11.241 7.75175 9.99997C7.75175 8.75897 8.76075 7.74997 10.0018 7.74997C11.2428 7.74997 12.2518 8.75897 12.2518 9.99997C12.2518 11.241 11.2428 12.25 10.0018 12.25ZM19.2098 11.953C18.5158 11.551 18.0837 10.803 18.0827 9.99997C18.0817 9.19897 18.5108 8.45198 19.2138 8.04498C19.7288 7.74598 19.9048 7.08296 19.6068 6.56696L17.9348 3.68097C17.6368 3.16597 16.9737 2.98898 16.4577 3.28598C15.7587 3.68898 14.8898 3.68898 14.1888 3.28198C13.4978 2.88098 13.0678 2.13598 13.0678 1.33698C13.0678 0.737975 12.5798 0.250977 11.9808 0.250977H8.02574C7.42574 0.250977 6.93877 0.737975 6.93877 1.33698C6.93877 2.13598 6.50875 2.88097 5.81575 3.28397C5.11675 3.68897 4.24876 3.68996 3.54976 3.28696C3.03276 2.98896 2.37077 3.16698 2.07277 3.68198L0.398758 6.57098C0.100758 7.08598 0.277744 7.74796 0.797744 8.04996C1.49074 8.45096 1.92276 9.19796 1.92476 9.99896C1.92676 10.801 1.49675 11.55 0.794754 11.957C0.544754 12.102 0.364756 12.335 0.290756 12.615C0.216756 12.894 0.254765 13.185 0.399765 13.436L2.07075 16.32C2.36875 16.836 3.03176 17.015 3.54976 16.716C4.24876 16.313 5.11576 16.314 5.80476 16.713L5.80675 16.714C5.80975 16.716 5.81276 16.718 5.81676 16.72C6.50776 17.121 6.93674 17.866 6.93574 18.666C6.93574 19.265 7.42274 19.752 8.02174 19.752H11.9808C12.5798 19.752 13.0668 19.265 13.0668 18.667C13.0668 17.867 13.4967 17.122 14.1908 16.719C14.8888 16.314 15.7567 16.312 16.4567 16.716C16.9727 17.014 17.6348 16.837 17.9338 16.322L19.6077 13.433C19.9047 12.916 19.7278 12.253 19.2098 11.953ZM16.8327 15.227C15.7427 14.752 14.4777 14.817 13.4357 15.42C12.4027 16.019 11.7208 17.078 11.5888 18.25H8.41176C8.28176 17.078 7.59774 16.017 6.56474 15.419C5.52474 14.816 4.25776 14.752 3.17076 15.227L1.89476 13.024C2.84976 12.321 3.42674 11.193 3.42274 9.99298C3.41974 8.80098 2.84375 7.68097 1.89375 6.97797L3.17076 4.77396C4.25876 5.24796 5.52576 5.18396 6.56776 4.57996C7.59976 3.98196 8.28174 2.92198 8.41374 1.75098H11.5888C11.7198 2.92298 12.4028 3.98197 13.4378 4.58197C14.4768 5.18497 15.7437 5.24896 16.8327 4.77496L18.1098 6.97797C17.1568 7.67997 16.5807 8.80597 16.5827 10.004C16.5837 11.198 17.1598 12.32 18.1108 13.025L16.8327 15.227Z" fill="black"/>
</svg>
