<svg width="20" height="22" viewBox="0 0 20 22" fill="none" xmlns="http://www.w3.org/2000/svg">
<path d="M10 21.7499C9.92 21.7499 9.83994 21.7368 9.76294 21.7108C8.17394 21.1808 0.25 18.1218 0.25 9.88781V3.99987C0.25 3.64287 0.502027 3.33376 0.853027 3.26476C5.73303 2.28876 7.46305 1.43087 9.65405 0.343865C9.86605 0.238865 10.146 0.224949 10.356 0.329949C12.515 1.41895 14.2209 2.27876 19.1479 3.26476C19.4989 3.33476 19.751 3.64287 19.751 3.99987V9.88879C19.751 18.1228 11.827 21.1818 10.238 21.7118C10.16 21.7368 10.08 21.7499 10 21.7499ZM1.75 4.61193V9.88781C1.75 16.7528 8.168 19.5479 10 20.2049C11.832 19.5479 18.25 16.7518 18.25 9.88781V4.61193C13.827 3.68593 11.9679 2.81876 10.0149 1.83776C7.93789 2.86476 6.135 3.69593 1.75 4.61193ZM10.0061 11.0499C8.6831 11.0499 7.60693 9.97277 7.60693 8.64977C7.60693 7.32677 8.6831 6.24987 10.0061 6.24987C11.3291 6.24987 12.406 7.32677 12.406 8.64977C12.406 9.97277 11.3291 11.0499 10.0061 11.0499ZM10.0061 7.74987C9.5101 7.74987 9.10693 8.15377 9.10693 8.64977C9.10693 9.14577 9.5101 9.54992 10.0061 9.54992C10.5021 9.54992 10.906 9.14577 10.906 8.64977C10.906 8.15377 10.5021 7.74987 10.0061 7.74987ZM13 15.7499C12.586 15.7499 12.25 15.4139 12.25 14.9999V14.6969C12.25 13.9769 11.7531 13.2499 10.6421 13.2499H9.35889C8.24789 13.2499 7.75098 13.9769 7.75098 14.6969V14.9999C7.75098 15.4139 7.41498 15.7499 7.00098 15.7499C6.58698 15.7499 6.25098 15.4139 6.25098 14.9999V14.6969C6.25098 13.2329 7.31789 11.7499 9.35889 11.7499H10.6421C12.6831 11.7499 13.75 13.2319 13.75 14.6969V14.9999C13.75 15.4139 13.414 15.7499 13 15.7499Z" fill="black"/>
</svg>
