<svg width="20" height="21" viewBox="0 0 20 21" fill="none" xmlns="http://www.w3.org/2000/svg">
<path d="M8.27002 19C8.27002 19.69 7.71002 20.25 7.02002 20.25C6.33102 20.25 5.76501 19.69 5.76501 19C5.76501 18.31 6.32001 17.75 7.01001 17.75H7.02002C7.71002 17.75 8.27002 18.31 8.27002 19ZM15.02 17.75H15.01C14.32 17.75 13.765 18.31 13.765 19C13.765 19.69 14.33 20.25 15.02 20.25C15.71 20.25 16.27 19.69 16.27 19C16.27 18.31 15.71 17.75 15.02 17.75ZM19.705 6.49197L18.691 12.658C18.428 14.104 17.774 15.75 15 15.75H6.73401C5.37501 15.75 4.20396 14.735 4.01196 13.389L2.50195 2.82397C2.41395 2.21197 1.88301 1.75098 1.26501 1.75098H1C0.586 1.75098 0.25 1.41498 0.25 1.00098C0.25 0.586977 0.586 0.250977 1 0.250977H1.26599C2.62499 0.250977 3.79604 1.26597 3.98804 2.61197L4.07996 3.25098H17C17.818 3.25098 18.5881 3.61097 19.1121 4.23897C19.6351 4.86597 19.852 5.68797 19.705 6.49197ZM17.959 5.19897C17.721 4.91397 17.371 4.74997 16.999 4.74997H4.29297L5.49695 13.177C5.58495 13.789 6.11601 14.25 6.73401 14.25H15C16.597 14.25 16.986 13.654 17.213 12.403L18.2271 6.23596C18.2961 5.85796 18.197 5.48397 17.959 5.19897ZM12.446 7.63597L10.309 9.77197L9.50598 8.96896C9.21298 8.67596 8.73795 8.67596 8.44495 8.96896C8.15195 9.26196 8.15195 9.73697 8.44495 10.03L9.77795 11.363C9.91895 11.504 10.109 11.583 10.308 11.583C10.507 11.583 10.698 11.504 10.838 11.363L13.505 8.69597C13.798 8.40397 13.798 7.92796 13.505 7.63496C13.212 7.34196 12.739 7.34297 12.446 7.63597Z" fill="black"/>
</svg>
