<svg width="14" height="14" viewBox="0 0 14 14" fill="none" xmlns="http://www.w3.org/2000/svg">
<path d="M5.84668 13.0001C5.84668 13.4601 5.47335 13.8334 5.01335 13.8334C4.55401 13.8334 4.17668 13.4601 4.17668 13.0001C4.17668 12.5401 4.54667 12.1667 5.00667 12.1667H5.01335C5.47335 12.1667 5.84668 12.5401 5.84668 13.0001ZM10.3467 12.1667H10.34C9.88001 12.1667 9.51001 12.5401 9.51001 13.0001C9.51001 13.4601 9.88668 13.8334 10.3467 13.8334C10.8067 13.8334 11.18 13.4601 11.18 13.0001C11.18 12.5401 10.8067 12.1667 10.3467 12.1667ZM13.47 4.6614L12.794 8.77206C12.6187 9.73606 12.1827 10.8334 10.3333 10.8334H4.82267C3.91667 10.8334 3.13598 10.1567 3.00798 9.2594L2.0013 2.21606C1.94264 1.80806 1.58868 1.50073 1.17668 1.50073H1C0.724 1.50073 0.5 1.27673 0.5 1.00073C0.5 0.724732 0.724 0.500732 1 0.500732H1.17733C2.08333 0.500732 2.86402 1.17739 2.99202 2.07473L3.0533 2.50073H11.6667C12.212 2.50073 12.7254 2.74073 13.0747 3.15939C13.4234 3.57739 13.568 4.1254 13.47 4.6614ZM12.306 3.7994C12.1473 3.6094 11.914 3.50006 11.666 3.50006H3.19531L3.99797 9.11806C4.05663 9.52606 4.41067 9.83339 4.82267 9.83339H10.3333C11.398 9.83339 11.6573 9.43606 11.8087 8.60206L12.4847 4.49072C12.5307 4.23872 12.4647 3.9894 12.306 3.7994ZM9.33333 6.16673H8.5V5.33339C8.5 5.05739 8.276 4.83339 8 4.83339C7.724 4.83339 7.5 5.05739 7.5 5.33339V6.16673H6.66667C6.39067 6.16673 6.16667 6.39073 6.16667 6.66673C6.16667 6.94273 6.39067 7.16673 6.66667 7.16673H7.5V8.00006C7.5 8.27606 7.724 8.50006 8 8.50006C8.276 8.50006 8.5 8.27606 8.5 8.00006V7.16673H9.33333C9.60933 7.16673 9.83333 6.94273 9.83333 6.66673C9.83333 6.39073 9.60933 6.16673 9.33333 6.16673Z" fill="black"/>
</svg>
