<svg width="45" height="45" viewBox="0 0 45 45" fill="none" xmlns="http://www.w3.org/2000/svg">
<g clip-path="url(#clip0_674_6361)">
<path d="M20.9593 0.875018C20.9626 0.987015 20.9626 0.987015 20.966 1.10128C20.9877 1.87445 20.9877 1.87445 21.3889 2.50783C21.7386 2.72725 21.9871 2.79204 22.388 2.72267C22.752 2.62329 22.9557 2.46154 23.1936 2.16408C23.3153 1.92065 23.3093 1.6936 23.3279 1.42287C23.3351 1.32073 23.3423 1.21859 23.3497 1.11336C23.3549 1.03471 23.3601 0.956054 23.3655 0.875018C26.5122 0.665623 30.2739 1.83776 32.9046 3.53908C33.0221 3.6506 33.1376 3.76452 33.2483 3.88283C33.2245 3.93467 33.2007 3.98652 33.1761 4.03993C33.145 4.10862 33.1139 4.1773 33.0818 4.24806C33.0509 4.31586 33.02 4.38366 32.9882 4.45351C32.6959 5.16249 32.7592 5.87191 33.0435 6.57476C33.5391 7.53366 34.3193 7.86426 35.284 8.22267C36.1105 8.53992 36.4432 8.7979 36.8241 9.61278C36.9429 9.8966 37.0457 10.183 37.1477 10.4732C37.3962 11.1353 37.7727 11.6584 38.4046 11.9986C38.5178 12.0465 38.6325 12.0914 38.7483 12.1328C38.802 12.153 38.8558 12.1732 38.9111 12.1939C39.6719 12.4326 40.4319 12.2364 41.1546 11.961C43.0569 14.707 44.3155 18.2983 44.1624 21.6719C44.0504 21.6752 44.0504 21.6752 43.9361 21.6786C43.1609 21.6983 43.1609 21.6983 42.5296 22.1016C42.3477 22.4187 42.2698 22.6918 42.2771 23.0576C42.38 23.3732 42.4793 23.5704 42.7014 23.8203C43.1598 24.0531 43.6561 24.1181 44.1624 24.1641C44.1809 24.875 44.135 25.5516 44.0227 26.2534C44.0074 26.3502 43.992 26.447 43.9761 26.5466C43.3068 30.5689 41.5281 34.6212 38.6624 37.5703C38.6249 37.5361 38.5875 37.5019 38.5489 37.4666C38.0826 37.0518 37.6739 36.7394 37.0259 36.7667C36.6514 36.834 36.4173 37.0504 36.1809 37.334C36.0522 37.6486 36.0273 37.9262 36.0843 38.2578C36.2844 38.6877 36.546 39.02 36.8577 39.375C35.7357 40.4698 34.4431 41.3627 33.0764 42.125C33.0148 42.1597 32.9531 42.1943 32.8896 42.23C31.867 42.8 30.8226 43.2661 29.7249 43.6719C29.5669 43.7312 29.5669 43.7312 29.4056 43.7917C27.5128 44.4624 25.3852 44.9762 23.3655 44.875C23.3633 44.8004 23.3611 44.7257 23.3588 44.6488C23.3391 43.8736 23.3391 43.8736 22.9358 43.2422C22.593 43.0309 22.2866 42.9491 21.8885 43.0274C21.5527 43.1331 21.3555 43.3139 21.1311 43.586C21.0094 43.8294 21.0154 44.0564 20.9969 44.3272C20.9843 44.5098 20.9718 44.6924 20.9593 44.875C20.2114 44.8935 19.5005 44.8503 18.7625 44.73C18.6657 44.7145 18.5689 44.6991 18.4692 44.6831C16.3364 44.3294 14.3087 43.6723 12.3655 42.7266C12.3022 42.6958 12.2388 42.665 12.1736 42.6333C10.458 41.7879 8.87033 40.6731 7.46707 39.375C7.5013 39.3376 7.53553 39.3001 7.5708 39.2616C7.93107 38.8566 8.21311 38.5135 8.27273 37.9571C8.22879 37.5469 8.11934 37.2645 7.81082 36.9849C7.46506 36.7796 7.17494 36.7639 6.77957 36.7969C6.35141 36.9997 6.01717 37.2588 5.66238 37.5703C4.56746 36.4482 3.67494 35.1557 2.91238 33.7891C2.87586 33.7246 2.83935 33.6601 2.80173 33.5937C1.32135 30.96 0.121745 27.6992 0.157008 24.6314C0.157783 24.5426 0.158559 24.4539 0.159358 24.3625C0.160355 24.297 0.161352 24.2315 0.162379 24.1641C0.237044 24.1557 0.311709 24.1472 0.388636 24.1386C1.16051 24.0564 1.16051 24.0564 1.79519 23.6485C2.00677 23.306 2.08826 22.999 2.01004 22.6011C1.9043 22.2654 1.72346 22.0682 1.45144 21.8438C1.20801 21.7221 0.980963 21.7281 0.710231 21.7095C0.527613 21.697 0.344996 21.6844 0.162379 21.6719C0.143909 20.924 0.187109 20.2132 0.307399 19.4751C0.322873 19.3783 0.338347 19.2815 0.354291 19.1818C0.499304 18.3073 0.687706 17.4525 0.935817 16.6016C0.966828 16.4949 0.966828 16.4949 0.998465 16.3861C1.71459 13.9798 2.87094 11.7328 4.37332 9.72658C4.41652 9.66885 4.45972 9.61112 4.50424 9.55164C4.62965 9.38533 4.75621 9.22001 4.88357 9.05519C4.92106 9.00631 4.95855 8.95743 4.99718 8.90707C5.22178 8.62214 5.45667 8.39518 5.74832 8.17971C5.80116 8.22834 5.854 8.27697 5.90844 8.32707C6.01263 8.42162 6.01263 8.42162 6.11892 8.51808C6.22211 8.6123 6.22211 8.6123 6.32739 8.70842C6.62964 8.95534 6.90438 8.98335 7.28982 8.97698C7.58953 8.93668 7.75961 8.80654 7.98269 8.60939C8.23346 8.23324 8.29555 7.9404 8.2405 7.49221C8.03769 7.06405 7.77859 6.72981 7.46707 6.37502C8.80981 5.06481 10.3823 4.09198 12.0218 3.19533C12.0896 3.15812 12.1573 3.12091 12.2272 3.08258C14.1585 2.0446 16.3985 1.40194 18.553 1.04689C18.6169 1.03598 18.6809 1.02507 18.7467 1.01383C19.487 0.890188 20.2095 0.85226 20.9593 0.875018ZM14.4043 8.10128C14.2713 8.17165 14.1372 8.23978 14.003 8.3076C10.2055 10.2728 7.46638 13.9777 6.15075 17.9758C4.86627 22.0548 5.26928 26.6028 7.1871 30.4214C7.96149 31.893 8.94335 33.2307 10.0913 34.4309C10.1765 34.52 10.2612 34.6096 10.3456 34.6995C13.1794 37.7126 17.3329 39.4737 21.4465 39.6422C25.5715 39.7595 29.6563 38.454 32.8186 35.7656C32.892 35.7034 32.9653 35.6411 33.0409 35.577C33.258 35.3866 33.4686 35.191 33.678 34.9922C33.7227 34.9503 33.7674 34.9084 33.8135 34.8652C34.9573 33.7867 35.9088 32.5786 36.6858 31.211C36.742 31.1146 36.7981 31.0182 36.856 30.9189C38.0488 28.8198 38.829 26.2207 38.8547 23.7988C38.8556 23.7329 38.8564 23.667 38.8573 23.599C38.8725 22.0951 38.8434 20.6503 38.4905 19.1797C38.473 19.1043 38.4555 19.0288 38.4375 18.9511C37.403 14.6154 34.5286 10.8803 30.7669 8.55031C29.1265 7.55756 27.3123 6.83156 25.428 6.46096C25.3629 6.4481 25.2977 6.43525 25.2306 6.42201C21.5379 5.7321 17.7124 6.34224 14.4043 8.10128Z" fill="white"/>
<path d="M21.2159 8.68335C21.305 8.68361 21.305 8.68361 21.396 8.68388C21.4871 8.68375 21.4871 8.68375 21.58 8.68363C21.7086 8.68357 21.8372 8.68373 21.9658 8.68409C22.1632 8.68455 22.3607 8.68409 22.5582 8.68354C22.6828 8.6836 22.8075 8.68371 22.9321 8.68388C22.9916 8.6837 23.051 8.68353 23.1122 8.68335C23.5292 8.68541 23.5292 8.68541 23.625 8.78123C23.6339 8.98149 23.6373 9.17929 23.6372 9.37962C23.6375 9.44223 23.6378 9.50484 23.6381 9.56935C23.6387 9.70586 23.6392 9.84236 23.6395 9.97886C23.6401 10.1953 23.6415 10.4117 23.643 10.6281C23.6476 11.2437 23.6517 11.8593 23.653 12.4749C23.6539 12.8511 23.6564 13.2273 23.66 13.6035C23.6611 13.7466 23.6615 13.8897 23.6613 14.0329C23.6371 15.0745 23.6371 15.0745 24.0547 16C24.3054 16.2102 24.3054 16.2102 24.6025 16.3619C24.6546 16.391 24.7068 16.4201 24.7604 16.4502C24.9253 16.5418 25.0915 16.6308 25.2578 16.7197C25.3694 16.7812 25.4808 16.8428 25.5922 16.9047C25.8804 17.064 26.1699 17.2208 26.4609 17.375C26.5545 17.4254 26.5545 17.4254 26.6499 17.4769C26.9177 17.5979 27.1155 17.5802 27.4062 17.5469C28.0964 17.2501 28.7218 16.7638 29.3424 16.3452C29.6567 16.1333 29.9719 15.9226 30.2872 15.712C30.3807 15.6494 30.3807 15.6494 30.4761 15.5857C31.0198 15.2228 31.5663 14.8647 32.1167 14.5122C32.1929 14.4629 32.2692 14.4136 32.3477 14.3628C32.4174 14.3185 32.487 14.2742 32.5588 14.2285C32.6182 14.1906 32.6775 14.1527 32.7387 14.1136C32.9089 14.022 33.0612 13.9754 33.25 13.9375C33.7114 14.5066 34.1439 15.0775 34.5068 15.7153C34.5362 15.7668 34.5657 15.8184 34.596 15.8714C34.7969 16.2339 34.7969 16.2339 34.7969 16.4297C34.6365 16.5509 34.6365 16.5509 34.4085 16.6928C34.3234 16.7464 34.2383 16.8 34.1507 16.8552C34.0573 16.9133 33.9639 16.9714 33.8677 17.0312C33.6708 17.1554 33.4741 17.2796 33.2775 17.4042C33.2264 17.4365 33.1752 17.4689 33.1225 17.5022C32.5452 17.8684 31.9761 18.2466 31.4077 18.6264C31.3597 18.6585 31.3117 18.6905 31.2622 18.7234C31.0345 18.8752 30.8073 19.0277 30.5806 19.1811C30.4152 19.2927 30.2491 19.4032 30.082 19.5123C30.0063 19.5628 29.9305 19.6134 29.8524 19.6654C29.7864 19.7087 29.7204 19.752 29.6524 19.7966C29.345 20.0586 29.1506 20.2842 29.0934 20.6964C29.0794 20.9817 29.0774 21.265 29.0793 21.5507C29.079 21.6553 29.0787 21.76 29.0784 21.8678C29.0781 22.0888 29.0787 22.3097 29.0802 22.5307C29.082 22.8681 29.0802 23.2054 29.078 23.5428C29.0782 23.7579 29.0787 23.9729 29.0793 24.1879C29.0786 24.2884 29.078 24.389 29.0772 24.4926C29.0837 25.0607 29.1075 25.4339 29.4688 25.8828C29.6809 26.0657 29.907 26.2147 30.1442 26.3632C30.2107 26.4063 30.2772 26.4495 30.3457 26.494C30.5611 26.6335 30.7776 26.771 30.9941 26.9087C31.1422 27.0041 31.2902 27.0997 31.4381 27.1955C31.7323 27.3858 32.0269 27.5756 32.3217 27.7649C32.8753 28.1212 33.4229 28.4864 33.9697 28.853C34.1333 28.9623 34.2969 29.0717 34.4605 29.181C34.5726 29.256 34.6848 29.3311 34.7969 29.4062C34.4446 30.3168 33.8342 31.1231 33.25 31.8984C32.8368 31.7575 32.4994 31.5307 32.1382 31.2915C32.0323 31.2221 32.0323 31.2221 31.9242 31.1512C31.6497 30.9711 31.3756 30.7902 31.1016 30.6094C30.6033 30.2806 30.105 29.9521 29.6066 29.6236C29.3844 29.4771 29.1624 29.3303 28.9404 29.1835C28.8014 29.0918 28.6624 29.0001 28.5234 28.9084C28.4592 28.8658 28.395 28.8233 28.3289 28.7794C28.269 28.74 28.2091 28.7005 28.1475 28.6599C28.0694 28.6083 28.0694 28.6083 27.9897 28.5556C27.5687 28.2963 27.2151 28.1947 26.7188 28.289C26.3629 28.4391 26.0302 28.6216 25.6974 28.8162C25.5428 28.9065 25.387 28.9945 25.2308 29.0821C24.2741 29.5766 24.2741 29.5766 23.7109 30.4375C23.6934 30.6592 23.6842 30.872 23.6835 31.0937C23.6827 31.1583 23.6818 31.2229 23.6809 31.2895C23.6783 31.502 23.6768 31.7144 23.6754 31.9269C23.6737 32.0747 23.6721 32.2224 23.6703 32.3702C23.6659 32.7583 23.6625 33.1464 23.6593 33.5345C23.6559 33.9308 23.6515 34.3271 23.6472 34.7234C23.6388 35.5005 23.6316 36.2776 23.625 37.0547C23.3001 37.111 22.9935 37.1516 22.6636 37.152C22.5823 37.1521 22.501 37.1522 22.4172 37.1524C22.2919 37.1519 22.2919 37.1519 22.1641 37.1513C22.0388 37.1518 22.0388 37.1518 21.9109 37.1524C21.8296 37.1522 21.7483 37.1521 21.6646 37.152C21.5913 37.1519 21.5181 37.1518 21.4427 37.1517C21.1913 37.1392 20.951 37.0976 20.7031 37.0547C20.7026 36.9742 20.7021 36.8937 20.7016 36.8108C20.6967 36.0509 20.6904 35.291 20.6829 34.5311C20.679 34.1405 20.6757 33.7499 20.6734 33.3592C20.6711 32.982 20.6676 32.6048 20.6633 32.2276C20.6619 32.0839 20.6609 31.9402 20.6604 31.7966C20.6595 31.5948 20.6571 31.393 20.6543 31.1913C20.6545 31.1323 20.6546 31.0734 20.6547 31.0127C20.6465 30.5858 20.5499 30.2964 20.3594 29.9219C20.2057 29.7656 20.2057 29.7656 20.0183 29.6634C19.9156 29.6008 19.9156 29.6008 19.8109 29.5371C19.7366 29.4939 19.6624 29.4507 19.5859 29.4062C19.4693 29.3345 19.4693 29.3345 19.3503 29.2613C19.1013 29.1091 18.8499 28.9619 18.5977 28.8154C18.5134 28.7645 18.4291 28.7135 18.3422 28.661C17.7283 28.3054 17.7283 28.3054 17.0376 28.2334C16.5803 28.3596 16.1966 28.6312 15.8047 28.8906C15.6742 28.9753 15.6742 28.9753 15.5411 29.0617C15.2658 29.2424 14.9926 29.426 14.7197 29.6103C14.5689 29.7114 14.418 29.8123 14.2671 29.9132C13.8991 30.1593 13.5313 30.4059 13.1639 30.6529C12.9052 30.8266 12.646 30.9993 12.3863 31.1715C12.288 31.2369 12.1898 31.3027 12.0919 31.3689C11.9559 31.4606 11.8192 31.5511 11.6824 31.6416C11.6049 31.6934 11.5274 31.7452 11.4476 31.7986C11.3824 31.8315 11.3172 31.8645 11.25 31.8984C10.9682 31.8045 10.9367 31.7675 10.7784 31.5335C10.7391 31.4761 10.6999 31.4187 10.6594 31.3595C10.6186 31.2981 10.5777 31.2366 10.5356 31.1733C10.4938 31.1112 10.452 31.049 10.4088 30.9849C10.2872 30.8031 10.1668 30.6205 10.0469 30.4375C9.98761 30.3473 9.92834 30.2571 9.86728 30.1642C9.60414 29.7469 9.60414 29.7469 9.53125 29.5781C9.63696 29.261 9.72803 29.2246 10.0056 29.048C10.0903 28.9935 10.1751 28.939 10.2624 28.8828C10.3561 28.8234 10.4498 28.7639 10.5464 28.7026C10.6956 28.6065 10.8445 28.51 10.9935 28.4135C11.1583 28.3069 11.3233 28.2004 11.4883 28.094C12.098 27.7004 12.7066 27.3052 13.3128 26.9062C13.4518 26.815 13.5912 26.7243 13.7309 26.634C13.9287 26.5061 14.1254 26.3767 14.3219 26.247C14.3812 26.2092 14.4404 26.1714 14.5015 26.1324C14.8594 25.8934 15.071 25.7063 15.2031 25.2812C15.2386 24.9255 15.2392 24.5724 15.2374 24.2151C15.2376 24.1121 15.2379 24.0091 15.2381 23.9031C15.2383 23.6858 15.2378 23.4685 15.2367 23.2512C15.2354 22.9191 15.2367 22.5871 15.2384 22.255C15.2382 22.0436 15.2379 21.8322 15.2374 21.6208C15.2379 21.5217 15.2384 21.4226 15.2389 21.3205C15.237 20.641 15.237 20.641 14.9453 20.039C14.5907 19.7057 14.1608 19.4536 13.7543 19.1874C13.6801 19.1386 13.606 19.0898 13.5296 19.0396C13.2927 18.8838 13.0555 18.7283 12.8184 18.5727C12.6629 18.4705 12.5075 18.3683 12.3521 18.2661C11.4145 17.6497 10.4742 17.0377 9.53125 16.4297C9.65984 16.0218 9.8278 15.6841 10.063 15.3286C10.097 15.2764 10.131 15.2242 10.166 15.1704C10.4483 14.7422 10.7521 14.3337 11.0781 13.9375C11.3783 13.9933 11.5883 14.1136 11.8438 14.2782C11.9278 14.3321 12.0118 14.3859 12.0983 14.4414C12.1888 14.5002 12.2793 14.559 12.3726 14.6196C12.4665 14.6802 12.5604 14.7408 12.6572 14.8032C13.572 15.3943 14.4782 15.9986 15.3831 16.6049C15.4695 16.6628 15.5559 16.7206 15.6449 16.7802C15.8037 16.8869 15.9621 16.994 16.1202 17.1016C16.1889 17.1482 16.2576 17.1947 16.3284 17.2427C16.3875 17.2831 16.4466 17.3234 16.5075 17.365C16.83 17.5625 17.1556 17.6131 17.5234 17.5469C17.8497 17.4113 18.1519 17.2392 18.458 17.0635C18.539 17.0186 18.62 16.9737 18.7034 16.9275C19.163 16.6701 19.6039 16.3961 20.0351 16.0935C20.1875 16 20.1875 16 20.3594 16C20.5444 15.5436 20.6305 15.1766 20.6335 14.685C20.6342 14.6214 20.6349 14.5578 20.6356 14.4923C20.6371 14.3543 20.6384 14.2163 20.6396 14.0783C20.6414 13.8602 20.6437 13.6421 20.6462 13.424C20.6522 12.8826 20.6573 12.3412 20.6624 11.7997C20.6668 11.342 20.6715 10.8842 20.6766 10.4264C20.6789 10.211 20.6807 9.99557 20.6825 9.78014C20.6839 9.64891 20.6854 9.51767 20.6868 9.38644C20.6874 9.2959 20.6874 9.2959 20.6879 9.20354C20.6944 8.71003 20.7222 8.68579 21.2159 8.68335ZM18.8125 20.125C18.0034 21.1434 17.7429 22.2867 17.8672 23.5625C18.1081 24.7943 18.7385 25.7687 19.7558 26.4901C20.8476 27.1883 22.0451 27.368 23.3165 27.1131C23.5462 27.0334 23.7538 26.9416 23.9688 26.8281C24.0414 26.7917 24.1141 26.7552 24.189 26.7177C25.2373 26.1439 25.9283 25.2667 26.3213 24.1479C26.6524 22.9641 26.4775 21.8406 25.9292 20.7534C25.287 19.6973 24.3741 18.9992 23.1846 18.664C21.5047 18.3209 19.9697 18.875 18.8125 20.125Z" fill="white"/>
<path d="M39.4375 0.875C39.5793 0.875 39.7211 0.875 39.8672 0.875C39.8849 0.922566 39.9025 0.970131 39.9208 1.01914C40.3941 2.31479 40.3941 2.31479 41.1562 3.45312C41.223 3.53388 41.223 3.53388 41.2912 3.61627C42.0449 4.45002 43.1308 4.81389 44.1641 5.17188C44.1641 5.31367 44.1641 5.45547 44.1641 5.60156C44.1165 5.61924 44.0689 5.63691 44.0199 5.65513C42.7243 6.12848 42.7243 6.12848 41.5859 6.89062C41.5321 6.93516 41.4783 6.97969 41.4228 7.02557C40.589 7.77923 40.2252 8.86513 39.8672 9.89844C39.7254 9.89844 39.5836 9.89844 39.4375 9.89844C39.411 9.82709 39.411 9.82709 39.3839 9.7543C38.9106 8.45865 38.9106 8.45865 38.1484 7.32031C38.1039 7.26647 38.0594 7.21264 38.0135 7.15717C37.2598 6.32341 36.1739 5.95955 35.1406 5.60156C35.1406 5.45977 35.1406 5.31797 35.1406 5.17188C35.1882 5.1542 35.2358 5.13652 35.2848 5.11831C36.5804 4.64495 36.5804 4.64495 37.7188 3.88281C37.7995 3.81601 37.7995 3.81601 37.8819 3.74786C38.7156 2.99421 39.0795 1.9083 39.4375 0.875Z" fill="white"/>
<path d="M22.9584 21.2047C23.4125 21.463 23.7733 21.8739 23.9682 22.3595C24.0456 22.9897 24.0157 23.5609 23.6244 24.0782C23.227 24.4937 22.8352 24.7041 22.2622 24.7627C21.7218 24.7715 21.2952 24.5848 20.8744 24.2501C20.4003 23.7364 20.324 23.2883 20.3373 22.6065C20.3837 22.073 20.6472 21.7512 21.0463 21.4142C21.6389 21.0081 22.2904 20.9102 22.9584 21.2047Z" fill="white"/>
</g>
<defs>
<clipPath id="clip0_674_6361">
<rect width="44" height="44" fill="white" transform="translate(0.164062 0.875)"/>
</clipPath>
</defs>
</svg>
