<svg width="45" height="45" viewBox="0 0 45 45" fill="none" xmlns="http://www.w3.org/2000/svg">
<g clip-path="url(#clip0_676_8940)">
<path d="M4.48959 25.001C4.54399 25.0008 4.54399 25.0008 4.59949 25.0006C4.72034 25.0002 4.84118 25.0005 4.96203 25.0008C5.04895 25.0007 5.13586 25.0005 5.22278 25.0003C5.43394 24.9999 5.64511 25 5.85627 25.0002C6.02796 25.0005 6.19965 25.0005 6.37135 25.0004C6.39583 25.0004 6.42031 25.0004 6.44553 25.0003C6.49527 25.0003 6.54501 25.0003 6.59476 25.0002C7.06065 25 7.52654 25.0003 7.99243 25.0008C8.39176 25.0012 8.79109 25.0011 9.19042 25.0007C9.6547 25.0002 10.119 25 10.5833 25.0003C10.6328 25.0003 10.6824 25.0004 10.7319 25.0004C10.7685 25.0004 10.7685 25.0004 10.8058 25.0004C10.9772 25.0005 11.1486 25.0004 11.32 25.0002C11.529 24.9999 11.738 25 11.947 25.0005C12.0535 25.0007 12.16 25.0008 12.2666 25.0005C12.3823 25.0002 12.498 25.0006 12.6137 25.001C12.647 25.0008 12.6804 25.0006 12.7148 25.0004C12.9256 25.002 13.1048 25.0359 13.3031 25.1069C13.3031 25.1379 13.3031 25.1689 13.3031 25.2008C13.3299 25.2073 13.3567 25.2138 13.3843 25.2204C13.5204 25.2742 13.6098 25.3524 13.7149 25.4514C13.7328 25.4669 13.7506 25.4824 13.769 25.4984C13.8099 25.5453 13.8099 25.5453 13.8099 25.6392C13.8413 25.6392 13.8727 25.6392 13.905 25.6392C13.905 25.7012 13.905 25.7632 13.905 25.8271C13.9363 25.8271 13.9677 25.8271 14 25.8271C14 26.9225 14 28.0179 14 29.1464C13.9686 29.1464 13.9373 29.1464 13.905 29.1464C13.905 29.2084 13.905 29.2704 13.905 29.3343C13.8736 29.3447 13.8422 29.355 13.8099 29.3656C13.7995 29.3966 13.789 29.4276 13.7783 29.4596C13.7327 29.5124 13.7327 29.5124 13.6832 29.5535C13.6623 29.5535 13.6414 29.5535 13.6199 29.5535C13.6094 29.5845 13.599 29.6155 13.5882 29.6475C13.5673 29.6475 13.5464 29.6475 13.5249 29.6475C13.5249 29.6681 13.5249 29.6888 13.5249 29.7101C13.4705 29.7483 13.4705 29.7483 13.4001 29.7884C13.3014 29.8411 13.3014 29.8411 13.2398 29.9293C13.1666 29.9293 13.0934 29.9293 13.018 29.9293C13.018 29.95 13.018 29.9706 13.018 29.9919C11.8948 29.9933 10.7717 29.9945 9.64848 29.9951C9.51593 29.9952 9.38338 29.9953 9.25083 29.9954C9.21125 29.9954 9.21125 29.9954 9.17086 29.9954C8.74337 29.9957 8.31588 29.9962 7.88839 29.9967C7.44987 29.9973 7.01134 29.9977 6.57282 29.9978C6.30214 29.9979 6.03147 29.9982 5.7608 29.9987C5.57528 29.999 5.38977 29.9991 5.20425 29.999C5.09715 29.999 4.99007 29.9991 4.88297 29.9994C4.76692 29.9997 4.65088 29.9996 4.53483 29.9994C4.5009 29.9996 4.46698 29.9998 4.43202 30C4.40092 29.9999 4.36982 29.9998 4.33778 29.9996C4.31099 29.9996 4.2842 29.9997 4.25661 29.9997C4.1691 29.9908 4.10227 29.9639 4.02188 29.9293C3.98987 29.9209 3.95786 29.9125 3.92487 29.9038C3.44013 29.7698 3.44013 29.7698 3.29332 29.5848C3.29332 29.5435 3.29332 29.5022 3.29332 29.4596C3.27242 29.4596 3.25151 29.4596 3.22997 29.4596C3.22082 29.4344 3.21168 29.4092 3.20225 29.3832C3.17509 29.2988 3.17509 29.2988 3.10326 29.2717C3.10326 29.2097 3.10326 29.1477 3.10326 29.0838C3.08236 29.0838 3.06145 29.0838 3.03991 29.0838C2.98582 28.9769 3.00357 28.8544 3.00363 28.7367C3.00353 28.7072 3.00342 28.6778 3.00331 28.6474C3.00301 28.5496 3.00295 28.4517 3.00291 28.3539C3.00281 28.2861 3.00271 28.2183 3.00259 28.1506C3.0024 28.0083 3.00235 27.8661 3.00236 27.7239C3.00237 27.5413 3.00194 27.3588 3.00139 27.1763C3.00104 27.0362 3.00097 26.8962 3.00099 26.7562C3.00095 26.6889 3.00081 26.6216 3.00057 26.5542C3.00026 26.4602 3.00035 26.3662 3.00054 26.2722C3.00036 26.2442 3.00018 26.2163 3 26.1875C3.00013 26.1619 3.00027 26.1363 3.0004 26.1099C3.00039 26.0877 3.00037 26.0654 3.00035 26.0425C3.00823 25.9837 3.00823 25.9837 3.07159 25.8898C3.08406 25.817 3.09487 25.7439 3.10326 25.6706C3.13462 25.6602 3.16598 25.6499 3.19829 25.6392C3.21025 25.5979 3.22053 25.556 3.22997 25.514C3.29277 25.3867 3.35286 25.3233 3.48338 25.2635C3.5252 25.2635 3.56701 25.2635 3.61009 25.2635C3.61009 25.2428 3.61009 25.2221 3.61009 25.2008C3.89685 25.0442 4.16553 24.999 4.48959 25.001Z" fill="white"/>
<path d="M4.25049 31C4.28137 31.0001 4.31225 31.0002 4.34407 31.0003C4.37662 31.0003 4.40916 31.0003 4.44269 31.0002C4.55262 31.0002 4.66255 31.0003 4.77248 31.0005C4.85093 31.0005 4.92938 31.0005 5.00783 31.0005C5.22154 31.0005 5.43526 31.0007 5.64897 31.0009C5.84946 31.0011 6.04996 31.0011 6.25045 31.0012C6.64768 31.0012 7.0449 31.0015 7.44213 31.0018C7.82809 31.0021 8.21405 31.0023 8.60001 31.0024C8.63603 31.0025 8.63603 31.0025 8.67279 31.0025C8.88169 31.0025 9.09059 31.0026 9.29949 31.0027C10.1997 31.003 11.0998 31.0036 12 31.0042C12 33.1148 12 35.2253 12 37.3999C11.9669 37.4106 11.9338 37.4214 11.8996 37.4325C11.8792 37.4931 11.8792 37.4931 11.8662 37.563C11.8201 37.6737 11.7614 37.7492 11.6655 37.8241C11.5735 37.8322 11.5735 37.8322 11.4982 37.8241C11.4982 37.8564 11.4982 37.8887 11.4982 37.9219C11.4296 37.9294 11.361 37.9368 11.2924 37.9443C11.2302 37.9487 11.2302 37.9487 11.1971 37.9872C11.115 37.9906 11.0339 37.9919 10.9518 37.9918C10.9259 37.9919 10.8999 37.992 10.8731 37.9921C10.7854 37.9924 10.6976 37.9924 10.6099 37.9925C10.5473 37.9926 10.4846 37.9928 10.422 37.993C10.2513 37.9934 10.0807 37.9936 9.91001 37.9937C9.80345 37.9938 9.69688 37.994 9.59032 37.9941C9.25711 37.9946 8.9239 37.9949 8.59069 37.995C8.20571 37.9952 7.82073 37.9957 7.43574 37.9967C7.13844 37.9974 6.84114 37.9977 6.54384 37.9977C6.36616 37.9978 6.18849 37.998 6.01081 37.9986C5.84361 37.9991 5.67641 37.9992 5.50921 37.9989C5.44785 37.9989 5.38649 37.999 5.32513 37.9993C5.24132 37.9997 5.15754 37.9995 5.07373 37.9992C5.03735 37.9996 5.03735 37.9996 5.00023 38C4.84397 37.9985 4.74071 37.966 4.6065 37.8893C4.55889 37.8651 4.55889 37.8651 4.51032 37.8404C4.47513 37.8161 4.47513 37.8161 4.43923 37.7914C4.43923 37.7591 4.43923 37.7268 4.43923 37.6935C4.4068 37.6855 4.37437 37.6774 4.34096 37.6691C4.30715 37.6556 4.27334 37.6421 4.2385 37.6283C4.20923 37.5589 4.20923 37.5589 4.20505 37.4978C4.18297 37.4978 4.16089 37.4978 4.13814 37.4978C4.1271 37.4331 4.11606 37.3685 4.10468 37.302C4.07156 37.302 4.03844 37.302 4.00432 37.302C4.00354 36.4857 4.00295 35.6694 4.00259 34.8531C4.00241 34.4741 4.00218 34.0951 4.00179 33.7161C4.00146 33.3859 4.00125 33.0557 4.00117 32.7255C4.00113 32.5505 4.00102 32.3755 4.00078 32.2006C4.00056 32.0361 4.00048 31.8716 4.00053 31.7072C4.00053 31.6466 4.00046 31.5861 4.00033 31.5255C4.00017 31.4432 4.0002 31.3609 4.0003 31.2786C4.0002 31.2544 4.0001 31.2301 4 31.2051C4.00066 30.9872 4.0313 31.0005 4.25049 31Z" fill="white"/>
<path fill-rule="evenodd" clip-rule="evenodd" d="M38.195 2.25293L38.0811 2.25305C37.9743 2.25317 37.8794 2.27211 37.7815 2.29167C37.7277 2.30242 37.673 2.31335 37.6149 2.32144C37.5453 2.33111 37.4758 2.34156 37.4066 2.35351C37.3923 2.37013 37.384 2.37971 37.3737 2.38599C37.3597 2.39452 37.3421 2.39696 37.3004 2.40273L37.2105 2.41964L37.1204 2.4368L37.0508 2.4497V2.51383L36.8567 2.54589L36.8243 2.64209C36.7283 2.63393 36.6735 2.63622 36.5878 2.68217C36.5133 2.73022 36.4439 2.76441 36.3633 2.8004L36.2961 2.82934C36.2703 2.84712 36.2568 2.8564 36.2471 2.86871C36.2366 2.88214 36.2307 2.89917 36.2183 2.9348L36.2097 2.99479C36.1076 3.00563 36.0824 3.02427 36.0156 3.10502L35.9509 3.18718C35.9366 3.19407 35.9236 3.19983 35.9119 3.20507C35.8535 3.23102 35.824 3.24417 35.7972 3.31945L35.7891 3.37957H35.6921V3.47576H35.595V3.60402H35.5303C35.3191 3.85259 35.1817 4.13817 35.1199 4.45573L35.1098 4.53389H35.0451L35.0127 4.95072L34.9157 4.98279C34.913 5.11121 34.9107 5.23962 34.9093 5.36806L34.9076 5.52788C34.8969 6.02005 34.9487 6.44666 35.1421 6.90665H35.2068C35.2068 6.95914 35.2068 6.98299 35.2114 7.00593C35.2152 7.02503 35.2221 7.04351 35.2349 7.07737C35.26 7.13633 35.2837 7.19593 35.3061 7.25598L35.3403 7.34954L35.3749 7.44436L35.4009 7.51588H35.4656C35.4656 7.54152 35.4656 7.55906 35.4697 7.57558C35.4786 7.61131 35.5065 7.64231 35.595 7.74033H35.6597V7.80446C35.7307 7.93338 35.7997 8.00971 35.9205 8.09504C36.0057 8.15446 36.0476 8.18868 36.1045 8.27741L36.145 8.34955C36.1754 8.3616 36.1913 8.36792 36.2067 8.3754C36.2237 8.38366 36.2401 8.39333 36.2744 8.41368C36.4507 8.69088 36.4566 8.99074 36.4535 9.30741C36.4519 9.3929 36.4503 9.47833 36.4499 9.56383C36.4499 9.58176 36.4498 9.59969 36.4498 9.61761C36.4496 9.87133 36.4494 10.1235 36.3884 10.3717L36.3714 10.4337L36.3462 10.5458L36.3229 10.6402C36.3084 10.7 36.2925 10.7596 36.2744 10.8185C36.2343 10.8781 36.2191 10.9007 36.2089 10.9255C36.2027 10.9408 36.1984 10.9568 36.1915 10.9827C36.1891 10.9951 36.1868 11.0074 36.1846 11.0197C36.1691 11.1037 36.1541 11.1846 36.1157 11.2629C36.0921 11.3087 36.0692 11.3549 36.0472 11.4015L36.0125 11.4762L35.9347 11.6422L35.8951 11.7276L35.8569 11.8089C35.8394 11.8477 35.8313 11.8657 35.8222 11.8832C35.8142 11.8984 35.8055 11.9132 35.7891 11.9408L35.7244 11.9728L35.7042 12.055L35.6921 12.1332C35.6342 12.1332 35.6109 12.1332 35.5907 12.1412C35.5771 12.1467 35.5649 12.1558 35.5445 12.1712C35.4665 12.2686 35.4348 12.3558 35.4292 12.4798L35.4333 12.55H35.3362V12.6141H41.1916C41.1916 12.4791 41.1853 12.4508 41.0946 12.3576H40.9975V12.2614H40.9005V12.069L40.8358 12.037L40.8034 11.9408H40.7387L40.7064 11.7484H40.6417C40.6417 11.72 40.6417 11.7042 40.6392 11.6888C40.6361 11.6693 40.6292 11.6505 40.6134 11.6078L40.577 11.5199C40.5555 11.4678 40.534 11.4157 40.5123 11.3636H40.4476C40.4631 11.2051 40.4163 11.0579 40.3505 10.9147C40.3442 10.9085 40.3383 10.9028 40.3328 10.8974C40.2657 10.8321 40.2538 10.8206 40.2353 10.7063L40.2211 10.5941C40.1412 10.3432 40.1004 10.2153 40.0827 10.0842C40.0642 9.94793 40.0707 9.80826 40.0839 9.52328L40.0836 9.45377C40.0831 9.38619 40.0827 9.31862 40.0829 9.25104L40.0831 9.18711C40.0835 8.99183 40.1047 8.82039 40.207 8.65016C40.2298 8.61283 40.2414 8.59379 40.2499 8.57347C40.2588 8.55233 40.2644 8.5298 40.2757 8.48382L40.2858 8.41368H40.3505V8.28542H40.4152L40.4476 8.18923H40.5123C40.5467 8.15915 40.5639 8.14412 40.58 8.12808C40.5962 8.11206 40.6114 8.09502 40.6417 8.06097V7.99684H40.7064L40.7387 7.90065H40.8034C40.8752 7.83193 40.9366 7.75438 40.9975 7.6762C41.0297 7.62265 41.062 7.56919 41.0946 7.51588C41.2332 7.39254 41.2934 7.28709 41.3563 7.11657L41.3857 7.03491C41.4445 6.89525 41.4868 6.77377 41.501 6.62208C41.5025 6.58507 41.5032 6.56757 41.5052 6.55021C41.5069 6.53463 41.5098 6.51916 41.5151 6.48982C41.5528 6.45252 41.5685 6.43691 41.5773 6.41806C41.5836 6.4045 41.5863 6.38926 41.591 6.36306C41.5962 6.28709 41.6017 6.21257 41.6122 6.13711C41.6729 5.98255 41.6852 5.85238 41.6859 5.68835L41.685 5.59201C41.6848 5.56402 41.6848 5.53553 41.6847 5.50664C41.6839 5.16519 41.683 4.76767 41.5151 4.46976L41.4181 4.43769C41.4195 4.37358 41.4194 4.30942 41.4181 4.24531L41.3857 4.21324C41.3556 4.14806 41.3231 4.0839 41.2887 4.02086L41.1916 3.98879V3.86053H41.1269L41.0946 3.70021H40.9975V3.57195L40.9328 3.53989L40.9045 3.47576C40.8862 3.44352 40.8771 3.42749 40.8639 3.41646C40.8508 3.40555 40.8336 3.39954 40.7994 3.38758L40.7387 3.37957V3.31544L40.6417 3.28337C40.622 3.22924 40.6 3.17589 40.577 3.12305C40.4839 3.03285 40.4159 2.97198 40.2899 2.93668L40.2211 2.93067V2.83447L40.0594 2.80241V2.73828C39.982 2.66456 39.931 2.64229 39.8248 2.62004L39.7359 2.61002V2.54589C39.6847 2.52337 39.6335 2.50106 39.582 2.47951L39.5094 2.4497C39.3187 2.36972 39.1469 2.31481 38.9392 2.2994C38.8812 2.29681 38.8233 2.2937 38.7654 2.28938C38.7531 2.27727 38.7455 2.26974 38.7365 2.26482C38.7216 2.25672 38.7029 2.25575 38.6532 2.25316L38.5481 2.25305L38.4343 2.25293L38.3145 2.25331L38.195 2.25293ZM38.2632 6.86876C39.1096 6.86876 39.7958 6.18952 39.7958 5.35164C39.7958 4.51375 39.1096 3.83451 38.2632 3.83451C37.4167 3.83451 36.7306 4.51375 36.7306 5.35164C36.7306 6.18952 37.4167 6.86876 38.2632 6.86876Z" fill="white"/>
<path fill-rule="evenodd" clip-rule="evenodd" d="M34.545 13.6244C34.4351 13.6246 34.3252 13.6248 34.2152 13.6244C33.5505 13.6214 32.9808 13.628 32.3897 13.9609V14.025H32.2603V14.1212H32.1632V14.2495H32.0985C31.9797 14.3699 31.8989 14.5021 31.8478 14.6623C31.8356 14.7067 31.8224 14.7509 31.8074 14.7946C31.7782 14.8234 31.7622 14.8393 31.7519 14.8583C31.7394 14.8815 31.7354 14.9092 31.7265 14.9709L31.7103 15.0831C31.7035 15.0899 31.6972 15.0962 31.6913 15.1029C31.6133 15.1912 31.6133 15.3484 31.6133 17.5842H44.974C44.974 17.3545 44.9805 17.1239 44.9869 16.8931C45.0046 16.2645 45.0222 15.6346 44.9093 15.019C44.8379 14.9136 44.8019 14.8605 44.7754 14.8031C44.7486 14.7449 44.7315 14.6822 44.697 14.5561C44.6858 14.511 44.6808 14.4907 44.6742 14.4709C44.6688 14.4547 44.6623 14.4388 44.6505 14.4098L44.5535 14.3777V14.3136L44.4564 14.2815V14.2174C44.3812 14.1512 44.3084 14.0965 44.2198 14.0491L44.1653 14.025V13.9609C44.1342 13.9567 44.1182 13.9546 44.1025 13.9509C44.0858 13.9468 44.0695 13.941 44.0359 13.9288L44.0035 13.8326H43.8418V13.7364C43.766 13.7278 43.6905 13.7168 43.6153 13.7044C43.5403 13.6643 43.4907 13.6407 43.4051 13.6321L43.3123 13.632L43.2049 13.6314L43.087 13.6317C42.9543 13.6312 42.8216 13.6308 42.6889 13.6309C42.5664 13.6309 42.4439 13.6308 42.3213 13.6305C42.0812 13.6299 41.841 13.6296 41.6008 13.6295L41.0088 13.6292C40.4505 13.6287 39.8921 13.6283 39.3338 13.6283L39.2424 13.6283L39.1508 13.6284C38.6609 13.6284 38.1711 13.6279 37.6812 13.627C37.1763 13.6261 36.6714 13.6255 36.1665 13.6256C35.8834 13.6256 35.6004 13.6256 35.3173 13.6249C35.0743 13.6243 34.8314 13.624 34.5884 13.6243C34.574 13.6243 34.5595 13.6243 34.545 13.6244Z" fill="white"/>
<path d="M5.19381 19.0026C5.22826 19.0028 5.22826 19.0028 5.26341 19.0029C5.28763 19.0028 5.31185 19.0028 5.33681 19.0027C5.41861 19.0026 5.5004 19.0027 5.5822 19.0028C5.64058 19.0027 5.69897 19.0027 5.75736 19.0026C5.9164 19.0024 6.07544 19.0025 6.23448 19.0026C6.40053 19.0027 6.56658 19.0026 6.73262 19.0026C7.01153 19.0025 7.29043 19.0026 7.56934 19.0028C7.89229 19.003 8.21523 19.0029 8.53818 19.0027C8.81492 19.0025 9.09166 19.0025 9.3684 19.0026C9.53392 19.0027 9.69944 19.0027 9.86496 19.0026C10.0205 19.0024 10.1761 19.0025 10.3317 19.0027C10.3889 19.0028 10.4462 19.0028 10.5035 19.0027C10.5813 19.0026 10.6592 19.0027 10.737 19.0029C10.76 19.0028 10.7829 19.0027 10.8066 19.0026C10.9621 19.0033 10.9621 19.0033 10.9962 19.0431C10.9991 19.1072 10.9999 19.1714 10.9999 19.2355C10.9999 19.2981 10.9999 19.2981 11 19.3618C10.9999 19.4081 10.9998 19.4544 10.9997 19.5022C10.9997 19.5518 10.9997 19.6014 10.9997 19.6511C10.9997 19.7844 10.9995 19.9178 10.9993 20.0511C10.9991 20.1761 10.9991 20.3011 10.9991 20.4261C10.9989 20.792 10.9985 21.1579 10.9981 21.5238C10.9975 22.3409 10.9968 23.1581 10.9962 24C9.02893 24 7.06166 24 5.03478 24C4.9949 23.907 5.00036 23.8391 5.00032 23.7349C5.00024 23.6937 5.00015 23.6526 5.00006 23.6102C5.00013 23.5648 5.00019 23.5194 5.00025 23.4727C5.00021 23.4246 5.00016 23.3765 5.00009 23.3284C4.99995 23.1976 5 23.0669 5.0001 22.9361C5.00018 22.7994 5.00011 22.6628 5.00006 22.5262C5 22.2968 5.00008 22.0673 5.00022 21.8379C5.00039 21.5723 5.00033 21.3067 5.00017 21.0411C5.00003 20.8134 5.00001 20.5856 5.00009 20.3579C5.00013 20.2218 5.00014 20.0856 5.00004 19.9495C4.99995 19.8215 5.00001 19.6936 5.00019 19.5656C5.00025 19.496 5.00016 19.4264 5.00006 19.3568C5.00015 19.3157 5.00024 19.2747 5.00032 19.2324C5.00034 19.1965 5.00035 19.1606 5.00036 19.1236C5.00769 18.9702 5.07938 19.0032 5.19381 19.0026Z" fill="white"/>
<path d="M7.70291 2.00345C7.76912 2.00369 7.83533 2.00387 7.90154 2.004C8.07487 2.00448 8.24818 2.00572 8.42151 2.00713C8.59874 2.00843 8.77598 2.00901 8.95322 2.00965C9.3003 2.011 9.64737 2.01317 9.99443 2.01584C10.0124 2.04724 10.0124 2.04724 10.0307 2.07928C10.1 2.1016 10.1693 2.12384 10.2388 2.14557C10.6009 2.27299 10.7723 2.48532 10.9286 2.79189C11.0002 2.97009 11.0027 3.13566 10.9989 3.32296C10.999 3.36257 10.9991 3.40218 10.9992 3.44298C10.9992 3.5502 10.9983 3.65734 10.9969 3.76455C10.9957 3.87713 10.9957 3.98972 10.9955 4.10231C10.9951 4.29085 10.9939 4.47939 10.9921 4.66793C10.9895 4.93416 10.9885 5.20038 10.9877 5.46662C10.987 5.67348 10.986 5.88034 10.9849 6.0872C10.9847 6.1205 10.9847 6.1205 10.9845 6.15446C10.9837 6.30103 10.9826 6.4476 10.9812 6.59417C10.981 6.63137 10.9808 6.66858 10.9806 6.7069C10.9802 6.74051 10.9799 6.77412 10.9795 6.80875C10.9792 6.83812 10.979 6.8675 10.9787 6.89776C10.9737 6.96392 10.9737 6.96392 10.9374 6.99564C10.8741 6.99876 10.8107 6.99965 10.7474 6.99967C10.7062 6.99976 10.665 6.99985 10.6226 6.99994C10.577 6.99987 10.5314 6.99981 10.4844 6.99974C10.4367 6.9998 10.389 6.99986 10.3398 6.99991C10.2086 7.00006 10.0774 7 9.94624 6.9999C9.80922 6.99982 9.67221 6.99989 9.53519 6.99994C9.30506 7 9.07493 6.99993 8.84479 6.99977C8.57835 6.9996 8.31192 6.99966 8.04548 6.99983C7.81712 6.99998 7.58877 7 7.36041 6.99991C7.22385 6.99986 7.08729 6.99986 6.95072 6.99996C6.79856 7.00007 6.64641 6.99992 6.49425 6.99974C6.42585 6.99984 6.42585 6.99984 6.35608 6.99994C6.31488 6.99985 6.27369 6.99976 6.23125 6.99967C6.19522 6.99966 6.1592 6.99964 6.12208 6.99963C6.04125 6.99564 6.04125 6.99564 6.00499 6.96392C6.00142 6.90988 6.0004 6.85571 6.00038 6.80159C6.00028 6.7664 6.00018 6.73122 6.00007 6.69498C6.00014 6.65604 6.00022 6.61711 6.00029 6.57699C6.00023 6.53625 6.00017 6.49551 6.0001 6.45354C5.99993 6.34147 6 6.22941 6.00011 6.11735C6.00021 6.00029 6.00012 5.88323 6.00006 5.76617C6 5.56951 6.00009 5.37286 6.00026 5.1762C6.00045 4.94863 6.00039 4.72105 6.00019 4.49348C6.00003 4.29837 6 4.10327 6.0001 3.90816C6.00016 3.79151 6.00016 3.67486 6.00004 3.55821C5.99992 3.42818 6.00009 3.29815 6.00029 3.16812C6.00022 3.12925 6.00015 3.09038 6.00007 3.05033C6.00017 3.01506 6.00028 2.97979 6.00038 2.94345C6.00039 2.91267 6.00041 2.8819 6.00042 2.85019C6.00499 2.77709 6.00499 2.77709 6.04125 2.71365C6.06519 2.71365 6.08913 2.71365 6.11379 2.71365C6.11379 2.67178 6.11379 2.62991 6.11379 2.58677C6.16166 2.58677 6.20954 2.58677 6.25886 2.58677C6.26709 2.56911 6.27532 2.55145 6.28379 2.53325C6.34471 2.43938 6.42356 2.37549 6.51273 2.30131C6.54303 2.27285 6.54303 2.27285 6.57394 2.24382C6.62154 2.20615 6.62154 2.20615 6.69407 2.20615C6.69407 2.18522 6.69407 2.16428 6.69407 2.14272C7.01664 1.97505 7.33961 1.99962 7.70291 2.00345Z" fill="white"/>
<path d="M4.7602 16.0002C4.78341 16.0002 4.80661 16.0002 4.83052 16.0002C4.85721 16.0001 4.8839 16.0001 4.91139 16C4.94104 16.0001 4.9707 16.0002 5.00125 16.0003C5.03249 16.0003 5.06372 16.0002 5.09591 16.0002C5.20145 16.0002 5.30698 16.0003 5.41252 16.0005C5.48783 16.0005 5.56314 16.0005 5.63845 16.0005C5.80103 16.0005 5.9636 16.0006 6.12618 16.0008C6.36125 16.001 6.59631 16.0011 6.83137 16.0012C7.21271 16.0012 7.59405 16.0014 7.97539 16.0018C8.34591 16.0021 8.71643 16.0023 9.08696 16.0024C9.10978 16.0024 9.13261 16.0024 9.15612 16.0025C9.27061 16.0025 9.38511 16.0025 9.4996 16.0026C10.4501 16.0029 11.4005 16.0035 12.351 16.0042C12.351 16.0259 12.351 16.0475 12.351 16.0698C12.3723 16.075 12.3937 16.0801 12.4157 16.0855C12.4988 16.1083 12.5774 16.1327 12.6567 16.1681C12.6949 16.2418 12.6949 16.2418 12.7179 16.3319C12.7609 16.39 12.8069 16.4436 12.8544 16.4976C12.9877 16.6783 13.0056 16.8271 12.9988 17.0486C12.9983 17.0743 12.9979 17.1 12.9975 17.1264C12.9964 17.1892 12.9948 17.252 12.993 17.3148C12.9628 17.3148 12.9325 17.3148 12.9013 17.3148C12.9013 17.3412 12.9013 17.3675 12.9013 17.3947C12.8498 17.5914 12.7184 17.74 12.5609 17.8531C12.3512 17.9702 12.1522 17.9751 11.9198 17.9756C11.8885 17.9758 11.8571 17.976 11.8248 17.9762C11.7195 17.9768 11.6142 17.9771 11.5089 17.9775C11.4335 17.9778 11.358 17.9782 11.2826 17.9786C11.0348 17.9798 10.7869 17.9806 10.5391 17.9814C10.518 17.9815 10.4969 17.9815 10.4752 17.9816C10.0562 17.9829 9.63722 17.984 9.21824 17.9847C9.1262 17.9849 9.03416 17.985 8.94212 17.9852C8.91924 17.9852 8.89637 17.9853 8.8728 17.9853C8.50231 17.986 8.13182 17.9876 7.76133 17.9896C7.38066 17.9916 6.99999 17.9927 6.61932 17.993C6.4057 17.9932 6.1921 17.9938 5.97848 17.9954C5.77749 17.9968 5.57652 17.9972 5.37552 17.9967C5.30184 17.9967 5.22816 17.9971 5.15449 17.9979C4.4826 18.005 4.4826 18.005 4.26804 17.806C4.1832 17.695 4.12046 17.588 4.0959 17.4459C4.07572 17.4459 4.05554 17.4459 4.03475 17.4459C4.00642 17.3548 4.00025 17.2994 4.00012 17.2053C4.00008 17.1779 4.00004 17.1506 4 17.1225C4.00012 17.094 4.00024 17.0656 4.00036 17.0363C4.00024 17.0079 4.00012 16.9795 4 16.9502C4.00004 16.9229 4.00008 16.8955 4.00012 16.8674C4.00015 16.8424 4.00019 16.8175 4.00022 16.7918C4.00418 16.7251 4.00418 16.7251 4.03475 16.6268C4.05493 16.616 4.07511 16.6051 4.0959 16.594C4.11999 16.5314 4.14346 16.4686 4.16661 16.4056C4.24621 16.2263 4.31402 16.1651 4.48764 16.0964C4.55055 16.076 4.61357 16.0561 4.67682 16.037C4.70739 16.0042 4.70739 16.0042 4.7602 16.0002Z" fill="white"/>
<path d="M4.81215 8.0043C4.83866 8.00424 4.86516 8.00418 4.89247 8.00411C4.93618 8.00413 4.93618 8.00413 4.98076 8.00415C5.02718 8.00408 5.02718 8.00408 5.07453 8.00401C5.1787 8.00386 5.28287 8.00384 5.38705 8.00381C5.46154 8.00374 5.53604 8.00365 5.61053 8.00356C5.8133 8.00335 6.01606 8.00324 6.21883 8.00317C6.34548 8.00312 6.47212 8.00305 6.59877 8.00298C6.9495 8.00278 7.30024 8.00261 7.65097 8.00255C7.68465 8.00254 7.68465 8.00254 7.71901 8.00254C7.74151 8.00254 7.76402 8.00253 7.7872 8.00253C7.83281 8.00252 7.87841 8.00251 7.92401 8.00251C7.94663 8.0025 7.96925 8.0025 7.99256 8.0025C8.35885 8.00243 8.72513 8.00214 9.09142 8.00176C9.46759 8.00136 9.84377 8.00116 10.2199 8.00114C10.4311 8.00112 10.6423 8.00103 10.8534 8.00073C11.0521 8.00045 11.2508 8.00042 11.4495 8.00057C11.5224 8.00058 11.5953 8.00051 11.6682 8.00034C11.7678 8.00013 11.8674 8.00023 11.967 8.0004C11.9957 8.00027 12.0244 8.00014 12.054 8C12.2395 8.00075 12.3922 8.01877 12.5643 8.05605C12.5643 8.07786 12.5643 8.09967 12.5643 8.12214C12.6048 8.12214 12.6453 8.12214 12.687 8.12214C12.687 8.13304 12.687 8.14395 12.687 8.15518C12.7173 8.16064 12.7477 8.16609 12.779 8.17171C12.779 8.18261 12.779 8.19352 12.779 8.20475C12.7992 8.20475 12.8195 8.20475 12.8403 8.20475C13.0243 8.31615 13.0054 8.47481 12.992 8.61555C12.9763 8.70857 12.9278 8.76452 12.8002 8.83012C12.7483 8.84916 12.7483 8.84916 12.687 8.84916C12.687 8.86006 12.687 8.87097 12.687 8.8822C12.6081 8.89921 12.5298 8.91596 12.4493 8.93074C12.4151 8.93943 12.4151 8.93943 12.3803 8.9483C12.3702 8.96466 12.3601 8.98101 12.3496 8.99787C11.3774 8.99824 10.4051 8.99854 9.4328 8.99871C9.31814 8.99873 9.20347 8.99875 9.08881 8.99877C9.05456 8.99878 9.05456 8.99878 9.01963 8.99879C8.6495 8.99886 8.27938 8.99899 7.90925 8.99914C7.52975 8.9993 7.15025 8.99939 6.77075 8.99942C6.53639 8.99944 6.30203 8.99952 6.06767 8.99965C5.88827 8.99975 5.70886 8.99976 5.52946 8.99974C5.45564 8.99974 5.38182 8.99977 5.308 8.99984C5.20769 8.99992 5.10738 8.9999 5.00708 8.99985C4.97745 8.9999 4.94783 8.99995 4.91731 9C4.89065 8.99997 4.86399 8.99993 4.83652 8.9999C4.81334 8.99991 4.79015 8.99991 4.76626 8.99992C4.71349 8.99787 4.71349 8.99787 4.68282 8.98134C4.63647 8.97488 4.58976 8.96912 4.54291 8.96379C4.51757 8.96087 4.49223 8.95795 4.46612 8.95495C4.44655 8.95275 4.42698 8.95056 4.40682 8.9483C4.40682 8.93739 4.40682 8.92649 4.40682 8.91525C4.38658 8.91525 4.36634 8.91525 4.34549 8.91525C4.22823 8.86141 4.16476 8.81811 4.14998 8.73453C4.15378 8.71783 4.15757 8.70113 4.16148 8.68393C4.13112 8.68393 4.10076 8.68393 4.06948 8.68393C4.01642 8.60962 3.99984 8.54757 4.00048 8.46809C4.00032 8.44848 4.00016 8.42886 4 8.40865C4.01392 8.31436 4.08543 8.24612 4.19215 8.17171C4.26115 8.15725 4.26115 8.15725 4.31482 8.15518C4.31743 8.14502 4.32004 8.13486 4.32272 8.1244C4.34549 8.08909 4.34549 8.08909 4.39891 8.06876C4.4205 8.06354 4.44208 8.05832 4.46432 8.05295C4.49646 8.04493 4.49646 8.04493 4.52925 8.03675C4.62792 8.01472 4.70617 8.0044 4.81215 8.0043Z" fill="white"/>
<path d="M4.10343 10.0002C4.1471 10.0001 4.1471 10.0001 4.19166 10C4.22383 10.0001 4.256 10.0002 4.28915 10.0003C4.32318 10.0003 4.35721 10.0002 4.39227 10.0002C4.50703 10.0002 4.62179 10.0003 4.73655 10.0005C4.81852 10.0005 4.90049 10.0005 4.98247 10.0005C5.15932 10.0005 5.33618 10.0006 5.51304 10.0008C5.76874 10.0011 6.02445 10.0011 6.28016 10.0012C6.695 10.0013 7.10984 10.0015 7.52468 10.0018C7.92772 10.0021 8.33077 10.0024 8.73381 10.0025C8.75865 10.0025 8.78348 10.0025 8.80906 10.0025C8.93363 10.0026 9.0582 10.0026 9.18277 10.0027C10.2167 10.003 11.2506 10.0036 12.2845 10.0043C12.2845 10.0266 12.2845 10.0488 12.2845 10.0717C12.3512 10.0828 12.4179 10.0939 12.4866 10.1054C12.4866 10.1276 12.4866 10.1499 12.4866 10.1728C12.5056 10.1752 12.5246 10.1776 12.5442 10.1801C12.7124 10.2376 12.823 10.4038 12.9244 10.5433C12.9703 10.645 12.9852 10.7355 12.9918 10.8464C12.9941 10.8771 12.9963 10.9078 12.9986 10.9395C13.0063 11.1403 12.9831 11.2751 12.8908 11.4528C12.8681 11.5088 12.8455 11.5649 12.8234 11.6212C12.8012 11.6212 12.7789 11.6212 12.756 11.6212C12.7449 11.6545 12.7338 11.6879 12.7223 11.7222C12.7001 11.7222 12.6779 11.7222 12.655 11.7222C12.655 11.7556 12.655 11.7889 12.655 11.8233C12.605 11.84 12.605 11.84 12.5539 11.857C12.5428 11.8792 12.5317 11.9014 12.5203 11.9243C12.3106 11.9926 12.1166 12.0011 11.8975 11.9998C11.8627 11.9999 11.828 11.9999 11.7921 12C11.6762 12.0001 11.5602 11.9997 11.4442 11.9994C11.3608 11.9993 11.2775 11.9993 11.1942 11.9994C11.015 11.9994 10.8358 11.9992 10.6567 11.9988C10.3976 11.9983 10.1386 11.9981 9.87954 11.998C9.45921 11.9979 9.03887 11.9974 8.61854 11.9968C8.21034 11.9962 7.80215 11.9957 7.39395 11.9954C7.36877 11.9954 7.34359 11.9954 7.31764 11.9954C7.19131 11.9953 7.06498 11.9952 6.93864 11.9951C5.89137 11.9944 4.84409 11.9932 3.79681 11.9917C3.7857 11.9584 3.77458 11.925 3.76313 11.8907C3.73882 11.8927 3.7145 11.8948 3.68945 11.897C3.57505 11.8893 3.51659 11.8592 3.42632 11.7896C3.42632 11.7563 3.42632 11.7229 3.42632 11.6885C3.406 11.6802 3.38568 11.6719 3.36475 11.6633C3.27956 11.6143 3.2489 11.5703 3.19897 11.4864C3.17735 11.451 3.17735 11.451 3.15529 11.4149C3.12319 11.3517 3.12319 11.3517 3.12319 11.2843C3.10096 11.2843 3.07873 11.2843 3.05583 11.2843C2.9378 11.0483 3.03531 10.6881 3.08951 10.4422C3.13397 10.4422 3.17843 10.4422 3.22423 10.4422C3.23326 10.4221 3.24229 10.4019 3.2516 10.3812C3.33688 10.2241 3.4252 10.1893 3.59473 10.1391C3.64812 10.1217 3.70144 10.1042 3.75471 10.0865C3.78024 10.0781 3.80577 10.0697 3.83207 10.0611C4.00607 10.0002 4.00607 10.0002 4.10343 10.0002Z" fill="white"/>
<path d="M5.0886 13.0049C5.11921 13.0047 5.14982 13.0045 5.18136 13.0043C5.28312 13.0038 5.38488 13.0041 5.48665 13.0043C5.55994 13.0041 5.63322 13.0039 5.70651 13.0036C5.88442 13.0031 6.06233 13.003 6.24024 13.0032C6.38492 13.0033 6.52959 13.0033 6.67427 13.0031C6.69491 13.003 6.71556 13.003 6.73682 13.003C6.77877 13.0029 6.82071 13.0029 6.86265 13.0028C7.25535 13.0024 7.64805 13.0026 8.04075 13.0029C8.39955 13.0033 8.75835 13.0028 9.11715 13.002C9.48618 13.0012 9.85521 13.0009 10.2242 13.0011C10.4312 13.0012 10.6381 13.0011 10.8451 13.0005C11.0396 13 11.2342 13.0001 11.4288 13.0008C11.5001 13.0009 11.5714 13.0008 11.6427 13.0004C11.7402 13 11.8377 13.0004 11.9353 13.001C11.9633 13.0007 11.9913 13.0003 12.0202 13C12.312 13.0037 12.5436 13.1123 12.7546 13.335C12.9409 13.5473 12.9992 13.7237 13 14.0219C12.9971 14.225 12.9889 14.3784 12.8984 14.5558C12.8198 14.5985 12.8198 14.5985 12.745 14.6241C12.7349 14.6474 12.7248 14.6706 12.7143 14.6946C12.7042 14.7165 12.6941 14.7383 12.6837 14.7608C12.6031 14.7864 12.6031 14.7864 12.5303 14.795C12.5303 14.8288 12.5303 14.8626 12.5303 14.8975C12.4088 14.8975 12.2874 14.8975 12.1622 14.8975C12.1622 14.9313 12.1622 14.9651 12.1622 15C9.70241 15 7.24262 15 4.70828 15C4.70828 14.9774 4.70828 14.9549 4.70828 14.9317C4.61718 14.9204 4.52608 14.9091 4.43221 14.8975C4.43221 14.8637 4.43221 14.8298 4.43221 14.795C4.40959 14.7979 4.38698 14.8008 4.36367 14.8038C4.25042 14.792 4.22189 14.7486 4.14847 14.654C4.05518 14.528 4.00277 14.4498 4.00277 14.2824C4.00206 14.2514 4.00134 14.2203 4.00061 14.1883C3.99747 13.9884 4.00616 13.7965 4.03344 13.599C4.06381 13.599 4.09418 13.599 4.12547 13.599C4.1223 13.5736 4.11914 13.5483 4.11588 13.5221C4.12547 13.4282 4.12547 13.4282 4.20024 13.3534C4.22617 13.333 4.25211 13.3125 4.27884 13.2915C4.28896 13.2689 4.29908 13.2464 4.30951 13.2231C4.53697 13.0352 4.81433 13.0029 5.0886 13.0049Z" fill="white"/>
<path d="M41.9706 26C42.1507 26 42.3309 26 42.5165 26C42.5165 26.0194 42.5165 26.0387 42.5165 26.0587C42.5461 26.0641 42.5756 26.0696 42.6061 26.0752C42.7883 26.1419 42.887 26.2541 42.9729 26.4052C43.0201 26.6121 43.0063 26.7989 42.926 26.9974C42.9035 26.9974 42.881 26.9974 42.8578 26.9974C42.8465 27.0265 42.8352 27.0555 42.8236 27.0855C42.8011 27.0855 42.7786 27.0855 42.7554 27.0855C42.7441 27.1145 42.7329 27.1435 42.7213 27.1735C42.6013 27.2407 42.4861 27.2434 42.3467 27.2514C42.2701 27.2567 42.2701 27.2567 42.2094 27.3202C42.1132 27.3323 42.1132 27.3323 42.0004 27.3385C41.963 27.3407 41.9256 27.3429 41.8871 27.3451C41.8583 27.3466 41.8296 27.348 41.7999 27.3495C41.7999 27.3785 41.7999 27.4076 41.7999 27.4375C41.7717 27.4434 41.7435 27.4493 41.7144 27.4554C41.6093 27.4775 41.5043 27.4997 41.3992 27.522C41.3538 27.5316 41.3084 27.5412 41.263 27.5507C41.1976 27.5644 41.1322 27.5783 41.0668 27.5922C41.0275 27.6005 40.9882 27.6088 40.9477 27.6173C40.8597 27.6391 40.7884 27.6651 40.708 27.7015C40.6296 27.7118 40.5523 27.7162 40.4733 27.7208C40.3908 27.7279 40.3908 27.7279 40.2985 27.7895C40.2321 27.806 40.2321 27.806 40.1578 27.8189C40.1308 27.8237 40.1039 27.8286 40.0762 27.8335C40.0197 27.8433 39.9632 27.8531 39.9066 27.8629C39.8797 27.8677 39.8528 27.8726 39.8251 27.8775C39.7882 27.8839 39.7882 27.8839 39.7507 27.8904C39.6742 27.9063 39.6742 27.9063 39.5819 27.9656C39.5172 27.9789 39.5172 27.9789 39.4448 27.9874C39.4183 27.9908 39.3919 27.9942 39.3646 27.9977C39.3094 28.0043 39.2542 28.0109 39.199 28.0174C39.0761 28.0332 38.9797 28.0484 38.8677 28.0967C38.721 28.1596 38.5717 28.178 38.4111 28.2021C38.3493 28.2114 38.2876 28.2209 38.2259 28.2306C38.1988 28.2347 38.1717 28.2387 38.1438 28.2429C38.1229 28.2482 38.102 28.2535 38.0805 28.2589C38.0693 28.2783 38.058 28.2976 38.0464 28.3176C37.9771 28.3287 37.9771 28.3287 37.8928 28.3341C37.7888 28.3346 37.7888 28.3346 37.7052 28.3763C37.6004 28.3846 37.4957 28.3894 37.3907 28.3945C37.291 28.3978 37.291 28.3978 37.2274 28.4643C37.1237 28.47 37.1237 28.47 37.0014 28.4679C36.9608 28.4674 36.9203 28.4669 36.8785 28.4663C36.8472 28.4657 36.816 28.465 36.7838 28.4643C36.7838 28.4933 36.7838 28.5224 36.7838 28.5523C36.7571 28.5537 36.7304 28.5552 36.7029 28.5566C36.6511 28.5599 36.6511 28.5599 36.5983 28.5633C36.5466 28.5664 36.5466 28.5664 36.4939 28.5695C36.4516 28.5755 36.4516 28.5755 36.4085 28.5816C36.3972 28.601 36.386 28.6204 36.3744 28.6403C36.3062 28.6504 36.3062 28.6504 36.2229 28.655C36.0957 28.6594 36.0957 28.6594 35.999 28.7283C35.6822 28.8435 35.3494 28.9214 35.0094 28.963C34.9982 28.9727 34.9869 28.9824 34.9753 28.9923C34.6911 29.0076 34.4376 29.0131 34.1926 28.8787C34.1222 28.8163 34.1222 28.8163 34.1222 28.699C34.0997 28.699 34.0772 28.699 34.054 28.699C33.9696 28.5539 34.0058 28.3298 34.0199 28.1709C34.0544 28.0842 34.0893 28.0376 34.1563 27.9656C34.1789 27.9656 34.2014 27.9656 34.2246 27.9656C34.2246 27.9268 34.2246 27.8881 34.2246 27.8482C34.2584 27.8482 34.2922 27.8482 34.327 27.8482C34.3382 27.8192 34.3495 27.7901 34.3611 27.7602C34.4286 27.7602 34.4962 27.7602 34.5658 27.7602C34.5771 27.7312 34.5883 27.7021 34.5999 27.6722C34.7126 27.6722 34.8252 27.6722 34.9412 27.6722C34.9524 27.6431 34.9637 27.6141 34.9753 27.5842C35.0992 27.5842 35.223 27.5842 35.3507 27.5842C35.3507 27.5551 35.3507 27.5261 35.3507 27.4962C35.3825 27.4947 35.4143 27.4933 35.447 27.4918C35.948 27.4967 35.948 27.4967 36.3744 27.3495C36.4537 27.3291 36.5333 27.3095 36.6132 27.2908C36.6245 27.2811 36.6357 27.2715 36.6473 27.2615C36.7039 27.2511 36.7609 27.2422 36.818 27.234C36.9441 27.2149 37.07 27.1957 37.1954 27.1735C37.2198 27.1692 37.2441 27.165 37.2692 27.1606C37.3376 27.1464 37.3376 27.1464 37.398 27.0855C37.4746 27.0754 37.4746 27.0754 37.5644 27.0708C37.6876 27.0645 37.7676 27.0477 37.8758 26.9974C38.0579 26.9531 38.2337 26.9268 38.4217 26.9094C38.4217 26.8707 38.4217 26.832 38.4217 26.7921C38.5344 26.7921 38.647 26.7921 38.763 26.7921C38.7742 26.763 38.7855 26.734 38.7971 26.7041C38.8283 26.7026 38.8596 26.7012 38.8917 26.6997C38.9323 26.6975 38.9728 26.6953 39.0146 26.6931C39.0752 26.69 39.0752 26.69 39.137 26.6869C39.2443 26.6835 39.2443 26.6835 39.3089 26.6161C39.3832 26.607 39.3832 26.607 39.475 26.6032C39.6906 26.5894 39.8901 26.5476 40.098 26.4987C40.1335 26.4907 40.169 26.4827 40.2055 26.4744C40.3664 26.448 40.3664 26.448 40.5033 26.3814C40.5802 26.3731 40.6571 26.3682 40.7344 26.3632C40.8199 26.3552 40.8199 26.3552 40.9127 26.2934C40.9782 26.2757 41.0445 26.26 41.1111 26.2457C41.1458 26.2381 41.1805 26.2304 41.2162 26.2225C41.3225 26.2053 41.4191 26.2023 41.527 26.2054C41.5347 26.1864 41.5423 26.1674 41.5503 26.1478C41.5952 26.088 41.5952 26.088 41.6753 26.0722C41.7059 26.0714 41.7365 26.0705 41.7679 26.0697C41.8582 26.0679 41.8582 26.0679 41.9364 26.0587C41.9477 26.0393 41.959 26.0199 41.9706 26Z" fill="white"/>
<path d="M42.1373 21.0016C42.4181 20.9889 42.6334 21.0496 42.8543 21.207C42.8671 21.2876 42.8671 21.2876 42.8543 21.3536C42.8768 21.3536 42.8994 21.3536 42.9226 21.3536C42.9981 21.5077 43.0124 21.6579 42.9909 21.8229C42.9562 21.8905 42.9562 21.8905 42.9226 21.9403C42.9001 21.9403 42.8775 21.9403 42.8543 21.9403C42.843 21.9693 42.8318 21.9983 42.8202 22.0283C42.7976 22.0283 42.7751 22.0283 42.7519 22.0283C42.7406 22.0573 42.7293 22.0863 42.7177 22.1162C42.6952 22.1162 42.6727 22.1162 42.6494 22.1162C42.6382 22.1453 42.6269 22.1743 42.6153 22.2042C42.5134 22.2868 42.4279 22.3071 42.2909 22.3234C42.2552 22.328 42.2194 22.3326 42.1825 22.3373C42.1451 22.3418 42.1076 22.3463 42.069 22.3509C41.9929 22.3604 41.9167 22.3702 41.8407 22.3802C41.8067 22.3845 41.7728 22.3887 41.7378 22.3931C41.7119 22.3985 41.686 22.404 41.6593 22.4096C41.648 22.4289 41.6368 22.4483 41.6251 22.4682C41.5614 22.487 41.5614 22.487 41.4782 22.5029C41.4326 22.5119 41.4326 22.5119 41.3862 22.5211C41.3538 22.5272 41.3214 22.5334 41.288 22.5397C41.2224 22.5526 41.1569 22.5656 41.0914 22.5786C41.044 22.5879 41.044 22.5879 40.9956 22.5974C40.7294 22.6329 40.7294 22.6329 40.4984 22.7322C40.4536 22.7409 40.4083 22.7482 40.363 22.755C40.1181 22.7955 39.8781 22.8514 39.6371 22.9065C39.5565 22.9249 39.4758 22.9431 39.3951 22.9613C39.3439 22.973 39.2926 22.9846 39.2414 22.9963C39.2172 23.0018 39.1931 23.0072 39.1682 23.0128C39.0558 23.0329 39.0558 23.0329 38.962 23.0842C38.9166 23.0889 38.871 23.0923 38.8254 23.0952C38.6786 23.1075 38.5515 23.139 38.4138 23.1833C38.3474 23.2015 38.3474 23.2015 38.245 23.2015C38.245 23.2209 38.245 23.2402 38.245 23.2602C38.224 23.2616 38.203 23.2631 38.1813 23.2645C38.14 23.2678 38.14 23.2678 38.0977 23.2712C38.0567 23.2743 38.0567 23.2743 38.0149 23.2774C37.9284 23.2865 37.9284 23.2865 37.8352 23.3482C37.7582 23.3646 37.6806 23.3791 37.6026 23.3922C37.4134 23.4243 37.2376 23.4679 37.0568 23.5251C36.8909 23.5682 36.7216 23.5865 36.5504 23.6079C36.5239 23.6115 36.4975 23.615 36.4702 23.6186C36.4343 23.6231 36.4343 23.6231 36.3977 23.6277C36.3223 23.6405 36.3223 23.6405 36.2305 23.7002C36.0684 23.7527 35.906 23.7901 35.7333 23.8028C35.5378 23.8174 35.3628 23.8738 35.1827 23.9385C34.9619 24.0103 34.7148 24.0147 34.4849 23.9752C34.3546 23.9216 34.2457 23.8504 34.1478 23.7588C34.1478 23.7395 34.1478 23.7201 34.1478 23.7002C34.114 23.7002 34.0802 23.7002 34.0453 23.7002C34.0045 23.5949 34.0042 23.5069 34.0027 23.3959C34.0018 23.3575 34.0009 23.3192 34 23.2797C34.0193 23.0943 34.1318 23.0032 34.2843 22.8789C34.3069 22.8595 34.3294 22.8402 34.3526 22.8202C34.5664 22.7339 34.7682 22.7209 35.0014 22.7322C35.0126 22.7032 35.0239 22.6741 35.0355 22.6442C35.0735 22.6424 35.1116 22.6406 35.1507 22.6387C35.2759 22.626 35.3649 22.5935 35.4751 22.5416C35.6247 22.4723 35.7465 22.4504 35.9155 22.4459C36.0007 22.4381 36.0525 22.4138 36.1281 22.3802C36.1811 22.3703 36.2345 22.3618 36.2881 22.3546C36.4595 22.3273 36.6832 22.2847 36.8109 22.1749C36.867 22.1694 36.9233 22.1654 36.9795 22.1621C37.2395 22.1433 37.4785 22.1078 37.7215 22.024C37.9035 21.9667 38.0925 21.9262 38.2791 21.8816C38.3218 21.871 38.3644 21.8605 38.4083 21.8496C38.4715 21.8343 38.535 21.8199 38.5992 21.8083C38.6175 21.8034 38.6358 21.7986 38.6547 21.7936C38.666 21.7742 38.6772 21.7549 38.6888 21.7349C38.7582 21.7238 38.7582 21.7238 38.8425 21.7184C38.9466 21.7179 38.9466 21.7179 39.0303 21.6763C39.0969 21.6666 39.1639 21.6583 39.2309 21.6506C39.5797 21.6227 39.5797 21.6227 39.8838 21.5003C39.9627 21.4836 40.0421 21.4701 40.1218 21.4563C40.1905 21.4472 40.1905 21.4472 40.2253 21.4123C40.3343 21.3963 40.4437 21.3839 40.5532 21.3711C40.666 21.3541 40.7659 21.3268 40.874 21.295C40.9895 21.2719 41.1053 21.2508 41.2213 21.2299C41.3216 21.2134 41.3216 21.2134 41.3861 21.1483C41.4627 21.1382 41.4627 21.1382 41.5526 21.1336C41.6768 21.1273 41.754 21.1078 41.8642 21.0603C41.9372 21.0546 41.9372 21.0546 42.0093 21.0566C42.0515 21.0578 42.0938 21.0591 42.1373 21.0603C42.1373 21.0409 42.1373 21.0216 42.1373 21.0016Z" fill="white"/>
<path d="M42.3244 31.0005C42.3497 31.0006 42.3749 31.0008 42.401 31.0009C42.4629 31.0013 42.5249 31.0018 42.5868 31.0024C42.5868 31.0317 42.5868 31.0611 42.5868 31.0913C42.6142 31.0941 42.6142 31.0941 42.6423 31.0969C42.7966 31.1427 42.9008 31.2239 42.9751 31.3471C43.0054 31.4895 43.0017 31.6289 42.9964 31.7733C42.9739 31.7733 42.9513 31.7733 42.9281 31.7733C42.926 31.7941 42.9239 31.8149 42.9217 31.8363C42.872 31.9892 42.7602 32.0887 42.606 32.168C42.4084 32.2477 42.1866 32.2425 41.9724 32.2477C41.9724 32.2673 41.9724 32.2869 41.9724 32.307C41.9506 32.311 41.9288 32.3149 41.9064 32.3189C41.8782 32.3242 41.85 32.3294 41.8209 32.3348C41.7928 32.34 41.7647 32.3451 41.7357 32.3504C41.666 32.3606 41.666 32.3606 41.6311 32.396C41.5507 32.3981 41.4703 32.3985 41.39 32.3978C41.3459 32.3976 41.3019 32.3973 41.2565 32.397C41.2224 32.3967 41.1883 32.3963 41.1532 32.396C41.1532 32.4253 41.1532 32.4547 41.1532 32.4849C41.0962 32.4904 41.0962 32.4904 41.038 32.496C40.9132 32.5041 40.9132 32.5041 40.846 32.5739C40.7719 32.5906 40.7719 32.5906 40.6838 32.6035C40.5504 32.6248 40.4284 32.6545 40.2998 32.6925C40.1956 32.7157 40.0912 32.7378 39.9866 32.7598C39.8871 32.7806 39.8871 32.7806 39.7814 32.8166C39.6466 32.8505 39.5176 32.8456 39.3782 32.8407C39.367 32.8799 39.3557 32.919 39.3441 32.9593C39.2297 32.9836 39.1152 33.0076 39.0006 33.0316C38.9685 33.0384 38.9363 33.0453 38.9031 33.0523C38.7665 33.0808 38.6315 33.1089 38.4921 33.1245C38.3655 33.1401 38.2656 33.1804 38.1494 33.2262C38.0812 33.246 38.0129 33.2657 37.9446 33.2855C37.9334 33.2953 37.9221 33.3051 37.9105 33.3152C37.858 33.3229 37.8054 33.3294 37.7526 33.3355C37.5263 33.3666 37.3065 33.415 37.0849 33.4653C37.0494 33.4733 37.0139 33.4813 36.9773 33.4895C36.8175 33.5155 36.8175 33.5155 36.6817 33.582C36.5947 33.5904 36.5078 33.5953 36.4205 33.6004C36.334 33.6056 36.334 33.6056 36.2721 33.671C36.2107 33.6877 36.2107 33.6877 36.137 33.7006C36.1103 33.7055 36.0836 33.7104 36.056 33.7155C36.0281 33.7203 36.0001 33.7252 35.9713 33.7303C35.8024 33.7603 35.6471 33.7924 35.487 33.8489C35.3881 33.8716 35.2883 33.8908 35.1884 33.91C35.0168 33.9314 35.0168 33.9314 34.8726 33.9971C34.6143 34.0126 34.4352 33.9668 34.2326 33.8211C34.1755 33.7777 34.1755 33.7777 34.1217 33.7303C34.1029 33.7139 34.0841 33.6975 34.0647 33.6806C33.9981 33.5796 33.9997 33.4805 34.0001 33.3671C34.0001 33.3445 34.0001 33.3219 34.0001 33.2986C34.0058 33.1371 34.0386 33.0337 34.1693 32.9132C34.1964 32.892 34.1964 32.892 34.2241 32.8704C34.2414 32.8548 34.2587 32.8392 34.2765 32.8231C34.4193 32.704 34.5792 32.6814 34.7685 32.672C34.849 32.6659 34.849 32.6659 34.9409 32.6035C35.0133 32.5933 35.0133 32.5933 35.0924 32.5887C35.1748 32.5839 35.235 32.5796 35.309 32.547C35.4199 32.4994 35.538 32.4799 35.6577 32.4553C35.7936 32.4254 35.9294 32.3949 36.0652 32.3645C36.1011 32.3565 36.137 32.3485 36.174 32.3403C36.2081 32.3327 36.2422 32.325 36.2773 32.3171C36.3083 32.3102 36.3392 32.3032 36.3712 32.2961C36.4416 32.283 36.4416 32.283 36.4769 32.2477C36.5177 32.2453 36.5586 32.2428 36.6006 32.2403C36.7554 32.2274 36.8944 32.1887 37.0401 32.1439C37.2303 32.0856 37.4024 32.054 37.6033 32.0402C37.7108 32.014 37.7108 32.014 37.8081 31.9808C38.0129 31.9215 38.0129 31.9215 38.0929 31.8991C38.1207 31.8912 38.1485 31.8833 38.1772 31.8752C38.2034 31.8678 38.2297 31.8605 38.2568 31.8529C38.3197 31.8371 38.3197 31.8371 38.3542 31.8029C38.4109 31.7925 38.4678 31.7835 38.5249 31.7751C38.6511 31.7559 38.7771 31.7365 38.9025 31.714C38.9268 31.7097 38.9512 31.7054 38.9762 31.701C39.0447 31.6866 39.0447 31.6866 39.1052 31.625C39.1817 31.6148 39.1817 31.6148 39.2716 31.6102C39.3954 31.6038 39.4737 31.5854 39.583 31.5361C39.6361 31.5261 39.6895 31.5175 39.743 31.5101C39.9144 31.4825 40.138 31.4395 40.2657 31.3285C40.3217 31.323 40.378 31.3189 40.4342 31.3155C40.7255 31.2942 40.9844 31.2436 41.2556 31.1506C41.4635 31.0859 41.652 31.0851 41.87 31.0913C41.87 31.0717 41.87 31.0522 41.87 31.032C42.0215 30.999 42.1693 30.9989 42.3244 31.0005Z" fill="white"/>
<path d="M6 39C7.31717 39 8.63435 39 9.99144 39C9.99286 39.3201 9.99428 39.6402 9.99574 39.97C9.99636 40.0711 9.99699 40.1723 9.99764 40.2765C9.99795 40.3998 9.99795 40.3998 9.99801 40.4575C9.99811 40.4979 9.99835 40.5383 9.9987 40.5786C9.9992 40.6397 9.99928 40.7008 9.99925 40.7619C9.9995 40.7799 9.99974 40.798 10 40.8166C9.99928 40.9405 9.99928 40.9405 9.92262 40.994C9.8545 40.9999 9.8545 40.9999 9.76934 40.9998C9.721 40.9999 9.721 40.9999 9.67167 41C9.63621 40.9998 9.60074 40.9997 9.5642 40.9995C9.52694 40.9995 9.48967 40.9995 9.45128 40.9995C9.32765 40.9995 9.20403 40.9991 9.08041 40.9987C8.99487 40.9986 8.90934 40.9986 8.82381 40.9985C8.62139 40.9983 8.41898 40.998 8.21657 40.9975C7.96356 40.9969 7.71055 40.9966 7.45754 40.9964C7.0061 40.9959 6.55466 40.995 6.10323 40.994C6.09187 40.9623 6.08052 40.9306 6.06882 40.8979C6.04611 40.8979 6.0234 40.8979 6 40.8979C6 40.2716 6 39.6453 6 39Z" fill="white"/>
<path d="M36 19C37.6342 19 39.2684 19 40.9521 19C41.0003 19.0774 40.9911 19.1569 40.9922 19.2418C40.9925 19.2605 40.9927 19.2793 40.993 19.2987C40.9935 19.3384 40.9938 19.3781 40.9941 19.4178C40.9946 19.4786 40.996 19.5393 40.9975 19.6001C40.9978 19.6387 40.9981 19.6772 40.9983 19.7158C40.9988 19.734 40.9994 19.7522 41 19.7709C40.9995 19.8555 40.9984 19.8977 40.923 19.9595C40.8499 19.9891 40.8009 19.9971 40.7195 20C40.5591 20.0107 40.4227 20.0462 40.2724 20.0909C40.241 20.0999 40.2096 20.1089 40.1772 20.1182C40.0117 20.1643 40.0117 20.1643 39.8517 20.2208C39.7688 20.2279 39.686 20.2324 39.6028 20.2369C39.5219 20.2416 39.5219 20.2416 39.4633 20.2987C39.3964 20.319 39.3964 20.319 39.3156 20.3377C39.2724 20.3477 39.2724 20.3477 39.2283 20.3579C39.123 20.3801 39.0171 20.3985 38.9101 20.4149C38.8384 20.428 38.8384 20.428 38.7512 20.4805C38.6931 20.4869 38.6931 20.4869 38.6339 20.4935C38.5798 20.4999 38.5798 20.4999 38.5246 20.5065C38.5086 20.5322 38.5086 20.5322 38.4923 20.5584C38.4169 20.5674 38.4169 20.5674 38.3223 20.5714C38.1913 20.5771 38.0951 20.5961 37.9744 20.6364C37.8672 20.6396 37.8672 20.6396 37.7802 20.6364C37.7695 20.6621 37.7588 20.6878 37.7478 20.7143C37.7197 20.7156 37.6916 20.7168 37.6626 20.7181C37.6066 20.7211 37.6066 20.7211 37.5496 20.724C37.4944 20.7267 37.4944 20.7267 37.4381 20.7295C37.3273 20.7402 37.2375 20.762 37.1328 20.7922C37.0159 20.8187 36.8987 20.8445 36.7815 20.8701C36.676 20.8929 36.676 20.8929 36.5826 20.9481C36.5032 20.9579 36.5032 20.9579 36.4127 20.9627C36.2727 20.9704 36.14 20.984 36 21C36 20.34 36 19.68 36 19Z" fill="white"/>
<path d="M40.996 28.0007C40.9969 28.2229 40.9975 28.4451 40.9979 28.6674C40.998 28.743 40.9982 28.8187 40.9985 28.8943C40.9989 29.0029 40.9991 29.1114 40.9993 29.22C40.9994 29.2539 40.9996 29.2879 40.9998 29.3229C40.9998 29.3543 40.9998 29.3857 40.9998 29.4181C40.9999 29.4458 40.9999 29.4736 41 29.5021C40.996 29.5701 40.996 29.5701 40.9632 29.6398C40.8806 29.6595 40.8806 29.6595 40.7762 29.6747C40.6337 29.6958 40.5076 29.73 40.3715 29.7793C40.2617 29.8107 40.1509 29.8383 40.0403 29.8665C39.9072 29.901 39.778 29.9408 39.6484 29.9886C39.4568 30.059 39.2621 30.1137 39.066 30.168C39.0404 30.1754 39.0149 30.1827 38.9885 30.1902C38.9653 30.1967 38.9421 30.2032 38.9182 30.2099C38.8524 30.2306 38.8524 30.2306 38.7938 30.3025C38.7167 30.3233 38.7167 30.3233 38.6274 30.3395C38.52 30.3517 38.52 30.3517 38.4323 30.4071C38.3818 30.4162 38.331 30.4239 38.2803 30.4311C38.0624 30.4676 37.8507 30.5246 37.6373 30.5837C37.6031 30.5931 37.5689 30.6025 37.5336 30.6122C37.3798 30.6428 37.3798 30.6428 37.249 30.721C37.1728 30.7308 37.0965 30.7366 37.02 30.7427C36.9979 30.747 36.9759 30.7514 36.9532 30.7559C36.9423 30.7789 36.9315 30.8019 36.9203 30.8256C36.8403 30.8465 36.8403 30.8465 36.7416 30.8627C36.613 30.8823 36.613 30.8823 36.493 30.9302C36.4052 30.9349 36.3181 30.9318 36.2301 30.9302C36.2301 30.9533 36.2301 30.9763 36.2301 31C36.1542 31 36.0782 31 36 31C36 30.4706 36 29.9412 36 29.3957C36.0976 29.3612 36.1952 29.3267 36.2958 29.2911C36.3924 29.2521 36.3924 29.2521 36.4889 29.2129C36.5983 29.1715 36.7099 29.1381 36.8216 29.1044C36.8867 29.088 36.8867 29.088 36.9203 29.047C37.0019 29.037 37.0835 29.0313 37.1654 29.0253C37.2512 29.0117 37.3043 28.9843 37.3805 28.9423C37.4335 28.929 37.487 28.9174 37.5407 28.9075C37.6678 28.8838 37.7843 28.8469 37.9064 28.8028C38.1758 28.7198 38.44 28.6498 38.7185 28.6107C38.7999 28.5998 38.7999 28.5998 38.8596 28.5238C38.9367 28.503 38.9367 28.503 39.026 28.4868C39.1334 28.4746 39.1334 28.4746 39.2211 28.4192C39.282 28.4167 39.343 28.4163 39.404 28.417C39.4372 28.4173 39.4705 28.4176 39.5048 28.418C39.5305 28.4184 39.5562 28.4188 39.5827 28.4192C39.5827 28.3962 39.5827 28.3732 39.5827 28.3494C39.6041 28.3452 39.6256 28.341 39.6477 28.3366C39.6907 28.3279 39.6907 28.3279 39.7347 28.3189C39.7629 28.3133 39.7911 28.3076 39.8202 28.3018C39.9126 28.2811 39.9126 28.2811 40.0046 28.2467C40.1477 28.1961 40.2933 28.1602 40.4398 28.1227C40.542 28.0963 40.6399 28.0684 40.7393 28.0312C40.8315 28.0008 40.9004 27.9983 40.996 28.0007Z" fill="white"/>
<path d="M40.837 23C40.8908 23 40.9446 23 41 23C41 23.5292 41 24.0584 41 24.6036C40.8386 24.6208 40.8386 24.6208 40.674 24.6385C40.674 24.6615 40.674 24.6845 40.674 24.7082C40.6532 24.7128 40.6324 24.7174 40.6109 24.7222C40.584 24.7284 40.5571 24.7345 40.5293 24.7409C40.5024 24.7469 40.4756 24.753 40.4479 24.7592C40.3813 24.7712 40.3813 24.7712 40.3479 24.8128C40.2383 24.8227 40.1287 24.8284 40.0189 24.8344C39.9876 24.8388 39.9563 24.8431 39.9241 24.8476C39.908 24.8821 39.908 24.8821 39.8915 24.9173C39.8073 24.9311 39.7239 24.9351 39.6388 24.9402C39.6146 24.9442 39.5904 24.9481 39.5655 24.9522C39.5493 24.9867 39.5493 24.9867 39.5329 25.0219C39.4422 25.0344 39.3524 25.0374 39.2611 25.0414C39.174 25.0474 39.174 25.0474 39.1298 25.1058C39.0447 25.1944 38.9344 25.2067 38.8217 25.2333C38.776 25.2445 38.7303 25.2558 38.6846 25.2672C38.6623 25.2727 38.6401 25.2782 38.6172 25.2839C38.5296 25.3076 38.4449 25.3399 38.3592 25.3705C38.2473 25.4018 38.1346 25.4297 38.022 25.4577C37.9121 25.486 37.8348 25.5119 37.7397 25.5797C37.6284 25.6117 37.5169 25.6398 37.4045 25.6668C37.265 25.6994 37.265 25.6994 37.1529 25.7889C37.0763 25.8097 37.0763 25.8097 36.9878 25.8259C36.8813 25.838 36.8813 25.838 36.7942 25.8934C36.7313 25.9065 36.6681 25.9178 36.6047 25.9283C36.4718 25.9492 36.4718 25.9492 36.3415 25.9828C36.2321 26.007 36.1233 25.9989 36.0118 25.998C36.0093 25.7765 36.0076 25.555 36.0064 25.3335C36.0059 25.2582 36.0052 25.1828 36.0044 25.1074C36.0032 24.9992 36.0026 24.8909 36.0022 24.7827C36.0017 24.7489 36.0012 24.7151 36.0007 24.6803C36.0007 24.6489 36.0007 24.6175 36.0007 24.5852C36.0004 24.5575 36.0002 24.5299 36 24.5014C36.0148 24.4109 36.043 24.381 36.1096 24.3247C36.1743 24.2979 36.1743 24.2979 36.248 24.2788C36.2887 24.2681 36.2887 24.2681 36.3302 24.2571C36.3589 24.2499 36.3877 24.2428 36.4173 24.2354C36.4465 24.2278 36.4757 24.2202 36.5058 24.2124C36.6973 24.1636 36.8885 24.1235 37.0838 24.0966C37.1596 24.0861 37.1596 24.0861 37.2181 24.011C37.2946 23.9901 37.2946 23.9901 37.3831 23.9739C37.4897 23.9618 37.4897 23.9618 37.5767 23.9064C37.6371 23.9039 37.6976 23.9035 37.7581 23.9042C37.791 23.9045 37.824 23.9048 37.858 23.9052C37.8835 23.9056 37.909 23.906 37.9353 23.9064C37.9353 23.8834 37.9353 23.8604 37.9353 23.8367C37.9566 23.8324 37.9779 23.8282 37.9998 23.8239C38.1568 23.7917 38.3064 23.7558 38.457 23.6972C38.4926 23.685 38.5283 23.6728 38.565 23.6602C38.6489 23.6365 38.6489 23.6365 38.6852 23.5926C38.751 23.5901 38.817 23.5897 38.8829 23.5905C38.9189 23.5908 38.9549 23.5911 38.992 23.5914C39.0199 23.5918 39.0477 23.5922 39.0764 23.5926C39.0764 23.5696 39.0764 23.5466 39.0764 23.5229C39.1019 23.5212 39.1275 23.5195 39.1537 23.5177C39.2032 23.5138 39.2032 23.5138 39.2537 23.5098C39.2866 23.5074 39.3195 23.505 39.3534 23.5025C39.3804 23.4977 39.4073 23.493 39.4351 23.4881C39.4458 23.465 39.4566 23.442 39.4677 23.4183C39.541 23.3975 39.541 23.3975 39.6307 23.3813C39.7383 23.3694 39.7383 23.3694 39.8263 23.3137C39.8975 23.3056 39.9688 23.2993 40.0403 23.2941C40.0793 23.2912 40.1183 23.2883 40.1586 23.2853C40.1888 23.2832 40.219 23.2811 40.2501 23.2789C40.2501 23.2559 40.2501 23.2329 40.2501 23.2092C40.3147 23.2092 40.3792 23.2092 40.4458 23.2092C40.4565 23.1747 40.4673 23.1401 40.4784 23.1046C40.5131 23.0976 40.5131 23.0976 40.5485 23.0906C40.5935 23.0813 40.5935 23.0813 40.6393 23.0719C40.6692 23.0658 40.6991 23.0598 40.7299 23.0535C40.8028 23.0426 40.8028 23.0426 40.837 23Z" fill="white"/>
<path d="M41 33C41 33.99 41 34.98 41 36C40.8756 35.9631 40.7858 35.9118 40.6718 35.8442C40.5848 35.803 40.4972 35.7651 40.4092 35.7273C40.4092 35.7016 40.4092 35.6758 40.4092 35.6494C40.3551 35.6365 40.3009 35.6236 40.2451 35.6104C40.2343 35.5718 40.2234 35.5332 40.2123 35.4935C40.1771 35.4951 40.1419 35.4967 40.1056 35.4984C39.9825 35.4935 39.9825 35.4935 39.9188 35.4556C39.8421 35.4102 39.7825 35.4015 39.6974 35.3937C39.5591 35.3805 39.5591 35.3805 39.523 35.3377C39.1805 35.2745 38.8376 35.2525 38.4912 35.2524C38.4426 35.2524 38.4426 35.2524 38.3929 35.2523C38.2598 35.2536 38.1422 35.2577 38.0133 35.2987C37.949 35.3046 37.8848 35.3093 37.8204 35.3133C37.4048 35.346 37.4048 35.346 37.0286 35.5325C36.975 35.5506 36.9214 35.5687 36.8676 35.5859C36.6913 35.6487 36.5216 35.7354 36.3578 35.8344C36.2737 35.8831 36.2737 35.8831 36.1753 35.8831C36.1753 35.9088 36.1753 35.9345 36.1753 35.961C36.1211 35.961 36.067 35.961 36.0112 35.961C36.0087 35.7745 36.0069 35.588 36.0058 35.4015C36.0053 35.338 36.0046 35.2746 36.0037 35.2111C36.0025 35.1199 36.002 35.0288 36.0015 34.9376C36.001 34.9092 36.0005 34.8808 36 34.8516C35.9999 34.6556 35.9999 34.6556 36.0556 34.5602C36.1337 34.5013 36.2005 34.5021 36.2922 34.4976C36.4307 34.4973 36.4307 34.4973 36.5363 34.4026C36.6217 34.3865 36.6217 34.3865 36.7209 34.3782C36.7538 34.3753 36.7868 34.3724 36.8207 34.3694C36.846 34.3675 36.8713 34.3656 36.8973 34.3636C36.8973 34.3379 36.8973 34.3122 36.8973 34.2857C36.923 34.2838 36.9487 34.2819 36.9752 34.2799C37.0084 34.277 37.0416 34.2741 37.0758 34.2711C37.1255 34.267 37.1255 34.267 37.1762 34.2629C37.2033 34.2576 37.2304 34.2522 37.2584 34.2468C37.2692 34.221 37.28 34.1953 37.2912 34.1688C37.365 34.1455 37.365 34.1455 37.4553 34.1274C37.5636 34.1141 37.5636 34.1141 37.6522 34.0519C37.7239 34.0428 37.7957 34.0358 37.8676 34.03C37.9266 34.0251 37.9266 34.0251 37.9867 34.0201C38.0171 34.0178 38.0476 34.0154 38.0789 34.013C38.0789 33.9873 38.0789 33.9616 38.0789 33.9351C38.198 33.9222 38.3172 33.9094 38.4399 33.8961C38.4562 33.8382 38.4562 33.8382 38.4728 33.7792C38.5377 33.7792 38.6027 33.7792 38.6697 33.7792C38.6697 33.7535 38.6697 33.7278 38.6697 33.7013C38.6926 33.6966 38.7155 33.6919 38.7392 33.687C38.769 33.6805 38.7989 33.6739 38.8297 33.6672C38.8742 33.6577 38.8742 33.6577 38.9197 33.648C39.0033 33.63 39.0033 33.63 39.0635 33.5455C39.1348 33.5235 39.1348 33.5235 39.2194 33.5065C39.3475 33.4786 39.4658 33.4415 39.5887 33.3896C39.7797 33.3111 39.9471 33.3031 40.1466 33.3117C40.1466 33.286 40.1466 33.2603 40.1466 33.2338C40.181 33.2267 40.181 33.2267 40.2161 33.2195C40.246 33.2129 40.2759 33.2064 40.3066 33.1997C40.3363 33.1933 40.3661 33.187 40.3967 33.1805C40.4803 33.1625 40.4803 33.1625 40.5405 33.0779C40.6141 33.0533 40.6141 33.0533 40.7005 33.0341C40.7289 33.0276 40.7572 33.021 40.7864 33.0143C40.8687 33 40.8687 33 41 33Z" fill="white"/>
<path d="M8.00253 42C8.33169 42 8.66086 42 9 42C9 42.6582 9 43.3165 9 43.9947C8.83953 43.9956 8.67906 43.9965 8.51373 43.9974C8.43766 43.998 8.43766 43.998 8.36005 43.9987C8.3201 43.9988 8.28015 43.9989 8.2402 43.999C8.21926 43.9992 8.19831 43.9995 8.17673 43.9997C8.14704 43.9997 8.14704 43.9997 8.11674 43.9997C8.09082 43.9998 8.09082 43.9998 8.06438 44C8.02469 43.9947 8.02469 43.9947 8.00253 43.9503C8.00047 43.8891 7.99992 43.8277 8.00001 43.7663C8.00001 43.7267 8.00001 43.6871 8.00002 43.6463C8.00013 43.6044 8.00024 43.5625 8.00036 43.5194C8.00038 43.4811 8.00041 43.4428 8.00043 43.4033C8.00054 43.2597 8.00085 43.116 8.00114 42.9724C8.0016 42.6515 8.00205 42.3306 8.00253 42Z" fill="white"/>
<path d="M4.25953 31.0001C4.29037 31.0001 4.32122 31.0002 4.353 31.0003C4.40176 31.0003 4.40176 31.0003 4.4515 31.0002C4.5613 31.0002 4.67111 31.0004 4.78091 31.0005C4.85927 31.0005 4.93762 31.0005 5.01598 31.0005C5.22945 31.0005 5.44291 31.0007 5.65638 31.0009C5.85664 31.001 6.0569 31.0011 6.25716 31.0011C6.65392 31.0012 7.05068 31.0014 7.44744 31.0016C7.83295 31.0019 8.21846 31.0021 8.60397 31.0023C8.63996 31.0023 8.63996 31.0023 8.67667 31.0023C8.88532 31.0023 9.09398 31.0024 9.30264 31.0025C10.2018 31.0028 11.1009 31.0033 12 31.0039C12 32.8944 12 34.785 12 36.7328C11.9778 36.7328 11.9555 36.7328 11.9326 36.7328C11.9229 36.7616 11.9131 36.7904 11.9031 36.82C11.8652 36.9109 11.8652 36.9109 11.7978 36.9406C11.8427 36.8219 11.8877 36.7032 11.9326 36.5844C11.9361 36.5103 11.9378 36.4371 11.9379 36.363C11.9382 36.329 11.9382 36.329 11.9384 36.2942C11.939 36.2177 11.9392 36.1413 11.9395 36.0648C11.9398 36.0092 11.9402 35.9536 11.9405 35.898C11.9415 35.7489 11.9422 35.5997 11.9428 35.4506C11.9435 35.3108 11.9443 35.1709 11.9452 35.0311C11.9475 34.6219 11.9495 34.2127 11.9516 33.8034C11.9564 32.8894 11.9613 31.9753 11.9663 31.0336C9.37518 31.0336 6.78406 31.0336 4.11442 31.0336C4.1179 31.9586 4.12137 32.8837 4.12495 33.8368C4.12579 34.1288 4.12663 34.4208 4.12749 34.7217C4.12873 34.9836 4.12873 34.9836 4.13009 35.2456C4.1307 35.3622 4.13102 35.4788 4.13117 35.5954C4.13138 35.7442 4.13207 35.8931 4.1331 36.0419C4.13339 36.0965 4.13352 36.151 4.13346 36.2056C4.13325 36.4905 4.13484 36.7391 4.28292 37C4.24955 36.9902 4.21619 36.9804 4.18182 36.9703C4.18182 36.9409 4.18182 36.9115 4.18182 36.8813C4.15958 36.8813 4.13734 36.8813 4.11442 36.8813C3.98558 36.6089 3.99949 36.3307 4.00131 36.0416C4.00129 35.987 4.00121 35.9323 4.0011 35.8776C4.00093 35.7299 4.00139 35.5822 4.00196 35.4344C4.00247 35.2797 4.00243 35.1251 4.00246 34.9704C4.00258 34.7109 4.00309 34.4515 4.00385 34.1921C4.00482 33.8587 4.00517 33.5253 4.00532 33.1919C4.00545 32.9053 4.00587 32.6188 4.00634 32.3323C4.00648 32.2401 4.00658 32.1479 4.00667 32.0556C4.00684 31.9111 4.00718 31.7666 4.00766 31.6221C4.00782 31.5689 4.00791 31.5158 4.00795 31.4626C4.00801 31.3904 4.00827 31.3181 4.00859 31.2459C4.00856 31.2246 4.00853 31.2033 4.0085 31.1813C4.00981 30.9872 4.04394 31.0005 4.25953 31.0001Z" fill="white"/>
<path fill-rule="evenodd" clip-rule="evenodd" d="M23.5279 7.74048H21.6192L21.6071 8.37575L21.6066 8.40576C21.6052 8.4895 21.6038 8.57325 21.602 8.65699L21.6002 8.7331L21.5991 8.81552L21.5971 8.8944C21.5972 8.92932 21.5973 8.94611 21.5958 8.96278C21.5945 8.97821 21.5919 8.99354 21.5868 9.02305C21.5473 9.08184 21.5319 9.1047 21.5213 9.12959C21.5146 9.14544 21.5098 9.16211 21.5019 9.18939L21.4898 9.24751H21.4251V9.31163C21.3402 9.31163 21.311 9.31163 21.2842 9.31958C21.27 9.32375 21.2566 9.33011 21.236 9.33982C21.1681 9.36896 21.134 9.38358 21.0991 9.39582C21.064 9.40812 21.0281 9.41803 20.956 9.43789C20.951 9.43929 20.9461 9.44067 20.9412 9.44204C20.8447 9.46905 20.7627 9.49198 20.6796 9.55087C20.5188 9.67623 20.3041 9.75203 20.1028 9.77456C19.9081 9.74755 19.7932 9.69608 19.6588 9.55713C19.6446 9.54189 19.6306 9.52653 19.6166 9.51118C19.5335 9.42027 19.4506 9.3296 19.3428 9.26755L19.29 9.24751C19.29 9.21867 19.29 9.2028 19.2852 9.1885C19.2794 9.17099 19.2665 9.15583 19.2379 9.12213L19.1686 9.05312C19.0826 8.96576 19.0254 8.91274 18.9017 8.8948V8.95893H18.8047C18.7748 8.98391 18.7587 8.99736 18.7437 9.0119C18.7262 9.02884 18.7101 9.04727 18.6753 9.08718C18.6437 9.14106 18.6114 9.19458 18.5782 9.24751C18.5274 9.26431 18.5032 9.27231 18.4816 9.28485C18.462 9.29623 18.4446 9.31135 18.4114 9.34019L18.3356 9.41584C18.258 9.49227 18.1941 9.56166 18.1362 9.65382C18.116 9.69195 18.1059 9.71118 18.093 9.72841C18.08 9.74593 18.0642 9.7614 18.0323 9.7926C18.0195 9.80457 18.0091 9.8143 17.9987 9.82409C17.9534 9.86678 17.9093 9.91058 17.6724 10.1453L17.7695 10.1774C17.7695 10.3133 17.8081 10.374 17.901 10.4732C18.0432 10.6086 18.183 10.7458 18.3174 10.8888C18.5278 11.1261 18.5614 11.306 18.5459 11.6203H18.4812C18.3935 11.7881 18.319 11.9553 18.2547 12.1333C18.2483 12.1517 18.242 12.17 18.2357 12.1883C18.1749 12.3653 18.1151 12.5393 17.9939 12.6864C17.9091 12.7805 17.8315 12.8017 17.706 12.8117L17.639 12.8132L17.5614 12.8152L17.4809 12.8168L17.3266 12.8205C17.2797 12.8215 17.244 12.8223 17.2083 12.823C17.0949 12.8255 16.9815 12.828 16.5078 12.8387V14.6985H17.8665V14.7626L18.0606 14.7946V14.9229L18.1577 14.955C18.1495 15.1177 18.1748 15.2492 18.2224 15.4039L18.2871 15.4359L18.3024 15.4923C18.3104 15.5259 18.3146 15.5438 18.3206 15.5611C18.3274 15.5808 18.3364 15.5997 18.3557 15.6401C18.4822 15.8789 18.5596 16.0619 18.5459 16.3337C18.5409 16.3436 18.536 16.3535 18.5311 16.3632C18.4683 16.4885 18.4136 16.5975 18.3033 16.6905C18.2633 16.7202 18.243 16.7352 18.225 16.7525C18.2066 16.7702 18.1904 16.7902 18.1577 16.8307L18.093 16.9109C18.0892 16.9139 18.0854 16.9169 18.0816 16.9199C18.0016 16.9833 17.9315 17.0388 17.8665 17.1193L17.8018 17.1995C17.7472 17.2413 17.6931 17.2839 17.6401 17.3277V17.4239C17.6573 17.4455 17.6668 17.4574 17.6773 17.4683C17.6903 17.4817 17.7048 17.4936 17.7371 17.5201C17.8468 17.5789 17.9195 17.6357 17.998 17.7305C18.051 17.7982 18.0876 17.8378 18.1636 17.8797L18.2224 17.9049C18.2224 17.9281 18.2224 17.9439 18.2264 17.9586C18.2348 17.9895 18.261 18.0157 18.3426 18.0969L18.3922 18.1454L18.3962 18.1494C18.477 18.2307 18.5535 18.3078 18.6546 18.3648L18.7076 18.3859C18.7076 18.4183 18.7076 18.4344 18.7126 18.4487C18.7174 18.4627 18.7268 18.475 18.7456 18.4995L18.7966 18.5522L18.8466 18.6057C18.8737 18.6237 18.8874 18.6329 18.9026 18.6368C18.9183 18.6409 18.9355 18.6393 18.9705 18.6361C18.9986 18.6242 19.0137 18.6178 19.0258 18.6077C19.0398 18.5961 19.0499 18.5797 19.0716 18.5442L19.0958 18.4821C19.1194 18.4821 19.1353 18.4821 19.1502 18.4781C19.1813 18.4696 19.2077 18.4436 19.2896 18.3629L19.3385 18.3137L19.3426 18.3097C19.4246 18.2297 19.5023 18.1539 19.5599 18.0537L19.5811 18.0011H19.6458L19.6782 17.9049H19.7429L19.7752 17.8087H19.8723L19.9693 17.7446C20.1289 17.7282 20.2305 17.739 20.3757 17.8067C20.4686 17.8519 20.5479 17.8831 20.6507 17.8969L20.7457 17.9049V17.969H21.0369V18.0332C21.1022 18.0525 21.167 18.074 21.231 18.0973L21.2633 18.1614L21.3462 18.1815L21.4251 18.1935V18.2897H21.4898V18.3538L21.5533 18.4032C21.5947 18.4695 21.6157 18.503 21.6265 18.5394C21.6374 18.5766 21.6379 18.6169 21.6388 18.6981L21.6389 18.7822L21.6419 18.943C21.6423 18.9919 21.6426 19.0291 21.6429 19.0664C21.6439 19.1846 21.6454 19.3029 21.6515 19.7967H23.4632C23.4752 19.7729 23.4832 19.757 23.4887 19.7403C23.4996 19.707 23.5005 19.6704 23.5033 19.5608L23.5046 19.4898C23.5065 19.414 23.5083 19.3382 23.51 19.2623L23.5151 19.0287L23.5188 18.8786C23.5214 18.7416 23.5263 18.6053 23.5394 18.4689C23.5434 18.4064 23.5454 18.3763 23.5597 18.3545C23.573 18.3343 23.597 18.3211 23.6431 18.2957L23.722 18.2576V18.1614H23.819L23.8514 18.0973L23.9324 18.084L24.0313 18.0772L24.1305 18.07L24.2072 18.0652V18.0011L24.4337 17.969V17.9049L24.6278 17.8728V17.8087H24.7248C24.8124 17.7728 24.8859 17.7447 24.9802 17.7313L25.0746 17.7245C25.1305 17.7203 25.1865 17.7162 25.2424 17.7125V17.7766C25.2593 17.7968 25.2687 17.8082 25.279 17.8188C25.2921 17.8323 25.3065 17.8447 25.3395 17.8728C25.4307 17.9238 25.4948 17.9612 25.5611 18.0424C25.5958 18.0858 25.6132 18.1075 25.6316 18.1284C25.65 18.1493 25.6694 18.1694 25.7084 18.2095L25.7904 18.2897L25.8721 18.3698L25.9541 18.45C25.9598 18.4558 25.9652 18.4615 25.9706 18.4671C26.0681 18.5686 26.1267 18.6296 26.2776 18.6424V18.5782H26.3423L26.3747 18.4821H26.4394L26.4718 18.3859H26.5365L26.5688 18.2897H26.6335L26.6659 18.1935H26.7306L26.7629 18.0973H26.8276L26.86 18.0011H26.9247L26.957 17.9049H27.0217L27.0541 17.8087H27.1188L27.1511 17.7125H27.2158L27.2482 17.6163H27.3129L27.3452 17.5201H27.4099L27.4423 17.4239H27.507C27.507 17.395 27.507 17.3765 27.5023 17.3594C27.4941 17.3294 27.4717 17.3033 27.4099 17.2315C27.3559 17.189 27.302 17.1462 27.2482 17.1033L27.1188 16.943C27.0645 16.9007 27.0105 16.858 26.957 16.8147C26.9506 16.802 26.945 16.7904 26.9399 16.7796C26.9118 16.7209 26.8963 16.6885 26.8256 16.6524L26.7629 16.6223C26.7461 16.5746 26.7376 16.5505 26.7305 16.5261C26.7234 16.5014 26.7177 16.4762 26.7062 16.4255L26.68 16.3117L26.6335 16.1093H26.6982C26.7034 16.0828 26.7085 16.0563 26.7136 16.0299C26.753 15.8249 26.792 15.6219 26.8923 15.4359L26.957 15.4039L26.9732 15.3097L26.9894 15.2115C27.02 15.1811 27.0361 15.1651 27.0468 15.1461C27.0586 15.1249 27.0636 15.0999 27.0743 15.0472L27.0864 14.955L27.1511 14.987L27.1835 14.8588H27.2805C27.3122 14.8203 27.3262 14.8033 27.3442 14.795C27.3586 14.7885 27.3755 14.7875 27.4058 14.7857L27.4803 14.7844L27.5658 14.7825L27.6558 14.7814L27.8265 14.7779C27.8789 14.7771 27.9187 14.7765 27.9585 14.7759C28.0846 14.7739 28.2107 14.7717 28.7363 14.7626V12.7746L28.0185 12.7666L27.985 12.7663C27.8903 12.7657 27.7956 12.7651 27.701 12.7636L27.6148 12.7621L27.6116 12.7621C27.4999 12.7619 27.3908 12.7618 27.2805 12.7425C27.098 12.6314 27.0401 12.4806 26.9752 12.2856C26.9137 12.0972 26.8491 11.9077 26.751 11.7346C26.6291 11.5212 26.6145 11.3506 26.6335 11.1072L26.7306 11.0752L26.769 10.993L26.7953 10.9149H26.86L26.8923 10.8187H26.957L26.9894 10.7225H27.0541L27.0864 10.6263H27.1511L27.1835 10.5301H27.2482L27.2805 10.4339H27.3452L27.3776 10.3377C27.4053 10.3377 27.4212 10.3377 27.4357 10.3333C27.4549 10.3273 27.4718 10.3136 27.511 10.2816C27.5372 10.2505 27.5521 10.2328 27.5605 10.2124C27.5717 10.1856 27.5717 10.1541 27.5717 10.0812H27.4423V10.0171H27.3452V9.92086H27.2482V9.82467H27.1511V9.72847H27.0541V9.63228H26.957V9.53609H26.86V9.43989H26.7629V9.3437H26.6659V9.24751H26.5688V9.15131H26.4718V9.05512H26.3747V8.95893H26.2776V8.86273H26.1806C26.0848 8.90132 26.0226 8.94677 25.9541 9.02305C25.912 9.0773 25.8688 9.1307 25.8247 9.18338C25.8209 9.1864 25.8171 9.1894 25.8134 9.19239C25.7333 9.25578 25.6633 9.31129 25.5983 9.3918C25.5674 9.43278 25.5518 9.45356 25.5336 9.4719C25.515 9.49077 25.4938 9.50706 25.4507 9.54009L25.3718 9.60021C25.3401 9.63288 25.3079 9.6651 25.2748 9.69641L25.1777 9.72847V9.7926C24.9984 9.77728 24.8304 9.75617 24.6601 9.69641L24.6278 9.63228L24.5307 9.60021L24.4984 9.53609L24.4315 9.52281L24.3508 9.51605L24.2698 9.50878L24.2072 9.50402V9.43989L24.1198 9.41634L24.005 9.38378C23.8908 9.35209 23.8065 9.32768 23.7144 9.25302C23.5914 9.10305 23.549 8.99985 23.5443 8.80827L23.5437 8.72683L23.5404 8.57023C23.5398 8.52275 23.5394 8.48663 23.5389 8.45051C23.5374 8.33563 23.5356 8.22075 23.5279 7.74048ZM22.7203 15.9714C23.9295 15.9714 24.9098 15.001 24.9098 13.8041C24.9098 12.6071 23.9295 11.6367 22.7203 11.6367C21.5111 11.6367 20.5309 12.6071 20.5309 13.8041C20.5309 15.001 21.5111 15.9714 22.7203 15.9714Z" fill="white"/>
<path fill-rule="evenodd" clip-rule="evenodd" d="M23.5279 25.5076H21.6192L21.6071 26.1428L21.6066 26.1728C21.6052 26.2566 21.6038 26.3403 21.602 26.4241L21.6002 26.5002L21.5991 26.5826L21.5971 26.6615C21.5972 26.6964 21.5973 26.7132 21.5958 26.7299C21.5945 26.7453 21.5919 26.7606 21.5868 26.7901C21.5473 26.8489 21.5319 26.8718 21.5213 26.8967C21.5146 26.9125 21.5098 26.9292 21.5019 26.9565L21.4898 27.0146H21.4251V27.0787C21.3402 27.0787 21.311 27.0787 21.2842 27.0867C21.27 27.0908 21.2566 27.0972 21.236 27.1069C21.1681 27.1361 21.134 27.1507 21.0991 27.1629C21.064 27.1752 21.0281 27.1851 20.956 27.205C20.951 27.2064 20.9461 27.2078 20.9412 27.2091C20.8447 27.2361 20.7627 27.2591 20.6796 27.318C20.5188 27.4433 20.3041 27.5191 20.1028 27.5417C19.9081 27.5146 19.7932 27.4632 19.6588 27.3242C19.6446 27.309 19.6306 27.2936 19.6166 27.2783C19.5335 27.1874 19.4506 27.0967 19.3428 27.0346L19.29 27.0146C19.29 26.9858 19.29 26.9699 19.2852 26.9556C19.2794 26.9381 19.2665 26.9229 19.2379 26.8892L19.1686 26.8202C19.0826 26.7329 19.0254 26.6798 18.9017 26.6619V26.726H18.8047C18.7748 26.751 18.7587 26.7644 18.7437 26.779C18.7262 26.7959 18.7101 26.8144 18.6753 26.8543C18.6437 26.9082 18.6114 26.9617 18.5782 27.0146C18.5274 27.0314 18.5032 27.0394 18.4816 27.0519C18.462 27.0633 18.4446 27.0784 18.4114 27.1073L18.3356 27.1829C18.258 27.2594 18.1941 27.3288 18.1362 27.4209C18.116 27.459 18.1059 27.4783 18.093 27.4955C18.08 27.513 18.0642 27.5285 18.0323 27.5597C18.0195 27.5717 18.0091 27.5814 17.9987 27.5912C17.9534 27.6339 17.9093 27.6777 17.6724 27.9124L17.7695 27.9445C17.7695 28.0804 17.8081 28.1411 17.901 28.2403C18.0432 28.3757 18.183 28.5129 18.3174 28.6559C18.5278 28.8932 18.5614 29.0731 18.5459 29.3874H18.4812C18.3935 29.5552 18.319 29.7224 18.2547 29.9004C18.2483 29.9187 18.242 29.9371 18.2357 29.9554C18.1749 30.1324 18.1151 30.3064 17.9939 30.4535C17.9091 30.5476 17.8315 30.5688 17.706 30.5788L17.639 30.5803L17.5614 30.5823L17.4809 30.5839L17.3266 30.5876C17.2797 30.5886 17.244 30.5894 17.2083 30.5901C17.0949 30.5926 16.9815 30.5951 16.5078 30.6058V32.4655H17.8665V32.5297L18.0606 32.5617V32.69L18.1577 32.7221C18.1495 32.8848 18.1748 33.0163 18.2224 33.171L18.2871 33.203L18.3024 33.2594C18.3104 33.293 18.3146 33.3109 18.3206 33.3282C18.3274 33.3479 18.3364 33.3668 18.3557 33.4072C18.4822 33.646 18.5596 33.829 18.5459 34.1008C18.5409 34.1107 18.536 34.1205 18.5311 34.1302C18.4683 34.2556 18.4136 34.3646 18.3033 34.4575C18.2633 34.4873 18.243 34.5023 18.225 34.5196C18.2066 34.5373 18.1904 34.5573 18.1577 34.5978L18.093 34.678C18.0892 34.681 18.0854 34.684 18.0816 34.687C18.0016 34.7504 17.9315 34.8059 17.8665 34.8864L17.8018 34.9666C17.7472 35.0084 17.6931 35.051 17.6401 35.0948V35.191C17.6573 35.2126 17.6668 35.2245 17.6773 35.2354C17.6903 35.2488 17.7048 35.2607 17.7371 35.2872C17.8468 35.346 17.9195 35.4028 17.998 35.4976C18.051 35.5653 18.0876 35.6049 18.1636 35.6468L18.2224 35.672C18.2224 35.6952 18.2224 35.711 18.2264 35.7257C18.2348 35.7566 18.261 35.7827 18.3426 35.864L18.3922 35.9125L18.3962 35.9165C18.477 35.9978 18.5535 36.0749 18.6546 36.1319L18.7076 36.153C18.7076 36.1854 18.7076 36.2015 18.7126 36.2158C18.7174 36.2298 18.7268 36.2421 18.7456 36.2666L18.7966 36.3193L18.8466 36.3728C18.8737 36.3908 18.8874 36.3999 18.9026 36.4039C18.9183 36.408 18.9355 36.4064 18.9705 36.4032C18.9986 36.3913 19.0137 36.3848 19.0258 36.3748C19.0398 36.3632 19.0499 36.3468 19.0716 36.3113L19.0958 36.2491C19.1194 36.2491 19.1353 36.2491 19.1502 36.2451C19.1813 36.2367 19.2077 36.2107 19.2896 36.13L19.3385 36.0808L19.3425 36.0768C19.4246 35.9968 19.5023 35.921 19.5599 35.8208L19.5811 35.7682H19.6458L19.6782 35.672H19.7429L19.7752 35.5758H19.8723L19.9693 35.5117C20.1289 35.4953 20.2305 35.5061 20.3757 35.5738C20.4686 35.619 20.5479 35.6502 20.6507 35.664L20.7457 35.672V35.7361H21.0369V35.8002C21.1022 35.8195 21.167 35.8411 21.231 35.8644L21.2633 35.9285L21.3462 35.9485L21.4251 35.9606V36.0568H21.4898V36.1209L21.5533 36.1703C21.5947 36.2366 21.6157 36.2701 21.6265 36.3065C21.6374 36.3437 21.6379 36.3839 21.6388 36.4652L21.6389 36.5492L21.6419 36.71C21.6423 36.759 21.6426 36.7962 21.6429 36.8335C21.6439 36.9517 21.6454 37.07 21.6515 37.5638H23.4632C23.4752 37.5399 23.4832 37.5241 23.4887 37.5074C23.4996 37.4741 23.5005 37.4375 23.5033 37.3279L23.5046 37.2569C23.5065 37.1811 23.5083 37.1053 23.51 37.0294L23.5151 36.7957L23.5188 36.6457C23.5214 36.5087 23.5263 36.3724 23.5394 36.236C23.5434 36.1735 23.5454 36.1434 23.5597 36.1216C23.573 36.1014 23.597 36.0882 23.6431 36.0628L23.722 36.0247V35.9285H23.819L23.8514 35.8644L23.9324 35.8511L24.0313 35.8443L24.1305 35.8371L24.2072 35.8323V35.7682L24.4337 35.7361V35.672L24.6278 35.6399V35.5758H24.7248C24.8124 35.5399 24.8859 35.5118 24.9802 35.4984L25.0746 35.4916C25.1305 35.4874 25.1865 35.4833 25.2424 35.4796V35.5437C25.2593 35.5639 25.2687 35.5753 25.279 35.5858C25.2921 35.5994 25.3065 35.6118 25.3395 35.6399C25.4307 35.6909 25.4948 35.7282 25.5611 35.8095C25.5958 35.8529 25.6132 35.8746 25.6316 35.8955C25.65 35.9164 25.6694 35.9365 25.7084 35.9766L25.7904 36.0568L25.8721 36.1369L25.9541 36.2171C25.9598 36.2229 25.9652 36.2286 25.9706 36.2342C26.0681 36.3357 26.1267 36.3966 26.2776 36.4095V36.3453H26.3423L26.3747 36.2491H26.4394L26.4718 36.153H26.5365L26.5688 36.0568H26.6335L26.6659 35.9606H26.7306L26.7629 35.8644H26.8276L26.86 35.7682H26.9247L26.957 35.672H27.0217L27.0541 35.5758H27.1188L27.1511 35.4796H27.2158L27.2482 35.3834H27.3129L27.3452 35.2872H27.4099L27.4423 35.191H27.507C27.507 35.1621 27.507 35.1436 27.5023 35.1265C27.4941 35.0965 27.4717 35.0704 27.4099 34.9986C27.3559 34.956 27.302 34.9133 27.2482 34.8704L27.1188 34.7101C27.0645 34.6678 27.0105 34.6251 26.957 34.5818C26.9506 34.5691 26.945 34.5575 26.9399 34.5467C26.9118 34.488 26.8963 34.4556 26.8256 34.4195L26.7629 34.3894C26.7461 34.3417 26.7376 34.3176 26.7305 34.2932C26.7234 34.2684 26.7177 34.2433 26.7062 34.1926L26.68 34.0788L26.6335 33.8764H26.6982C26.7034 33.8499 26.7085 33.8234 26.7136 33.797C26.753 33.592 26.792 33.389 26.8923 33.203L26.957 33.171L26.9732 33.0768L26.9894 32.9786C27.02 32.9482 27.0361 32.9322 27.0468 32.9132C27.0586 32.892 27.0636 32.867 27.0743 32.8142L27.0864 32.7221L27.1511 32.7541L27.1835 32.6259H27.2805C27.3122 32.5874 27.3262 32.5704 27.3442 32.5621C27.3586 32.5556 27.3755 32.5546 27.4058 32.5528L27.4803 32.5515L27.5658 32.5496L27.6558 32.5485L27.8265 32.545C27.8789 32.5442 27.9187 32.5436 27.9585 32.543C28.0846 32.541 28.2107 32.5388 28.7363 32.5297V30.5417L28.0185 30.5337L27.985 30.5334C27.8903 30.5328 27.7956 30.5322 27.701 30.5307L27.6148 30.5292L27.6116 30.5292C27.4999 30.529 27.3908 30.5289 27.2805 30.5096C27.098 30.3985 27.0401 30.2477 26.9752 30.0527C26.9137 29.8643 26.8491 29.6748 26.751 29.5017C26.6291 29.2883 26.6145 29.1177 26.6335 28.8743L26.7306 28.8423L26.769 28.7601L26.7953 28.6819H26.86L26.8923 28.5858H26.957L26.9894 28.4896H27.0541L27.0864 28.3934H27.1511L27.1835 28.2972H27.2482L27.2805 28.201H27.3452L27.3776 28.1048C27.4053 28.1048 27.4212 28.1048 27.4357 28.1003C27.4549 28.0944 27.4718 28.0807 27.511 28.0487C27.5372 28.0175 27.5521 27.9998 27.5605 27.9795C27.5717 27.9526 27.5717 27.9212 27.5717 27.8483H27.4423V27.7841H27.3452V27.6879H27.2482V27.5918H27.1511V27.4956H27.0541V27.3994H26.957V27.3032H26.86V27.207H26.7629V27.1108H26.6659V27.0146H26.5688V26.9184H26.4718V26.8222H26.3747V26.726H26.2776V26.6298H26.1806C26.0848 26.6684 26.0226 26.7139 25.9541 26.7901C25.912 26.8444 25.8688 26.8978 25.8247 26.9505C25.8209 26.9535 25.8171 26.9565 25.8134 26.9595C25.7333 27.0229 25.6633 27.0784 25.5983 27.1589C25.5674 27.1999 25.5518 27.2206 25.5336 27.239C25.515 27.2579 25.4938 27.2741 25.4507 27.3072L25.3718 27.3673C25.3401 27.4 25.3079 27.4322 25.2748 27.4635L25.1777 27.4956V27.5597C24.9984 27.5444 24.8304 27.5233 24.6601 27.4635L24.6278 27.3994L24.5307 27.3673L24.4984 27.3032L24.4315 27.2899L24.3508 27.2831L24.2698 27.2759L24.2072 27.2711V27.207L24.1198 27.1834L24.005 27.1509C23.8908 27.1192 23.8065 27.0948 23.7144 27.0201C23.5914 26.8701 23.549 26.7669 23.5443 26.5754L23.5437 26.4939L23.5404 26.3373C23.5398 26.2898 23.5394 26.2537 23.5389 26.2176C23.5374 26.1027 23.5356 25.9878 23.5279 25.5076ZM22.7203 33.7387C23.9295 33.7387 24.9098 32.7684 24.9098 31.5714C24.9098 30.3745 23.9295 29.4041 22.7203 29.4041C21.5111 29.4041 20.5309 30.3745 20.5309 31.5714C20.5309 32.7684 21.5111 33.7387 22.7203 33.7387Z" fill="white"/>
<path fill-rule="evenodd" clip-rule="evenodd" d="M38.2646 42.4128C40.0784 42.4128 41.5488 40.9573 41.5488 39.1619C41.5488 37.3664 40.0784 35.9109 38.2646 35.9109C36.4508 35.9109 34.9805 37.3664 34.9805 39.1619C34.9805 40.9573 36.4508 42.4128 38.2646 42.4128ZM38.2652 40.2454C38.8698 40.2454 39.36 39.7602 39.36 39.1617C39.36 38.5633 38.8698 38.0781 38.2652 38.0781C37.6606 38.0781 37.1705 38.5633 37.1705 39.1617C37.1705 39.7602 37.6606 40.2454 38.2652 40.2454Z" fill="white"/>
</g>
<defs>
<clipPath id="clip0_676_8940">
<rect width="44" height="44" fill="white" transform="translate(0.832031 0.875)"/>
</clipPath>
</defs>
</svg>
