<svg width="45" height="45" viewBox="0 0 45 45" fill="none" xmlns="http://www.w3.org/2000/svg">
<g clip-path="url(#clip0_674_6381)">
<path d="M3 18C15.87 18 28.74 18 42 18C42 23.61 42 29.22 42 35C29.13 35 16.26 35 3 35C3 29.39 3 23.78 3 18ZM33.4688 20.3114C33.2742 20.4987 33.2412 20.5995 33.2143 20.8694C33.2143 20.9719 33.2156 21.0745 33.2179 21.177C33.2184 21.2583 33.2184 21.2583 33.2189 21.3412C33.2202 21.5137 33.223 21.6861 33.226 21.8586C33.2271 21.9757 33.2281 22.0929 33.2291 22.2101C33.2316 22.4968 33.2355 22.7835 33.2402 23.0702C33.1661 23.0682 33.0919 23.0663 33.0155 23.0643C32.7394 23.0575 32.4634 23.0532 32.1872 23.0497C32.0679 23.0478 31.9485 23.0453 31.8293 23.0421C31.6574 23.0375 31.4856 23.0354 31.3136 23.0338C31.2606 23.0318 31.2076 23.0299 31.153 23.0279C30.8578 23.0278 30.736 23.0629 30.5018 23.2446C30.3285 23.4323 30.3285 23.4323 30.3076 23.6713C30.3493 23.9111 30.3996 24.0177 30.5742 24.1886C30.8413 24.2757 31.0806 24.2725 31.3583 24.2704C31.412 24.2703 31.4658 24.2702 31.5212 24.2701C31.6927 24.2697 31.8643 24.2688 32.0358 24.2678C32.1522 24.2674 32.2685 24.2671 32.3849 24.2668C32.67 24.266 32.9551 24.2647 33.2402 24.2632C33.2384 24.3686 33.2384 24.3686 33.2366 24.4763C33.2327 24.7382 33.2298 25.0001 33.2277 25.2621C33.2265 25.3753 33.225 25.4884 33.223 25.6016C33.2202 25.7647 33.2189 25.9277 33.2179 26.0908C33.2161 26.2378 33.2161 26.2378 33.2143 26.3878C33.2418 26.6644 33.2974 26.8032 33.4688 27.0219C33.6888 27.1296 33.8341 27.1246 34.0781 27.0965C34.3472 26.895 34.4488 26.7871 34.5022 26.4555C34.5022 26.3533 34.5 26.2511 34.4962 26.149C34.4954 26.0679 34.4954 26.0679 34.4945 25.9851C34.4924 25.8134 34.4876 25.6418 34.4828 25.4701C34.4809 25.3533 34.4791 25.2364 34.4776 25.1196C34.4734 24.834 34.4668 24.5486 34.459 24.2632C34.5331 24.2647 34.6073 24.2663 34.6837 24.2679C34.9598 24.2733 35.2359 24.2767 35.512 24.2795C35.6313 24.281 35.7507 24.2831 35.87 24.2857C36.0419 24.2893 36.2137 24.291 36.3856 24.2923C36.4386 24.2938 36.4916 24.2954 36.5463 24.2969C36.8186 24.2971 36.9636 24.2688 37.195 24.1236C37.3805 23.9379 37.4297 23.8513 37.4297 23.5921C37.3062 23.3322 37.2191 23.231 36.9727 23.0702C36.779 23.0574 36.5939 23.0528 36.4005 23.0556C36.3173 23.0559 36.3173 23.0559 36.2324 23.0563C36.0554 23.0571 35.8785 23.059 35.7015 23.0609C35.5815 23.0616 35.4614 23.0623 35.3414 23.0629C35.0472 23.0645 34.7531 23.0671 34.459 23.0702C34.4606 22.9976 34.4622 22.925 34.4638 22.8502C34.4694 22.58 34.4728 22.3097 34.4757 22.0394C34.4772 21.9226 34.4793 21.8058 34.482 21.689C34.4857 21.5208 34.4874 21.3526 34.4887 21.1843C34.4903 21.1324 34.4919 21.0805 34.4935 21.027C34.4936 20.7588 34.465 20.6187 34.314 20.3917C34.0232 20.1097 33.8237 20.1243 33.4688 20.3114ZM23.1855 22.9956C23.1125 23.0791 23.0427 23.1654 22.9743 23.2525C22.9307 23.3077 22.8872 23.3628 22.8423 23.4197C22.7953 23.4797 22.7484 23.5396 22.7 23.6014C22.6018 23.7259 22.5036 23.8504 22.4054 23.9748C22.3566 24.0367 22.3078 24.0987 22.2576 24.1625C22.0732 24.3959 21.8869 24.6279 21.7002 24.8596C21.3812 25.2561 21.0643 25.6541 20.748 26.0526C20.399 26.4924 20.0488 26.9313 19.6968 27.3688C19.3539 27.7954 19.0138 28.224 18.6739 28.6528C18.631 28.7068 18.5882 28.7608 18.5441 28.8164C18.5039 28.8672 18.4636 28.9181 18.4222 28.9705C18.3258 29.0906 18.2266 29.2086 18.127 29.3261C17.9905 29.4696 17.9905 29.4696 18.0059 29.6316C19.313 29.6316 20.6201 29.6316 21.9668 29.6316C21.9283 29.944 21.8898 30.2563 21.8502 30.5782C21.8195 30.828 21.789 31.0778 21.7584 31.3276C21.7262 31.5909 21.6939 31.8542 21.6614 32.1174C21.624 32.4198 21.5871 32.7223 21.5502 33.0247C21.5386 33.1186 21.5269 33.2125 21.5149 33.3093C21.4989 33.4414 21.4989 33.4414 21.4825 33.5761C21.4731 33.6532 21.4636 33.7304 21.4538 33.8099C21.4333 34.0339 21.4301 34.2533 21.4336 34.4781C21.7549 34.1759 22.0375 33.8512 22.3191 33.5134C22.3661 33.4573 22.4131 33.4013 22.4615 33.3435C22.7795 32.9626 23.0915 32.5775 23.4003 32.1895C23.7632 31.7351 24.1393 31.2915 24.5147 30.847C25.0931 30.1619 25.6662 29.4726 26.2277 28.7741C26.26 28.7339 26.2923 28.6937 26.3256 28.6523C26.5788 28.3359 26.8238 28.0147 27.0703 27.693C25.7381 27.693 24.4058 27.693 23.0332 27.693C23.1475 25.9315 23.1475 25.9315 23.1836 25.3823C23.2349 24.5858 23.2815 23.7941 23.2617 22.9956C23.2366 22.9956 23.2114 22.9956 23.1855 22.9956ZM7.64648 23.7412C7.55796 23.9197 7.55796 23.9197 7.57031 24.114C7.69383 24.374 7.78089 24.4751 8.02734 24.636C8.22771 24.6516 8.42014 24.6586 8.62061 24.6588C8.68096 24.6594 8.7413 24.6601 8.80347 24.6607C9.00319 24.6625 9.20288 24.6631 9.4026 24.6636C9.5414 24.6643 9.6802 24.665 9.819 24.6657C10.1101 24.6669 10.4012 24.6675 10.6923 24.6677C11.0652 24.6681 11.438 24.6709 11.8108 24.6743C12.0976 24.6765 12.3843 24.6771 12.671 24.6771C12.8085 24.6775 12.946 24.6784 13.0834 24.6799C13.2758 24.6819 13.4681 24.6816 13.6605 24.6807C13.7171 24.6818 13.7738 24.6829 13.8322 24.684C14.1314 24.6799 14.2618 24.645 14.4992 24.4607C14.6693 24.2736 14.6693 24.2736 14.7019 24.0395C14.6369 23.7341 14.5217 23.636 14.2734 23.443C14.0546 23.4064 13.8811 23.3926 13.6629 23.3959C13.6025 23.3954 13.5421 23.3949 13.4799 23.3943C13.281 23.3931 13.0822 23.3945 12.8833 23.3961C12.7447 23.396 12.6061 23.3958 12.4676 23.3955C12.1774 23.3953 11.8872 23.3964 11.597 23.3985C11.2253 23.401 10.8537 23.4006 10.4821 23.3992C10.196 23.3984 9.90989 23.399 9.6238 23.4002C9.48678 23.4006 9.34975 23.4005 9.21272 23.4001C9.02108 23.3996 8.82954 23.4012 8.63791 23.4032C8.58147 23.4027 8.52503 23.4022 8.46688 23.4017C8.09718 23.4084 7.90454 23.4816 7.64648 23.7412Z" fill="white"/>
<path d="M3 35C15.87 35 28.74 35 42 35C42 38.381 42 39.1889 41.6191 39.7685C41.3002 40.008 40.9685 39.9888 40.6074 39.9862C40.5438 39.9866 40.4803 39.9869 40.4147 39.9872C40.2008 39.988 39.9868 39.9874 39.7728 39.9868C39.6182 39.9871 39.4636 39.9875 39.309 39.988C38.8835 39.989 38.4579 39.9887 38.0324 39.9883C37.5737 39.9881 37.1151 39.989 36.6565 39.9897C35.7576 39.9909 34.8588 39.9911 33.96 39.9909C33.2297 39.9907 32.4994 39.9909 31.769 39.9913C31.6642 39.9913 31.5593 39.9914 31.4544 39.9915C31.2964 39.9915 31.1383 39.9916 30.9803 39.9917C29.5108 39.9925 28.0412 39.9929 26.5717 39.9925C26.5163 39.9925 26.4608 39.9925 26.4037 39.9925C26.1229 39.9924 25.842 39.9923 25.5611 39.9923C25.5054 39.9922 25.4496 39.9922 25.3921 39.9922C25.2793 39.9922 25.1665 39.9921 25.0537 39.9921C23.2981 39.9916 21.5426 39.9924 19.787 39.9941C17.8152 39.9961 15.8434 39.9972 13.8717 39.9968C13.6615 39.9967 13.4513 39.9967 13.2412 39.9967C13.1635 39.9967 13.1635 39.9967 13.0843 39.9967C12.3025 39.9965 11.5207 39.9972 10.7389 39.9982C9.84998 39.9994 8.96105 39.9995 8.07213 39.9983C7.61836 39.9978 7.1646 39.9977 6.71084 39.9988C6.29573 39.9998 5.88063 39.9996 5.46552 39.9982C5.31507 39.9979 5.16463 39.9982 5.01419 39.9989C4.81017 39.9999 4.6062 39.9991 4.40218 39.9979C4.31395 39.9989 4.31395 39.9989 4.22395 40C3.85988 39.9953 3.60984 39.926 3.30469 39.6719C3 39.1889 3 38.381 3 35Z" fill="white"/>
<path d="M2.16472 11.7671C2.23623 11.7668 2.30774 11.7666 2.38142 11.7663C2.62159 11.7656 2.86174 11.7661 3.10191 11.7666C3.27561 11.7663 3.44932 11.766 3.62303 11.7656C4.10082 11.7647 4.5786 11.7649 5.05639 11.7653C5.5715 11.7655 6.0866 11.7647 6.60171 11.7641C7.611 11.763 8.62029 11.7628 9.62959 11.763C10.4497 11.7632 11.2699 11.763 12.09 11.7626C12.2078 11.7626 12.3256 11.7625 12.4434 11.7625C12.621 11.7624 12.7985 11.7623 12.976 11.7623C14.6265 11.7615 16.2771 11.7612 17.9276 11.7615C17.9899 11.7615 18.0521 11.7615 18.1162 11.7616C18.4316 11.7616 18.747 11.7617 19.0624 11.7618C19.1564 11.7618 19.1564 11.7618 19.2523 11.7618C19.3789 11.7618 19.5056 11.7619 19.6323 11.7619C21.6037 11.7624 23.5751 11.7617 25.5466 11.7601C27.7611 11.7583 29.9757 11.7574 32.1902 11.7577C32.4263 11.7578 32.6624 11.7578 32.8985 11.7578C32.9857 11.7578 32.9857 11.7578 33.0746 11.7579C33.9525 11.758 34.8304 11.7574 35.7084 11.7565C36.7066 11.7554 37.7049 11.7553 38.7032 11.7564C39.2127 11.7569 39.7222 11.757 40.2317 11.7559C40.6979 11.755 41.1641 11.7553 41.6303 11.7565C41.7992 11.7567 41.968 11.7565 42.1369 11.7558C42.3661 11.755 42.5953 11.7557 42.8245 11.7568C42.9232 11.7558 42.9232 11.7558 43.024 11.7549C43.4534 11.7592 43.7732 11.8339 44.1562 12.0468C44.5 12.4765 44.5 12.4765 44.5 15.4843C29.98 15.4843 15.46 15.4843 0.5 15.4843C0.5 12.4765 0.5 12.4765 0.929687 11.9609C1.33033 11.7656 1.72688 11.7646 2.16472 11.7671Z" fill="white"/>
<path d="M34 4C35.32 4 36.64 4 38 4C38 5.32 38 6.64 38 8C36.68 8 35.36 8 34 8C34 6.68 34 5.36 34 4Z" fill="white"/>
<path d="M33 9C34.98 9 36.96 9 39 9C39 9.33 39 9.66 39 10C37.02 10 35.04 10 33 10C33 9.67 33 9.34 33 9Z" fill="white"/>
<path d="M7 4C8.32 4 9.64 4 11 4C11 5.32 11 6.64 11 8C9.68 8 8.36 8 7 8C7 6.68 7 5.36 7 4Z" fill="white"/>
<path d="M6 9C7.98 9 9.96 9 12 9C12 9.33 12 9.66 12 10C10.02 10 8.04 10 6 10C6 9.67 6 9.34 6 9Z" fill="white"/>
</g>
<defs>
<clipPath id="clip0_674_6381">
<rect width="44" height="44" fill="white" transform="translate(0.5 0.875)"/>
</clipPath>
</defs>
</svg>
