<svg width="20" height="20" viewBox="0 0 20 20" fill="none" xmlns="http://www.w3.org/2000/svg">
<path d="M18.0483 8.43L17.9583 7.75H18.9983C19.4083 7.75 19.7483 7.41 19.7483 7C19.7483 6.59 19.4083 6.25 18.9983 6.25H17.7683L17.6583 5.39C17.4183 3.92 17.1383 2.25 13.9583 2.25H6.03828C2.85828 2.25 2.57829 3.92 2.32829 5.41L2.21828 6.25H0.988281C0.578281 6.25 0.238281 6.59 0.238281 7C0.238281 7.41 0.578281 7.75 0.988281 7.75H2.02828L1.93829 8.43C1.44829 8.6 1.08828 8.87 0.878281 9.11C0.378281 9.68 0.15828 10.47 0.26828 11.34L0.658287 14.46C0.798287 15.6 1.19828 17.04 2.73828 17.54V18.99C2.73828 19.4 3.07828 19.74 3.48828 19.74C3.89828 19.74 4.23828 19.4 4.23828 18.99V17.74H15.7383V18.99C15.7383 19.4 16.0783 19.74 16.4883 19.74C16.8983 19.74 17.2383 19.4 17.2383 18.99V17.54C18.7783 17.03 19.1783 15.6 19.3183 14.46L19.7083 11.34C19.8183 10.47 19.5983 9.68 19.0983 9.11C18.8783 8.86 18.5283 8.6 18.0383 8.43H18.0483ZM6.03828 3.75H13.9583C15.8683 3.75 15.9483 4.22 16.1783 5.61L16.5183 8.25H3.48828L3.81828 5.63C4.04828 4.22 4.12828 3.75 6.03828 3.75ZM17.8383 14.28C17.6483 15.77 17.2083 16.25 15.9983 16.25H3.99828C2.78828 16.25 2.33829 15.77 2.15829 14.28L1.76828 11.16C1.71828 10.73 1.79828 10.35 2.01828 10.11C2.22828 9.87 2.55829 9.75 3.00829 9.75H16.9983C17.4483 9.75 17.7783 9.87 17.9883 10.11C18.1983 10.35 18.2883 10.72 18.2383 11.16L17.8483 14.28H17.8383ZM7.74828 1C7.74828 0.59 8.08828 0.25 8.49828 0.25H11.4983C11.9083 0.25 12.2483 0.59 12.2483 1C12.2483 1.41 11.9083 1.75 11.4983 1.75H8.49828C8.08828 1.75 7.74828 1.41 7.74828 1ZM16.0283 12.47C16.1683 12.61 16.2483 12.8 16.2483 13C16.2483 13.1 16.2283 13.2 16.1883 13.29C16.1483 13.38 16.0983 13.46 16.0283 13.53C15.8883 13.67 15.6983 13.75 15.4983 13.75C15.2983 13.75 15.1083 13.67 14.9683 13.53C14.8983 13.46 14.8483 13.38 14.8083 13.29C14.7683 13.2 14.7483 13.1 14.7483 13C14.7483 12.8 14.8283 12.61 14.9683 12.47C15.2483 12.19 15.7483 12.19 16.0283 12.47ZM5.02828 12.47C5.16828 12.61 5.24828 12.8 5.24828 13C5.24828 13.1 5.22829 13.19 5.18829 13.29C5.14829 13.38 5.09828 13.46 5.02828 13.53C4.95828 13.6 4.87828 13.65 4.78828 13.69C4.69828 13.73 4.59828 13.75 4.49828 13.75C4.29828 13.75 4.10828 13.67 3.96828 13.53C3.89828 13.46 3.84828 13.38 3.80828 13.29C3.76828 13.19 3.74828 13.1 3.74828 13C3.74828 12.9 3.76828 12.8 3.80828 12.71C3.84828 12.62 3.89828 12.54 3.96828 12.47C4.03828 12.4 4.11828 12.35 4.20828 12.31C4.39828 12.23 4.59828 12.23 4.78828 12.31C4.87828 12.34 4.95828 12.4 5.02828 12.47ZM13.2483 13C13.2483 13.41 12.9083 13.75 12.4983 13.75H7.49828C7.08828 13.75 6.74828 13.41 6.74828 13C6.74828 12.59 7.08828 12.25 7.49828 12.25H12.4983C12.9083 12.25 13.2483 12.59 13.2483 13Z" fill="black"/>
</svg>
