<svg width="12" height="17" viewBox="0 0 12 17" fill="none" xmlns="http://www.w3.org/2000/svg">
<path d="M9.33463 6.5H3.29297V4.83333C3.29297 4.11667 3.57626 3.43329 4.08459 2.91663C4.60126 2.40829 5.28464 2.125 6.0013 2.125C7.24297 2.125 8.31788 2.95828 8.61788 4.15828C8.70955 4.49162 9.05134 4.69165 9.37634 4.60832C9.71801 4.51665 9.91805 4.18338 9.83472 3.84172C9.38472 2.10005 7.80964 0.875 6.0013 0.875C4.9513 0.875 3.95955 1.28324 3.20121 2.03324C2.45121 2.79158 2.04297 3.78333 2.04297 4.83333V6.54842C0.794635 6.74259 0.167969 7.5575 0.167969 9V14C0.167969 15.6667 1.0013 16.5 2.66797 16.5H9.33463C11.0013 16.5 11.8346 15.6667 11.8346 14V9C11.8346 7.33333 11.0013 6.5 9.33463 6.5ZM6.6263 11.4892V13.1667C6.6263 13.5117 6.3463 13.7917 6.0013 13.7917C5.6563 13.7917 5.3763 13.5117 5.3763 13.1667V11.4683C5.1363 11.2774 4.97205 10.9958 4.97205 10.6667C4.97205 10.0917 5.43464 9.625 6.00964 9.625H6.01798C6.59298 9.625 7.05965 10.0917 7.05965 10.6667C7.05965 11.01 6.88214 11.3 6.6263 11.4892Z" fill="black"/>
</svg>
