<svg width="16" height="10" viewBox="0 0 16 10" fill="none" xmlns="http://www.w3.org/2000/svg">
<path d="M15.6211 3.8929L15.421 3.61849C15.229 3.3552 14.956 2.90405 14.8125 2.61283L13.8254 0.610413C13.6567 0.26811 13.2198 0 12.8306 0H6.00581C5.62286 0 5.16022 0.246055 4.95244 0.560189L3.13607 3.30776C2.9719 3.5561 2.58406 3.82223 2.28908 3.88895L0.697185 4.24905C0.312771 4.33597 0 4.72015 0 5.10539V7.81398C0 8.21367 0.33315 8.53886 0.742626 8.53886H1.92884C2.18047 9.38199 2.97873 10 3.92255 10C4.86643 10 5.66469 9.38199 5.91632 8.53886H9.7673C10.0189 9.38199 10.8172 10 11.7611 10C12.7049 10 13.5031 9.38199 13.7548 8.53886H15.2574C15.6669 8.53886 16 8.21367 16 7.81398V5.05047C16 4.69279 15.8336 4.1843 15.6211 3.8929ZM3.92255 8.97976C3.35289 8.97976 2.89101 8.52886 2.89101 7.97281C2.89101 7.41669 3.35289 6.96591 3.92255 6.96591C4.49227 6.96591 4.95415 7.41669 4.95415 7.97281C4.95415 8.52886 4.49227 8.97976 3.92255 8.97976ZM9.8085 3.88975H4.60461C4.33329 3.88975 4.22697 3.70479 4.36842 3.47875L5.68444 1.37471C5.82582 1.14867 6.16353 0.963712 6.43485 0.963712H9.80856L9.8085 3.88975ZM11.7611 8.97976C11.1913 8.97976 10.7295 8.52886 10.7295 7.97281C10.7295 7.41669 11.1913 6.96591 11.7611 6.96591C12.3307 6.96591 12.7926 7.41669 12.7926 7.97281C12.7926 8.52886 12.3307 8.97976 11.7611 8.97976ZM13.2654 3.88975H10.9957V0.963651H12.2833C12.5546 0.963651 12.8458 1.16955 12.9303 1.42129L13.6052 3.43211C13.6897 3.68379 13.5368 3.88975 13.2654 3.88975Z" fill="#F1592A"/>
</svg>
