<svg width="40" height="12" viewBox="0 0 40 12" fill="none" xmlns="http://www.w3.org/2000/svg">
<g clip-path="url(#clip0_396_19268)">
<path d="M17.7289 12.4555H14.5213L16.526 0.218667H19.734L17.7289 12.4555ZM11.8228 0.218667L8.76474 8.63527L8.40288 6.82287L8.40322 6.82353L7.32391 1.32047C7.32391 1.32047 7.19343 0.218667 5.80233 0.218667H0.746811L0.6875 0.425866C0.6875 0.425866 2.2335 0.745333 4.04281 1.82453L6.82957 12.4559H10.1717L15.2749 0.218667H11.8228ZM37.0525 12.4555H39.9978L37.4299 0.218334H34.8514C33.6607 0.218334 33.3707 1.13027 33.3707 1.13027L28.5867 12.4555H31.9305L32.5992 10.6379H36.6768L37.0525 12.4555ZM33.5229 8.12693L35.2083 3.5476L36.1565 8.12693H33.5229ZM28.8375 3.16133L29.2953 0.533533C29.2953 0.533533 27.8827 0 26.4103 0C24.8185 0 21.0384 0.691 21.0384 4.051C21.0384 7.2124 25.4749 7.25167 25.4749 8.9122C25.4749 10.5727 21.4955 10.2752 20.1822 9.22807L19.7053 11.9757C19.7053 11.9757 21.1376 12.6667 23.3259 12.6667C25.5148 12.6667 28.8171 11.541 28.8171 8.4772C28.8171 5.29553 24.3406 4.99933 24.3406 3.616C24.341 2.2324 27.4649 2.41013 28.8375 3.16133Z" fill="#2566AF"/>
<path d="M8.40322 6.82337L7.32391 1.32031C7.32391 1.32031 7.19343 0.218506 5.80233 0.218506H0.746811L0.6875 0.425706C0.6875 0.425706 3.11736 0.925905 5.44805 2.79984C7.67653 4.59097 8.40322 6.82337 8.40322 6.82337Z" fill="#E6A540"/>
</g>
<defs>
<clipPath id="clip0_396_19268">
<rect width="40" height="12" fill="white"/>
</clipPath>
</defs>
</svg>
