<svg width="18" height="18" viewBox="0 0 18 18" fill="none" xmlns="http://www.w3.org/2000/svg">
<path d="M9 0C4.03 0 0 4.03 0 9C0 10.67 0.46001 12.24 1.26001 13.59L0 18L4.40997 16.74C5.75997 17.54 7.33 18 9 18C13.97 18 18 13.97 18 9C18 4.03 13.97 0 9 0ZM13.82 12.44C13.61 13.03 12.61 13.57 12.16 13.62C11.71 13.67 11.29 13.83 9.21002 13.01C6.71002 12.01 5.12 9.43 5 9.27C4.88 9.11 4 7.93001 4 6.71001C4 5.49001 4.62999 4.9 4.85999 4.64C5.08999 4.39 5.36002 4.33 5.52002 4.33C5.69002 4.33 5.85 4.33 6 4.34C6.17 4.34 6.36999 4.33999 6.54999 4.75999C6.76999 5.24999 7.23999 6.47 7.29999 6.58C7.35999 6.7 7.40001 6.84999 7.32001 7.00999C7.23001 7.16999 7.19001 7.28 7.07001 7.42C6.95001 7.56 6.81001 7.74001 6.70001 7.85001C6.57001 7.97001 6.45003 8.10001 6.59003 8.35001C6.74003 8.59001 7.23002 9.41 7.96002 10.06C8.90002 10.91 9.69 11.17 9.94 11.29C10.18 11.41 10.33 11.39 10.47 11.23C10.62 11.07 11.09 10.51 11.25 10.26C11.41 10.02 11.57 10.06 11.8 10.14C12.03 10.22 13.23 10.83 13.48 10.95C13.72 11.08 13.89 11.14 13.95 11.24C14.01 11.34 14.01 11.84 13.81 12.42L13.82 12.44Z" fill="black"/>
</svg>
